<svg width="1230" height="1244" viewBox="0 0 1230 1244" fill="none" xmlns="http://www.w3.org/2000/svg" xmlns:xlink="http://www.w3.org/1999/xlink">
<path d="M701.802,143.309L104.846,717.54C62.386,758.38 79.557,830.396 135.768,847.164L925.944,1082.914C982.156,1099.696 1035.23,1048.692 1021.478,991.02L828.258,181.039C814.52,123.43 744.262,102.468 701.802,143.309Z" fill="#FFF1C9"/>
<path d="M695.848,859.193L437.277,859.193C398.026,937.577 378.383,1024.501 380.07,1112.347L747.226,1112.683C745.9,1066.319 740.342,1020.178 730.62,974.848C722.108,935.418 710.48,896.742 695.848,859.193Z" fill="#F9B800"/>
<path d="M673.266,544.449L466.552,544.449L466.552,767.311L673.266,767.311L673.266,544.449Z" fill="#262626"/>
<path d="M591.765,507.316L541.68,507.316C525.803,507.316 510.576,500.937 499.349,489.582C488.123,478.228 481.815,462.828 481.815,446.77L481.815,382.766C481.815,367.098 487.97,352.071 498.924,340.992C509.879,329.913 524.736,323.689 540.228,323.689L591.556,323.689C612.023,323.689 631.651,331.912 646.124,346.549C660.596,361.186 668.726,381.038 668.726,401.737L668.726,429.479C668.726,450.122 660.618,469.92 646.185,484.518C631.752,499.115 612.176,507.316 591.765,507.316L591.765,507.316Z" fill="#262626"/>
<path d="M654.114,485.919L684.778,383.388C685.206,381.956 685.941,380.636 686.931,379.523C687.92,378.411 689.141,377.533 690.504,376.952C691.868,376.371 693.342,376.101 694.82,376.163C696.299,376.224 697.746,376.614 699.058,377.305L732.17,394.721C733.607,395.477 734.842,396.572 735.771,397.914C736.7,399.256 737.295,400.805 737.505,402.429C737.715,404.054 737.534,405.705 736.978,407.244C736.422,408.782 735.507,410.162 734.31,411.266L654.114,485.919Z" fill="#D3B970"/>
<path d="M646.254,481.901L733.793,426.779C735.153,425.924 736.685,425.39 738.277,425.217C739.869,425.043 741.478,425.234 742.987,425.775C744.496,426.316 745.865,427.194 746.992,428.343C748.12,429.493 748.977,430.884 749.5,432.414L761.111,466.413C761.663,468.027 761.828,469.752 761.591,471.443C761.355,473.135 760.724,474.745 759.751,476.141C758.777,477.537 757.49,478.68 755.994,479.473C754.498,480.267 752.837,480.69 751.148,480.706L646.254,481.901Z" fill="#D3B970"/>
<path d="M673.265,489.327C669.728,489.327 666.27,488.267 663.329,486.279C660.388,484.291 658.096,481.467 656.742,478.161C655.389,474.856 655.034,471.22 655.725,467.711C656.415,464.202 658.118,460.979 660.619,458.45C663.12,455.92 666.307,454.197 669.776,453.499C673.245,452.801 676.841,453.16 680.109,454.529C683.377,455.898 686.17,458.216 688.135,461.191C690.1,464.165 691.149,467.662 691.149,471.24C691.143,476.035 689.256,480.632 685.904,484.022C682.551,487.413 678.006,489.321 673.265,489.327L673.265,489.327ZM673.265,458.128C670.701,458.128 668.194,458.897 666.063,460.338C663.931,461.778 662.269,463.826 661.288,466.222C660.306,468.618 660.05,471.254 660.55,473.798C661.05,476.341 662.285,478.677 664.098,480.511C665.911,482.345 668.221,483.593 670.736,484.099C673.251,484.605 675.857,484.346 678.226,483.353C680.595,482.361 682.62,480.68 684.044,478.524C685.469,476.368 686.229,473.833 686.229,471.24C686.223,467.764 684.855,464.433 682.425,461.975C679.995,459.518 676.701,458.134 673.265,458.128Z" fill="#262626"/>
<path d="M640.904,443.722C641.614,436.931 639.652,430.131 635.442,424.792C631.231,419.454 625.112,416.007 618.407,415.197L618.567,397.645C618.653,392.078 617.652,386.548 615.62,381.374C613.589,376.199 610.567,371.481 606.729,367.49C602.89,363.499 598.31,360.314 593.252,358.117C588.193,355.921 582.756,354.756 577.251,354.689L513.291,354.229C504.913,354.219 496.872,357.57 490.932,363.547C484.993,369.524 481.639,377.639 481.606,386.113L480.93,465.119C480.836,471.746 482.034,478.326 484.456,484.484C486.879,490.641 490.477,496.256 495.047,501.006C499.617,505.755 505.067,509.548 511.087,512.165C517.107,514.782 523.578,516.174 530.13,516.26L533.082,516.26L532.688,560.049L617.202,560.659L617.669,508.796L617.595,508.796L617.977,467.085C623.873,466.455 629.374,463.786 633.551,459.53C637.728,455.274 640.325,449.691 640.904,443.722L640.904,443.722Z" fill="#FFFFFF"/>
<path d="M805.343,662.729L703.979,723.162L766.93,854.828C766.93,854.828 795.343,909.39 848.627,883.812C859.378,878.556 868.965,871.148 876.808,862.04C884.651,852.932 890.588,842.312 894.26,830.818L949.031,662.729C949.031,662.729 1029.499,635.099 1041.429,563.992C1041.889,561.739 1041.927,559.418 1041.541,557.15C1040.931,553.76 1039.403,550.607 1037.125,548.044C1037.941,546.168 1038.601,544.224 1039.093,542.235C1040.199,537.719 1041.257,533.315 1037.641,529.583C1036.137,527.935 1034.061,526.938 1031.849,526.799C1029.635,526.659 1027.453,527.39 1025.759,528.837C1026.595,524.209 1025.341,520.129 1022.525,518.337C1021.367,517.648 1020.027,517.331 1018.687,517.429C1012.327,517.815 1007.703,526.635 1006.387,529.098C1000.999,539.05 989.621,555.881 972.771,579.48C972.771,579.48 997.015,546.228 984.111,537.072C980.261,534.348 975.661,538.167 973.127,540.879C968.441,545.855 966.633,552.734 963.153,558.457C958.563,565.634 952.427,571.668 945.207,576.109C933.829,583.424 921.233,587.305 910.853,596.224C906.127,600.243 901.912,604.839 898.306,609.908C894.087,615.904 892.599,622.983 888.958,629.041L832.612,722.28L805.343,662.729Z" fill="#FFFFFF"/>
<path d="M821.124,893.106C784.593,893.106 764.987,856.444 764.753,855.984L700.793,722.18L806.438,659.196L832.907,717.054L886.831,627.772C888.328,625.142 889.619,622.396 890.693,619.562C892.135,615.678 894.009,611.972 896.277,608.515C899.996,603.263 904.347,598.499 909.229,594.333C915.723,588.735 923.079,585.053 930.139,581.495C934.825,579.254 939.391,576.763 943.817,574.031C950.749,569.809 956.637,564.044 961.037,557.175C962.251,555.092 963.347,552.94 964.321,550.731C966.177,546.738 968.097,542.62 971.319,539.187C978.269,531.723 983.189,533.427 985.501,535.069C986.757,535.965 987.815,537.114 988.611,538.443C989.407,539.773 989.923,541.254 990.125,542.795C990.477,545.523 990.327,548.294 989.683,550.968C996.595,540.754 1001.343,533.216 1004.209,527.929L1004.283,527.767C1005.931,524.719 1010.937,515.426 1018.527,514.979C1020.371,514.823 1022.217,515.258 1023.803,516.223C1025.161,517.165 1026.283,518.415 1027.079,519.873C1027.875,521.33 1028.325,522.956 1028.391,524.62C1030.341,524.124 1032.385,524.162 1034.315,524.728C1036.245,525.294 1037.991,526.368 1039.375,527.842C1043.987,532.581 1042.585,538.266 1041.467,542.832C1041.071,544.458 1040.567,546.054 1039.953,547.609C1041.763,549.974 1043.047,552.707 1043.715,555.621C1044.383,558.535 1044.423,561.56 1043.827,564.49C1038.907,594.134 1020.987,620.98 992.167,642.041C979.457,651.353 965.607,658.959 950.963,664.669L896.597,831.59C892.805,843.398 886.695,854.31 878.631,863.67C870.568,873.03 860.718,880.648 849.672,886.064C840.795,890.538 831.04,892.944 821.124,893.106L821.124,893.106ZM707.177,724.146L769.144,853.744C774.319,862.774 781.202,870.684 789.402,877.02C806.856,890.194 826.425,891.724 847.569,881.56C858.011,876.434 867.322,869.228 874.943,860.374C882.565,851.52 888.34,841.2 891.923,830.034L947.101,660.775L948.269,660.377C949.057,660.104 1027.493,632.363 1039.031,563.569C1039.441,561.6 1039.479,559.569 1039.141,557.586C1038.611,554.65 1037.287,551.92 1035.317,549.699L1034.259,548.455L1034.897,546.987C1035.661,545.243 1036.273,543.437 1036.731,541.588C1037.875,536.898 1038.453,533.9 1035.907,531.275C1034.849,530.088 1033.379,529.359 1031.803,529.239C1030.227,529.118 1028.667,529.616 1027.445,530.628L1022.057,535.604L1023.373,528.364C1024.013,524.819 1023.163,521.622 1021.257,520.44C1020.533,520.011 1019.695,519.823 1018.859,519.905C1015.637,520.091 1012.193,523.537 1008.649,530.118L1008.563,530.267C1003.459,539.697 993.201,555.147 975.353,580.164L974.801,580.948L970.827,578.012L971.627,576.893C976.547,569.802 986.829,552.796 985.341,543.553C985.241,542.669 984.959,541.815 984.511,541.048C984.065,540.281 983.463,539.617 982.745,539.1C980.285,537.358 976.485,540.953 974.961,542.583C972.279,545.419 970.619,549.015 968.811,552.821C967.747,555.193 966.561,557.506 965.255,559.75C960.483,567.255 954.085,573.564 946.547,578.199C941.953,581.03 937.209,583.609 932.341,585.924C925.181,589.519 918.417,592.903 912.377,598.103C907.843,602.01 903.805,606.473 900.361,611.389C898.309,614.544 896.617,617.925 895.318,621.465C894.139,624.537 892.733,627.515 891.111,630.372L832.366,727.578L804.31,666.274L707.177,724.146Z" fill="#262626"/>
<path d="M615,453.662C614.66,453.68 614.319,453.68 613.979,453.662C611.992,453.457 610.111,452.662 608.571,451.377C607.031,450.091 605.903,448.372 605.329,446.438C604.755,444.504 604.76,442.442 605.345,440.511C605.929,438.58 607.067,436.868 608.613,435.591C610.16,434.313 612.046,433.528 614.033,433.335C616.02,433.141 618.02,433.548 619.779,434.503C621.538,435.459 622.977,436.92 623.915,438.703C624.853,440.485 625.248,442.509 625.049,444.518L625.049,444.518C624.796,447.035 623.63,449.368 621.777,451.065C619.923,452.763 617.513,453.706 615.012,453.712L615,453.662ZM615,438.211C613.998,438.212 613.017,438.506 612.177,439.059C611.337,439.611 610.674,440.399 610.267,441.325C609.861,442.252 609.729,443.277 609.888,444.278C610.047,445.279 610.489,446.211 611.161,446.963C611.834,447.714 612.707,448.252 613.676,448.512C614.645,448.771 615.667,448.74 616.619,448.424C617.571,448.107 618.411,447.518 619.039,446.727C619.666,445.937 620.053,444.98 620.153,443.971L620.153,443.971C620.287,442.589 619.875,441.21 619.006,440.135C618.137,439.061 616.882,438.378 615.516,438.236L615,438.211Z" fill="#262626"/>
<path d="M534.189,513.834L584.618,512.59C584.946,512.577 585.267,512.685 585.524,512.892C585.78,513.099 585.953,513.392 586.013,513.719C586.073,514.045 586.014,514.382 585.849,514.668C585.683,514.954 585.421,515.17 585.111,515.277L533.979,533.937L534.189,513.834Z" fill="#262626"/>
<path d="M607.448,447.193C606.836,447.196 606.244,446.968 605.79,446.554C605.335,446.14 605.049,445.57 604.988,444.954C604.71,442.193 605.156,439.407 606.281,436.876C607.406,434.345 609.17,432.158 611.396,430.536C613.533,429.061 615.988,428.126 618.556,427.807C621.124,427.489 623.73,427.798 626.156,428.707C626.47,428.816 626.759,428.988 627.005,429.213C627.252,429.438 627.451,429.712 627.59,430.016C627.729,430.321 627.806,430.651 627.816,430.987C627.826,431.323 627.768,431.657 627.647,431.969C627.526,432.282 627.343,432.567 627.11,432.806C626.877,433.045 626.599,433.234 626.292,433.362C625.985,433.489 625.655,433.553 625.323,433.548C624.991,433.544 624.664,433.471 624.36,433.335C622.699,432.733 620.922,432.532 619.171,432.748C617.42,432.964 615.743,433.591 614.274,434.579C612.751,435.689 611.545,437.185 610.776,438.917C610.007,440.649 609.703,442.555 609.895,444.444C609.928,444.769 609.896,445.097 609.803,445.41C609.71,445.723 609.557,446.014 609.352,446.267C609.148,446.52 608.896,446.73 608.612,446.885C608.327,447.039 608.015,447.136 607.694,447.168L607.448,447.193Z" fill="#262626"/>
<path d="M359.726,655.451L461.09,715.884L398.14,847.55C398.14,847.55 369.714,902.112 316.442,876.534C305.688,871.28 296.1,863.876 288.256,854.766C280.413,845.658 274.477,835.036 270.809,823.54L216.025,655.451C216.025,655.451 135.559,627.822 123.64,556.715C123.179,554.461 123.141,552.14 123.529,549.873C124.131,546.485 125.651,543.332 127.92,540.767C127.103,538.89 126.444,536.947 125.952,534.957C124.845,530.454 123.787,526.038 127.416,522.306C128.92,520.661 130.992,519.666 133.203,519.527C135.413,519.388 137.592,520.116 139.285,521.559C138.449,516.932 139.716,512.851 142.52,511.06C143.681,510.376 145.018,510.06 146.358,510.152C152.717,510.538 157.342,519.358 158.658,521.821C164.058,531.773 175.435,548.616 192.274,572.203C192.274,572.203 168.03,538.951 180.933,529.795C184.783,527.07 189.383,530.902 191.929,533.601C196.616,538.577 198.411,545.469 201.892,551.179C206.489,558.351 212.622,564.384 219.838,568.831C231.216,576.146 243.811,580.027 254.204,588.947C258.927,592.969 263.141,597.565 266.75,602.631C270.957,608.627 272.457,615.693 276.098,621.751L332.432,714.988L359.726,655.451Z" fill="#FFFFFF"/>
<path d="M343.945,885.827C334.023,885.675 324.263,883.269 315.384,878.787C304.341,873.369 294.493,865.753 286.431,856.391C278.37,847.031 272.261,836.119 268.472,824.311L214.02,657.392C199.373,651.687 185.522,644.081 172.815,634.763C144.008,613.715 126.149,586.857 121.155,557.125C120.572,554.21 120.617,551.202 121.288,548.306C121.959,545.41 123.239,542.694 125.042,540.344C124.442,538.784 123.936,537.189 123.529,535.567C122.41,530.989 121.069,525.316 125.62,520.564C127.006,519.093 128.752,518.02 130.682,517.454C132.611,516.888 134.655,516.849 136.604,517.342C136.672,515.679 137.123,514.054 137.919,512.597C138.715,511.139 139.836,509.889 141.192,508.945C142.779,507.982 144.624,507.547 146.468,507.701C154.058,508.161 159.064,517.442 160.712,520.49L160.798,520.651C163.713,526.038 168.387,533.489 175.324,543.715C174.673,541.034 174.523,538.254 174.881,535.517C175.08,533.975 175.593,532.492 176.389,531.162C177.186,529.832 178.247,528.684 179.506,527.792C181.819,526.15 186.739,524.508 193.688,531.909C196.898,535.343 198.83,539.473 200.687,543.454C201.655,545.665 202.751,547.817 203.971,549.898C208.351,556.764 214.219,562.533 221.129,566.766C225.559,569.491 230.124,571.982 234.807,574.23C241.916,577.788 249.272,581.483 255.717,587.068C260.6,591.237 264.954,596 268.681,601.25C270.946,604.707 272.815,608.413 274.253,612.297C275.338,615.132 276.633,617.881 278.128,620.519L332.063,709.789L358.533,651.93L464.189,714.927L400.229,848.645C400.083,849.155 380.463,885.827 343.945,885.827ZM133.959,521.957C132.159,521.993 130.444,522.743 129.187,524.047C126.629,526.672 127.207,529.683 128.363,534.36C128.81,536.211 129.419,538.017 130.183,539.759L130.823,541.227L129.777,542.471C127.797,544.685 126.471,547.418 125.952,550.358C125.61,552.312 125.643,554.314 126.05,556.254C137.612,625.197 216.025,652.876 216.824,653.15L217.981,653.548L273.146,822.807C276.726,833.975 282.5,844.299 290.122,853.155C297.744,862.011 307.056,869.219 317.5,874.345C338.693,884.521 358.311,882.967 375.789,869.693C383.961,863.361 390.815,855.459 395.961,846.443L457.879,716.917L360.821,659.046L332.765,720.277L274.019,623.057C272.39,620.204 270.983,617.226 269.813,614.15C268.508,610.612 266.816,607.232 264.77,604.074C261.276,599.193 257.198,594.768 252.63,590.9C246.59,585.7 239.838,582.316 232.679,578.721C227.835,576.404 223.117,573.825 218.546,570.996C211.004,566.361 204.603,560.052 199.826,552.547C198.517,550.307 197.334,547.994 196.283,545.618C194.512,541.812 192.839,538.229 190.133,535.38C188.608,533.75 184.795,530.155 182.335,531.897C181.62,532.416 181.02,533.08 180.573,533.847C180.126,534.613 179.842,535.466 179.74,536.35C178.252,545.593 188.448,562.474 193.43,569.652L194.254,570.809L190.281,573.745L189.728,572.961C171.843,547.882 161.585,532.482 156.517,523.077L156.431,522.915C152.877,516.335 149.445,512.901 146.21,512.702C145.375,512.627 144.538,512.814 143.812,513.237C141.905,514.481 141.056,517.616 141.708,521.174L143.012,528.401L137.637,523.425C136.639,522.483 135.325,521.959 133.959,521.957L133.959,521.957Z" fill="#262626"/>
<path d="M492.147,436.532C494.899,436.532 497.129,434.276 497.129,431.494C497.129,428.711 494.899,426.456 492.147,426.456C489.396,426.456 487.166,428.711 487.166,431.494C487.166,434.276 489.396,436.532 492.147,436.532Z" fill="#262626"/>
<path d="M545.579,435.711C548.33,435.711 550.561,433.455 550.561,430.673C550.561,427.89 548.33,425.635 545.579,425.635C542.828,425.635 540.598,427.89 540.598,430.673C540.598,433.455 542.828,435.711 545.579,435.711Z" fill="#262626"/>
<path d="M511.853,453.774C511.571,453.772 511.293,453.722 511.028,453.625C507.338,452.381 503.648,450.539 503.648,447.28C503.691,446.671 503.851,446.076 504.122,445.529C504.392,444.983 504.766,444.495 505.223,444.096C505.541,443.769 505.841,443.424 506.121,443.063C507.369,441.429 508.117,439.461 508.273,437.403L510.34,415.571C510.402,414.911 510.72,414.303 511.225,413.881C511.731,413.458 512.381,413.256 513.033,413.319C513.686,413.382 514.287,413.704 514.704,414.215C515.122,414.726 515.322,415.384 515.26,416.043L513.169,437.888C512.922,440.874 511.829,443.725 510.02,446.098C509.639,446.596 509.306,446.969 509.024,447.28C510.185,447.976 511.424,448.531 512.714,448.935C513.264,449.127 513.729,449.511 514.026,450.018C514.322,450.525 514.432,451.121 514.334,451.702C514.237,452.283 513.939,452.81 513.494,453.189C513.048,453.568 512.484,453.776 511.902,453.774L511.853,453.774Z" fill="#262626"/>
<path d="M519.281,475.519C515.512,475.413 511.838,474.301 508.63,472.297C508.345,472.126 508.098,471.898 507.902,471.627C507.707,471.357 507.568,471.049 507.493,470.723C507.418,470.396 507.409,470.058 507.466,469.728C507.523,469.398 507.646,469.083 507.827,468.803C508.008,468.522 508.242,468.281 508.517,468.094C508.792,467.907 509.102,467.779 509.427,467.716C509.753,467.653 510.087,467.657 510.411,467.728C510.735,467.799 511.041,467.936 511.311,468.13C511.397,468.192 516.465,471.414 521.446,470.307C522.809,469.958 524.087,469.331 525.202,468.464C526.316,467.598 527.244,466.51 527.928,465.268C528.277,464.711 528.831,464.316 529.468,464.172C530.105,464.027 530.772,464.144 531.323,464.497C531.875,464.85 532.265,465.41 532.408,466.054C532.551,466.698 532.435,467.373 532.086,467.931C530.824,470.244 528.969,472.17 526.715,473.505C524.462,474.841 521.893,475.536 519.281,475.519L519.281,475.519Z" fill="#262626"/>
<path d="M437.277,859.193L415.752,753.453C412.089,735.472 413.02,716.843 418.458,699.327L466.551,544.437L509.441,544.437L519.281,566.53C540.4,613.964 607.337,612.944 627.042,564.9L635.43,544.437L673.264,544.437L720.656,701.915C726.772,722.213 727.076,743.848 721.53,764.315L695.848,859.193L437.277,859.193Z" fill="#F9B800"/>
<path d="M575.025,390.293L551.261,390.293C543.915,390.293 536.869,387.341 531.675,382.087C526.48,376.833 523.562,369.708 523.562,362.278L523.562,344.265L575.025,344.265L575.025,390.293Z" fill="#262626"/>
<path d="M673.265,544.449L723.781,715.088L818.786,658.399C808.288,638.931 796.627,620.129 783.866,602.096C761.345,570.299 749.672,554.239 729.894,546.116C708.873,537.408 687.754,540.431 673.265,544.449Z" fill="#262626"/>
<path d="M641.039,417.437L598.358,417.437C594.243,417.435 590.168,416.614 586.366,415.019C582.564,413.425 579.11,411.088 576.201,408.144C573.292,405.199 570.985,401.704 569.411,397.858C567.838,394.012 567.029,389.89 567.03,385.727L567.03,371.396L641.052,371.396L641.039,417.437Z" fill="#262626"/>
<path d="M625.959,344.265L552.405,344.265L552.405,390.305L625.959,390.305L625.959,344.265Z" fill="#262626"/>
<path d="M661.261,590.838C693.582,590.838 719.784,564.338 719.784,531.648C719.784,498.959 693.582,472.459 661.261,472.459C628.939,472.459 602.737,498.959 602.737,531.648C602.737,564.338 628.939,590.838 661.261,590.838Z" fill="#262626"/>
<path d="M618.481,632.101C642.413,632.101 661.814,612.48 661.814,588.275C661.814,564.071 642.413,544.449 618.481,544.449C594.549,544.449 575.148,564.071 575.148,588.275C575.148,612.48 594.549,632.101 618.481,632.101Z" fill="#262626"/>
<path d="M696.278,634.589C720.21,634.589 739.611,614.968 739.611,590.763C739.611,566.559 720.21,546.937 696.278,546.937C672.346,546.937 652.945,566.559 652.945,590.763C652.945,614.968 672.346,634.589 696.278,634.589Z" fill="#262626"/>
<path d="M607.964,783.222L531.84,783.222C520.486,783.209 509.601,778.641 501.574,770.52C493.547,762.399 489.033,751.389 489.023,739.906L489.023,687.832C489.023,682.256 491.211,676.908 495.106,672.962C499.001,669.016 504.285,666.794 509.798,666.784L630.006,666.784C635.517,666.791 640.801,669.008 644.697,672.949C648.594,676.89 650.786,682.234 650.793,687.808L650.793,739.881C650.786,751.37 646.273,762.386 638.243,770.512C630.213,778.638 619.324,783.209 607.964,783.222L607.964,783.222ZM509.798,671.76C505.593,671.767 501.562,673.46 498.59,676.468C495.618,679.477 493.947,683.555 493.943,687.808L493.943,739.881C493.953,750.045 497.949,759.789 505.053,766.977C512.158,774.164 521.791,778.208 531.84,778.222L607.964,778.222C618.015,778.212 627.652,774.169 634.759,766.981C641.866,759.793 645.863,750.047 645.873,739.881L645.873,687.832C645.873,683.574 644.202,679.49 641.227,676.476C638.252,673.463 634.216,671.767 630.006,671.76L509.798,671.76Z" fill="#FFFFFF"/>
<path d="M652.945,691.751C676.877,691.751 696.278,672.129 696.278,647.925C696.278,623.721 676.877,604.099 652.945,604.099C629.013,604.099 609.612,623.721 609.612,647.925C609.612,672.129 629.013,691.751 652.945,691.751Z" fill="#262626"/>
<path d="M804.974,766.068C804.528,766.066 804.091,765.942 803.709,765.709C803.328,765.475 803.016,765.142 802.808,764.743C802.599,764.344 802.502,763.896 802.526,763.446C802.55,762.995 802.695,762.56 802.944,762.187L830.558,720.923C830.739,720.652 830.971,720.419 831.24,720.239C831.51,720.058 831.812,719.933 832.13,719.871C832.447,719.809 832.774,719.81 833.091,719.875C833.408,719.941 833.709,720.068 833.977,720.251C834.245,720.434 834.475,720.669 834.654,720.942C834.832,721.214 834.956,721.52 835.017,721.841C835.079,722.162 835.078,722.493 835.013,722.813C834.949,723.134 834.822,723.438 834.641,723.71L807.016,764.973C806.79,765.311 806.486,765.587 806.13,765.778C805.774,765.969 805.377,766.068 804.974,766.068Z" fill="#262626"/>
<path d="M1010.358,600.852C1009.861,600.853 1009.376,600.702 1008.965,600.419C1008.555,600.135 1008.239,599.732 1008.059,599.264C1007.879,598.795 1007.844,598.282 1007.958,597.793C1008.072,597.304 1008.33,596.861 1008.698,596.523C1023.839,582.565 1034.257,548.604 1034.356,548.268C1034.45,547.955 1034.605,547.664 1034.81,547.412C1035.016,547.159 1035.269,546.95 1035.554,546.797C1035.84,546.643 1036.153,546.548 1036.475,546.516C1036.797,546.485 1037.121,546.518 1037.431,546.614C1037.74,546.709 1038.028,546.865 1038.277,547.073C1038.527,547.281 1038.734,547.537 1038.886,547.826C1039.037,548.115 1039.132,548.431 1039.163,548.757C1039.194,549.082 1039.161,549.411 1039.067,549.724C1038.624,551.167 1028.157,585.314 1012.007,600.205C1011.556,600.62 1010.968,600.85 1010.358,600.852Z" fill="#262626"/>
<path d="M995.07,587.392C994.56,587.394 994.061,587.236 993.644,586.939C993.227,586.642 992.911,586.221 992.741,585.734C992.57,585.247 992.554,584.719 992.694,584.223C992.833,583.726 993.122,583.286 993.52,582.963C1007.53,571.469 1023.274,528.401 1023.434,527.979C1023.684,527.398 1024.145,526.936 1024.72,526.687C1025.296,526.438 1025.944,526.42 1026.532,526.638C1027.12,526.855 1027.605,527.291 1027.886,527.857C1028.167,528.423 1028.225,529.076 1028.046,529.683C1027.382,531.511 1011.675,574.467 996.62,586.832C996.182,587.193 995.635,587.391 995.07,587.392Z" fill="#262626"/>
<path d="M360.083,758.84C359.683,758.84 359.289,758.741 358.936,758.553C358.582,758.364 358.279,758.091 358.053,757.758L330.428,716.482C330.231,716.212 330.09,715.905 330.014,715.579C329.937,715.252 329.927,714.914 329.983,714.584C330.039,714.253 330.161,713.938 330.34,713.656C330.52,713.374 330.754,713.132 331.029,712.944C331.303,712.757 331.612,712.627 331.938,712.563C332.263,712.499 332.598,712.502 332.922,712.572C333.246,712.642 333.553,712.778 333.824,712.971C334.095,713.164 334.324,713.41 334.499,713.695L362.125,754.959C362.375,755.333 362.52,755.769 362.543,756.221C362.567,756.672 362.468,757.121 362.258,757.52C362.048,757.919 361.735,758.253 361.352,758.486C360.968,758.718 360.53,758.841 360.083,758.84Z" fill="#262626"/>
<path d="M154.697,593.587C154.087,593.586 153.5,593.355 153.049,592.94C136.911,578.012 126.432,543.902 125.989,542.459C125.876,542.142 125.827,541.805 125.847,541.468C125.867,541.132 125.953,540.803 126.102,540.501C126.251,540.2 126.459,539.932 126.714,539.715C126.968,539.497 127.264,539.334 127.582,539.235C127.901,539.136 128.236,539.104 128.567,539.14C128.899,539.177 129.219,539.281 129.51,539.446C129.8,539.611 130.054,539.835 130.257,540.102C130.459,540.37 130.606,540.677 130.687,541.003C130.798,541.339 141.216,575.3 156.345,589.27C156.709,589.609 156.963,590.051 157.074,590.538C157.185,591.026 157.149,591.535 156.97,592.001C156.791,592.467 156.477,592.868 156.069,593.151C155.662,593.433 155.179,593.586 154.685,593.587L154.697,593.587Z" fill="#262626"/>
<path d="M169.973,580.115C169.409,580.113 168.861,579.916 168.424,579.555C153.356,567.202 137.674,524.234 136.985,522.418C136.873,522.111 136.823,521.784 136.836,521.457C136.849,521.131 136.926,520.809 137.062,520.513C137.198,520.216 137.39,519.949 137.628,519.727C137.866,519.505 138.145,519.333 138.449,519.221C138.752,519.108 139.075,519.057 139.398,519.07C139.721,519.084 140.039,519.161 140.332,519.299C140.626,519.436 140.89,519.631 141.109,519.871C141.328,520.112 141.498,520.394 141.61,520.701C141.77,521.136 157.501,564.241 171.523,575.698C171.916,576.023 172.201,576.462 172.338,576.956C172.474,577.45 172.457,577.975 172.287,578.459C172.117,578.942 171.804,579.361 171.39,579.657C170.975,579.954 170.481,580.114 169.973,580.115L169.973,580.115Z" fill="#262626"/>
<path d="M563.647,1024.46C562.994,1024.46 562.368,1024.387 561.907,1024.258C561.446,1024.128 561.187,1023.952 561.187,1023.769L561.187,990.306C561.187,990.122 561.446,989.946 561.907,989.817C562.368,989.687 562.994,989.614 563.647,989.614C564.299,989.614 564.925,989.687 565.386,989.817C565.847,989.946 566.107,990.122 566.107,990.306L566.107,1023.769C566.107,1023.952 565.847,1024.128 565.386,1024.258C564.925,1024.387 564.299,1024.46 563.647,1024.46Z" fill="#FFFFFF"/>
<path d="M563.648,919.316C562.995,919.316 562.369,919.054 561.908,918.587C561.447,918.121 561.188,917.488 561.188,916.828L561.188,859.194C561.188,858.534 561.447,857.901 561.908,857.434C562.369,856.968 562.995,856.706 563.648,856.706C564.3,856.706 564.926,856.968 565.387,857.434C565.848,857.901 566.108,858.534 566.108,859.194L566.108,916.828C566.108,917.488 565.848,918.121 565.387,918.587C564.926,919.054 564.3,919.316 563.648,919.316Z" fill="#FFFFFF"/>
<path d="M716.844,923.334C716.7,923.346 716.556,923.346 716.413,923.334C686.02,917.935 670.165,900.942 662.232,887.544C657.03,878.979 653.614,869.429 652.195,859.48C652.163,859.153 652.194,858.823 652.288,858.509C652.382,858.194 652.536,857.902 652.741,857.647C652.947,857.393 653.2,857.183 653.486,857.027C653.772,856.872 654.086,856.776 654.409,856.743C654.732,856.71 655.058,856.742 655.369,856.837C655.68,856.932 655.969,857.088 656.22,857.296C656.472,857.504 656.68,857.76 656.834,858.049C656.987,858.338 657.083,858.655 657.115,858.982L657.115,858.982C658.535,868.237 661.754,877.116 666.586,885.106C677.385,903.119 694.445,914.315 717.299,918.383C717.951,918.439 718.555,918.755 718.977,919.261C719.399,919.768 719.605,920.423 719.55,921.082C719.494,921.742 719.182,922.353 718.681,922.78C718.181,923.207 717.533,923.415 716.881,923.359L716.844,923.334Z" fill="#FFFFFF"/>
<path d="M420.832,926.643C417.159,926.631 413.49,926.386 409.848,925.909C409.195,925.825 408.603,925.482 408.2,924.956C407.798,924.43 407.618,923.764 407.702,923.104C407.785,922.444 408.124,921.844 408.644,921.437C409.164,921.03 409.823,920.849 410.475,920.933C428.778,923.309 443.513,919.602 454.275,909.948C474.165,892.097 474.152,859.504 474.152,859.181C474.152,858.521 474.411,857.888 474.873,857.422C475.334,856.955 475.96,856.693 476.612,856.693C477.265,856.693 477.89,856.955 478.352,857.422C478.813,857.888 479.072,858.521 479.072,859.181C479.072,860.599 479.072,894.311 457.56,913.68C447.966,922.301 435.641,926.643 420.832,926.643Z" fill="#FFFFFF"/>
<path d="M345.04,653.511L419.258,696.752L466.552,544.449C466.552,544.449 400.98,525.963 345.04,653.511Z" fill="#262626"/>
<path d="M375.629,500.896L184.98,500.896C175.428,500.886 166.27,497.044 159.516,490.214C152.762,483.382 148.963,474.12 148.953,464.46L148.953,310.204C148.947,305.411 149.874,300.664 151.683,296.233C153.492,291.803 156.146,287.777 159.494,284.385C162.842,280.993 166.819,278.302 171.196,276.465C175.573,274.628 180.265,273.682 185.005,273.68L375.655,273.68C385.207,273.69 394.365,277.532 401.119,284.363C407.873,291.194 411.671,300.456 411.681,310.117L411.681,464.373C411.687,469.166 410.759,473.914 408.951,478.344C407.143,482.774 404.489,486.8 401.141,490.192C397.791,493.584 393.815,496.276 389.439,498.112C385.061,499.948 380.369,500.894 375.629,500.896L375.629,500.896ZM185.005,278.656C176.758,278.666 168.851,281.984 163.019,287.881C157.188,293.779 153.908,301.776 153.898,310.117L153.898,464.373C153.908,472.714 157.188,480.71 163.019,486.608C168.851,492.506 176.758,495.824 185.005,495.834L375.655,495.834C383.903,495.826 391.811,492.51 397.643,486.612C403.475,480.712 406.755,472.715 406.761,464.373L406.761,310.117C406.755,301.771 403.471,293.768 397.635,287.869C391.797,281.97 383.883,278.656 375.629,278.656L185.005,278.656Z" fill="#262626"/>
<path d="M389.91,361.768L325.359,361.768C324.707,361.768 324.081,361.506 323.62,361.039C323.159,360.572 322.899,359.939 322.899,359.28C322.899,358.62 323.159,357.987 323.62,357.52C324.081,357.054 324.707,356.792 325.359,356.792L389.91,356.792C390.562,356.792 391.188,357.054 391.649,357.52C392.111,357.987 392.37,358.62 392.37,359.28C392.37,359.939 392.111,360.572 391.649,361.039C391.188,361.506 390.562,361.768 389.91,361.768Z" fill="#262626"/>
<path d="M389.91,387.469L325.359,387.469C324.707,387.469 324.081,387.207 323.62,386.74C323.159,386.273 322.899,385.641 322.899,384.981C322.899,384.321 323.159,383.688 323.62,383.221C324.081,382.755 324.707,382.493 325.359,382.493L389.91,382.493C390.562,382.493 391.188,382.755 391.649,383.221C392.111,383.688 392.37,384.321 392.37,384.981C392.37,385.641 392.111,386.273 391.649,386.74C391.188,387.207 390.562,387.469 389.91,387.469Z" fill="#262626"/>
<path d="M373.071,413.157L325.359,413.157C324.707,413.157 324.081,412.895 323.62,412.429C323.159,411.962 322.899,411.329 322.899,410.669C322.899,410.009 323.159,409.377 323.62,408.91C324.081,408.443 324.707,408.181 325.359,408.181L373.071,408.181C373.724,408.181 374.349,408.443 374.811,408.91C375.272,409.377 375.531,410.009 375.531,410.669C375.531,411.329 375.272,411.962 374.811,412.429C374.349,412.895 373.724,413.157 373.071,413.157Z" fill="#262626"/>
<path d="M288.447,437.602L204.18,437.602L196.492,410.234L293.662,410.234L288.447,437.602ZM207.845,432.626L284.388,432.626L287.672,415.21L202.95,415.21L207.845,432.626Z" fill="#262626"/>
<path d="M247.156,437.602C246.504,437.602 245.878,437.34 245.417,436.873C244.955,436.407 244.696,435.774 244.696,435.114L244.696,412.722C244.696,412.062 244.955,411.429 245.417,410.963C245.878,410.496 246.504,410.234 247.156,410.234C247.809,410.234 248.434,410.496 248.896,410.963C249.357,411.429 249.616,412.062 249.616,412.722L249.616,435.114C249.616,435.774 249.357,436.407 248.896,436.873C248.434,437.34 247.809,437.602 247.156,437.602Z" fill="#262626"/>
<path d="M283.97,441.943C287.666,441.943 290.662,438.886 290.662,435.114C290.662,431.342 287.666,428.284 283.97,428.284C280.275,428.284 277.279,431.342 277.279,435.114C277.279,438.886 280.275,441.943 283.97,441.943Z" fill="#262626"/>
<path d="M247.107,441.943C250.837,441.943 253.86,438.886 253.86,435.114C253.86,431.342 250.837,428.284 247.107,428.284C243.378,428.284 240.354,431.342 240.354,435.114C240.354,438.886 243.378,441.943 247.107,441.943Z" fill="#262626"/>
<path d="M208.546,441.943C212.235,441.943 215.225,438.886 215.225,435.114C215.225,431.342 212.235,428.284 208.546,428.284C204.857,428.284 201.867,431.342 201.867,435.114C201.867,438.886 204.857,441.943 208.546,441.943Z" fill="#262626"/>
<path d="M186.714,365.811C186.333,365.812 185.957,365.724 185.616,365.554C185.274,365.383 184.977,365.135 184.746,364.828L170.97,346.404C170.333,345.546 169.945,344.525 169.85,343.456C169.754,342.387 169.954,341.313 170.427,340.352C170.901,339.392 171.629,338.583 172.531,338.018C173.433,337.452 174.472,337.151 175.533,337.149L217.612,337.149C219.236,337.15 220.836,337.54 222.282,338.288C223.727,339.037 224.976,340.121 225.926,341.453L244.942,361.544C245.337,362.028 245.537,362.646 245.501,363.273C245.464,363.899 245.195,364.489 244.747,364.924C244.299,365.358 243.705,365.605 243.084,365.615C242.463,365.625 241.862,365.397 241.4,364.977L221.954,344.464C221.464,343.743 220.809,343.153 220.044,342.745C219.279,342.338 218.427,342.125 217.563,342.125L175.484,342.125C175.335,342.122 175.189,342.163 175.062,342.243C174.936,342.322 174.835,342.437 174.771,342.573C174.705,342.705 174.678,342.853 174.691,343C174.704,343.147 174.757,343.288 174.845,343.406L188.67,361.818C188.867,362.078 189.011,362.375 189.094,362.692C189.177,363.008 189.198,363.339 189.154,363.664C189.111,363.988 189.005,364.301 188.841,364.584C188.678,364.868 188.461,365.115 188.202,365.313C187.773,365.639 187.251,365.813 186.714,365.811Z" fill="#262626"/>
<path d="M247.156,415.757L293.084,415.757L304.548,363.733C304.725,362.908 304.717,362.053 304.523,361.232C304.329,360.411 303.954,359.644 303.427,358.989C302.9,358.334 302.234,357.808 301.479,357.449C300.723,357.09 299.897,356.908 299.062,356.916L247.156,356.916L247.156,415.757Z" fill="#FFE18B"/>
<path d="M197.415,415.757L247.156,415.757L247.156,356.916L185.73,356.916C184.817,356.913 183.917,357.131 183.103,357.55C182.29,357.97 181.587,358.579 181.053,359.329C180.519,360.078 180.17,360.945 180.033,361.858C179.897,362.771 179.978,363.704 180.269,364.579L197.415,415.757Z" fill="#FFE18B"/>
<line x1="247.156" y1="363.298" x2="247.156" y2="406.34" fill="#FFFFFF"/>
<path d="M247.156,408.828C246.504,408.828 245.878,408.566 245.417,408.099C244.955,407.633 244.696,407 244.696,406.34L244.696,363.248C244.696,362.588 244.955,361.955 245.417,361.489C245.878,361.022 246.504,360.76 247.156,360.76C247.809,360.76 248.434,361.022 248.896,361.489C249.357,361.955 249.616,362.588 249.616,363.248L249.616,406.29C249.623,406.621 249.564,406.95 249.443,407.258C249.323,407.565 249.142,407.846 248.913,408.082C248.684,408.318 248.411,408.506 248.109,408.634C247.807,408.762 247.484,408.828 247.156,408.828Z" fill="#262626"/>
<path d="M227.821,914.888L148.83,914.888C144.878,914.884 141.088,913.295 138.293,910.468C135.498,907.641 133.926,903.808 133.923,899.81L133.923,819.933C133.929,815.937 135.502,812.108 138.297,809.283C141.092,806.459 144.88,804.871 148.83,804.868L227.796,804.868C231.749,804.871 235.539,806.461 238.334,809.288C241.129,812.115 242.701,815.948 242.704,819.945L242.704,899.823C242.698,903.814 241.128,907.64 238.338,910.464C235.549,913.287 231.767,914.878 227.821,914.888L227.821,914.888ZM148.83,809.844C146.183,809.847 143.644,810.913 141.772,812.806C139.899,814.7 138.846,817.267 138.843,819.945L138.843,899.823C138.846,902.501 139.899,905.068 141.772,906.962C143.644,908.855 146.183,909.921 148.83,909.924L227.796,909.924C230.444,909.921 232.983,908.855 234.855,906.962C236.727,905.068 237.781,902.501 237.784,899.823L237.784,819.933C237.781,817.255 236.727,814.688 234.855,812.794C232.983,810.9 230.444,809.835 227.796,809.832L148.83,809.844Z" fill="#262626"/>
<path d="M170.502,851.157C168.049,851.16 165.65,850.426 163.61,849.049C161.569,847.672 159.978,845.714 159.038,843.422C158.098,841.13 157.851,838.608 158.329,836.174C158.807,833.741 159.989,831.505 161.723,829.751C163.458,827.996 165.668,826.802 168.074,826.318C170.481,825.835 172.975,826.084 175.241,827.035C177.507,827.986 179.443,829.595 180.804,831.659C182.166,833.723 182.891,836.149 182.889,838.63C182.885,841.951 181.579,845.136 179.257,847.484C176.935,849.833 173.786,851.154 170.502,851.157L170.502,851.157ZM170.502,831.067C169.023,831.064 167.576,831.506 166.344,832.335C165.113,833.165 164.152,834.345 163.585,835.727C163.017,837.109 162.867,838.63 163.154,840.098C163.441,841.566 164.152,842.915 165.198,843.974C166.243,845.033 167.576,845.754 169.027,846.047C170.478,846.34 171.982,846.191 173.349,845.619C174.716,845.047 175.885,844.078 176.707,842.833C177.53,841.589 177.969,840.127 177.969,838.63C177.969,836.626 177.182,834.704 175.783,833.286C174.383,831.868 172.484,831.07 170.502,831.067L170.502,831.067Z" fill="#262626"/>
<path d="M206.172,889.659C203.722,889.659 201.328,888.924 199.291,887.548C197.254,886.171 195.666,884.215 194.729,881.926C193.791,879.637 193.546,877.118 194.024,874.688C194.502,872.258 195.682,870.026 197.414,868.274C199.146,866.522 201.353,865.329 203.756,864.846C206.158,864.362 208.649,864.61 210.912,865.559C213.175,866.507 215.11,868.112 216.471,870.172C217.832,872.232 218.558,874.654 218.558,877.132C218.555,880.453 217.249,883.638 214.927,885.986C212.605,888.335 209.456,889.656 206.172,889.659L206.172,889.659ZM206.172,869.581C204.696,869.581 203.252,870.024 202.024,870.854C200.797,871.683 199.84,872.863 199.274,874.242C198.709,875.622 198.561,877.14 198.85,878.605C199.138,880.07 199.849,881.415 200.893,882.471C201.937,883.527 203.267,884.247 204.716,884.538C206.164,884.829 207.665,884.68 209.029,884.108C210.394,883.537 211.56,882.569 212.38,881.327C213.2,880.085 213.638,878.626 213.638,877.132C213.642,876.138 213.451,875.154 213.077,874.235C212.703,873.316 212.154,872.48 211.46,871.777C210.767,871.073 209.943,870.514 209.035,870.133C208.128,869.752 207.155,869.556 206.172,869.556L206.172,869.581Z" fill="#262626"/>
<path d="M164.82,897.036C164.386,897.028 163.961,896.903 163.59,896.675C163.033,896.334 162.633,895.784 162.476,895.146C162.319,894.507 162.419,893.831 162.754,893.267L204.057,823.914C204.395,823.348 204.941,822.941 205.575,822.782C206.21,822.623 206.88,822.726 207.44,823.068C207.999,823.409 208.402,823.961 208.558,824.603C208.715,825.245 208.614,825.923 208.276,826.489L166.973,895.829C166.75,896.204 166.434,896.513 166.056,896.724C165.678,896.936 165.252,897.044 164.82,897.036L164.82,897.036Z" fill="#262626"/>
<path d="M1104.442,937.74L997.432,937.74C990.149,937.734 983.167,934.804 978.018,929.596C972.868,924.388 969.972,917.326 969.966,909.962L969.966,695.782C969.979,688.429 972.871,681.381 978.009,676.18C983.147,670.979 990.113,668.048 997.382,668.028L1104.392,668.028C1111.675,668.035 1118.657,670.963 1123.806,676.171C1128.956,681.38 1131.852,688.441 1131.858,695.807L1131.858,909.962C1131.849,917.316 1128.958,924.37 1123.82,929.576C1118.682,934.78 1111.714,937.716 1104.442,937.74L1104.442,937.74ZM997.382,673.004C991.405,673.011 985.674,675.415 981.447,679.69C977.221,683.965 974.843,689.761 974.837,695.807L974.837,909.962C974.843,916.006 977.221,921.802 981.447,926.078C985.674,930.352 991.405,932.758 997.382,932.764L1104.392,932.764C1110.37,932.758 1116.101,930.352 1120.328,926.078C1124.554,921.802 1126.932,916.006 1126.938,909.962L1126.938,695.782C1126.925,689.749 1124.552,683.967 1120.336,679.699C1116.121,675.431 1110.406,673.024 1104.442,673.004L997.382,673.004Z" fill="#262626"/>
<path d="M1083.593,827.72L1018.231,827.72C1011.94,827.72 1006.841,832.878 1006.841,839.24L1006.841,879.16C1006.841,885.522 1011.94,890.679 1018.231,890.679L1083.593,890.679C1089.883,890.679 1094.983,885.522 1094.983,879.16L1094.983,839.24C1094.983,832.878 1089.883,827.72 1083.593,827.72Z" fill="#FFE18B"/>
<path d="M1092.682,852.787L1009.325,852.787C1008.673,852.787 1008.047,852.525 1007.586,852.058C1007.124,851.592 1006.865,850.959 1006.865,850.299C1006.865,849.639 1007.124,849.006 1007.586,848.54C1008.047,848.073 1008.673,847.811 1009.325,847.811L1092.682,847.811C1093.335,847.811 1093.96,848.073 1094.422,848.54C1094.883,849.006 1095.142,849.639 1095.142,850.299C1095.142,850.959 1094.883,851.592 1094.422,852.058C1093.96,852.525 1093.335,852.787 1092.682,852.787Z" fill="#262626"/>
<path d="M1035.021,882.916L1024.332,882.916C1022.065,882.831 1019.918,881.859 1018.344,880.206C1016.77,878.553 1015.891,876.348 1015.891,874.053C1015.891,871.758 1016.77,869.553 1018.344,867.9C1019.918,866.247 1022.065,865.275 1024.332,865.189L1035.021,865.189C1037.288,865.275 1039.435,866.247 1041.009,867.9C1042.583,869.553 1043.462,871.758 1043.462,874.053C1043.462,876.348 1042.583,878.553 1041.009,880.206C1039.435,881.859 1037.288,882.831 1035.021,882.916L1035.021,882.916ZM1024.332,870.165C1023.35,870.222 1022.427,870.656 1021.752,871.379C1021.076,872.101 1020.7,873.058 1020.7,874.053C1020.7,875.048 1021.076,876.004 1021.752,876.727C1022.427,877.45 1023.35,877.884 1024.332,877.94L1035.021,877.94C1036.003,877.884 1036.926,877.45 1037.601,876.727C1038.277,876.004 1038.653,875.048 1038.653,874.053C1038.653,873.058 1038.277,872.101 1037.601,871.379C1036.926,870.656 1036.003,870.222 1035.021,870.165L1024.332,870.165Z" fill="#262626"/>
<path d="M1087.295,716.059L1014.381,716.059C1008.091,716.059 1002.991,721.216 1002.991,727.578L1002.991,767.498C1002.991,773.86 1008.091,779.018 1014.381,779.018L1087.295,779.018C1093.586,779.018 1098.685,773.86 1098.685,767.498L1098.685,727.578C1098.685,721.216 1093.586,716.059 1087.295,716.059Z" fill="#F9B800"/>
<path d="M1050.838,763.443C1047.719,763.443 1044.67,762.507 1042.077,760.755C1039.484,759.003 1037.463,756.512 1036.27,753.598C1035.076,750.684 1034.764,747.477 1035.372,744.383C1035.981,741.29 1037.483,738.448 1039.688,736.218C1041.893,733.987 1044.703,732.468 1047.762,731.853C1050.82,731.238 1053.991,731.554 1056.872,732.761C1059.754,733.968 1062.216,736.012 1063.949,738.634C1065.682,741.257 1066.607,744.34 1066.607,747.495C1066.603,751.723 1064.941,755.778 1061.984,758.768C1059.028,761.758 1055.019,763.439 1050.838,763.443L1050.838,763.443ZM1050.838,736.523C1048.692,736.523 1046.595,737.166 1044.811,738.372C1043.027,739.577 1041.636,741.291 1040.815,743.296C1039.994,745.301 1039.779,747.507 1040.198,749.635C1040.616,751.764 1041.65,753.719 1043.167,755.253C1044.684,756.788 1046.617,757.833 1048.721,758.256C1050.826,758.679 1053.007,758.462 1054.989,757.632C1056.972,756.801 1058.666,755.395 1059.858,753.59C1061.05,751.786 1061.687,749.665 1061.687,747.495C1061.683,744.586 1060.539,741.797 1058.505,739.74C1056.472,737.683 1053.714,736.526 1050.838,736.523Z" fill="#262626"/>
<path d="M1012.007,763.443L1002.991,763.443L1002.991,758.467L1012.007,758.467C1014.412,758.194 1016.632,757.034 1018.245,755.21C1019.857,753.385 1020.749,751.024 1020.749,748.577C1020.749,746.13 1019.857,743.769 1018.245,741.944C1016.632,740.12 1014.412,738.96 1012.007,738.687L1002.991,738.687L1002.991,733.711L1012.007,733.711C1015.673,734.051 1019.082,735.764 1021.564,738.514C1024.045,741.264 1025.421,744.854 1025.421,748.577C1025.421,752.3 1024.045,755.89 1021.564,758.64C1019.082,761.39 1015.673,763.103 1012.007,763.443L1012.007,763.443Z" fill="#262626"/>
<path d="M1098.832,763.517L1089.78,763.517C1086.1,763.194 1082.674,761.488 1080.178,758.734C1077.682,755.981 1076.297,752.381 1076.297,748.645C1076.297,744.91 1077.682,741.31 1080.178,738.557C1082.674,735.803 1086.1,734.097 1089.78,733.773L1098.796,733.773L1098.796,738.749L1089.78,738.749C1087.364,739.01 1085.129,740.164 1083.505,741.991C1081.881,743.818 1080.982,746.189 1080.982,748.645C1080.982,751.102 1081.881,753.472 1083.505,755.299C1085.129,757.126 1087.364,758.281 1089.78,758.541L1098.796,758.541L1098.832,763.517Z" fill="#262626"/>
<path d="M1115.314,509.803L813.854,509.803C804.43,509.777 795.399,505.981 788.734,499.241C782.069,492.503 778.311,483.371 778.282,473.839L778.282,287.016C778.308,277.482 782.064,268.347 788.73,261.605C795.395,254.864 804.428,251.065 813.854,251.039L1115.314,251.039C1124.74,251.065 1133.774,254.864 1140.438,261.605C1147.104,268.347 1150.86,277.482 1150.886,287.016L1150.886,473.839C1150.856,483.371 1147.1,492.503 1140.434,499.241C1133.77,505.981 1124.738,509.777 1115.314,509.803L1115.314,509.803ZM813.854,256.028C805.732,256.054 797.951,259.328 792.209,265.136C786.466,270.944 783.228,278.814 783.202,287.028L783.202,473.839C783.212,482.057 786.445,489.935 792.191,495.745C797.938,501.555 805.729,504.821 813.854,504.827L1115.314,504.827C1123.44,504.821 1131.23,501.555 1136.976,495.745C1142.724,489.935 1145.956,482.057 1145.966,473.839L1145.966,287.016C1145.94,278.802 1142.702,270.932 1136.96,265.124C1131.216,259.316 1123.436,256.041 1115.314,256.015L813.854,256.028Z" fill="#262626"/>
<path d="M935.169,301.098L840.533,301.098C830.785,301.098 822.883,309.09 822.883,318.949L822.883,431.332C822.883,441.191 830.785,449.184 840.533,449.184L935.169,449.184C944.918,449.184 952.82,441.191 952.82,431.332L952.82,318.949C952.82,309.09 944.918,301.098 935.169,301.098Z" fill="#FFE18B"/>
<path d="M890.311,380.428L885.391,380.428L885.391,449.196L890.311,449.196L890.311,380.428Z" fill="#262626"/>
<path d="M1009.854,304.208L986.952,304.208C983.521,304.208 980.74,307.02 980.74,310.49L980.74,333.653C980.74,337.123 983.521,339.935 986.952,339.935L1009.854,339.935C1013.285,339.935 1016.066,337.123 1016.066,333.653L1016.066,310.49C1016.066,307.02 1013.285,304.208 1009.854,304.208Z" fill="#F9B800"/>
<path d="M1059.399,304.208L1036.497,304.208C1033.066,304.208 1030.285,307.02 1030.285,310.49L1030.285,333.653C1030.285,337.123 1033.066,339.935 1036.497,339.935L1059.399,339.935C1062.83,339.935 1065.611,337.123 1065.611,333.653L1065.611,310.49C1065.611,307.02 1062.83,304.208 1059.399,304.208Z" fill="#F9B800"/>
<path d="M1108.956,304.208L1086.053,304.208C1082.623,304.208 1079.842,307.02 1079.842,310.49L1079.842,333.653C1079.842,337.123 1082.623,339.935 1086.053,339.935L1108.956,339.935C1112.386,339.935 1115.167,337.123 1115.167,333.653L1115.167,310.49C1115.167,307.02 1112.386,304.208 1108.956,304.208Z" fill="#F9B800"/>
<path d="M1115.18,374.966L983.189,374.966C982.536,374.966 981.91,374.704 981.449,374.238C980.988,373.771 980.729,373.138 980.729,372.478C980.729,371.819 980.988,371.186 981.449,370.719C981.91,370.253 982.536,369.99 983.189,369.99L1115.18,369.99C1115.832,369.99 1116.458,370.253 1116.919,370.719C1117.381,371.186 1117.64,371.819 1117.64,372.478C1117.64,373.138 1117.381,373.771 1116.919,374.238C1116.458,374.704 1115.832,374.966 1115.18,374.966Z" fill="#262626"/>
<path d="M1115.18,401.302L983.189,401.302C982.536,401.302 981.91,401.04 981.449,400.573C980.988,400.107 980.729,399.474 980.729,398.814C980.729,398.154 980.988,397.521 981.449,397.055C981.91,396.588 982.536,396.326 983.189,396.326L1115.18,396.326C1115.832,396.326 1116.458,396.588 1116.919,397.055C1117.381,397.521 1117.64,398.154 1117.64,398.814C1117.64,399.474 1117.381,400.107 1116.919,400.573C1116.458,401.04 1115.832,401.302 1115.18,401.302Z" fill="#262626"/>
<path d="M1069.239,427.637L983.139,427.637C982.486,427.637 981.861,427.375 981.399,426.909C980.938,426.442 980.679,425.809 980.679,425.149C980.679,424.49 980.938,423.857 981.399,423.39C981.861,422.924 982.486,422.661 983.139,422.661L1069.239,422.661C1069.891,422.661 1070.517,422.924 1070.978,423.39C1071.44,423.857 1071.699,424.49 1071.699,425.149C1071.699,425.809 1071.44,426.442 1070.978,426.909C1070.517,427.375 1069.891,427.637 1069.239,427.637Z" fill="#262626"/>
<path d="M912.353,380.428L863.055,380.428C862.538,380.428 862.027,380.325 861.55,380.124C861.073,379.924 860.64,379.631 860.276,379.261C859.911,378.891 859.623,378.452 859.426,377.969C859.23,377.486 859.129,376.969 859.131,376.447L859.131,351.231C859.131,350.634 859.365,350.061 859.783,349.639C860.2,349.217 860.767,348.979 861.357,348.979L914.038,348.979C914.331,348.978 914.622,349.035 914.894,349.147C915.165,349.26 915.412,349.425 915.62,349.634C915.828,349.844 915.993,350.092 916.106,350.366C916.219,350.64 916.277,350.934 916.277,351.231L916.277,376.447C916.278,376.969 916.178,377.486 915.982,377.969C915.785,378.452 915.496,378.891 915.132,379.261C914.767,379.631 914.334,379.924 913.857,380.124C913.38,380.325 912.869,380.428 912.353,380.428Z" fill="#FFBB45"/>
<path d="M887.704,358.011C903.484,358.011 916.277,353.967 916.277,348.979C916.277,343.991 903.484,339.948 887.704,339.948C871.923,339.948 859.131,343.991 859.131,348.979C859.131,353.967 871.923,358.011 887.704,358.011Z" fill="#262626"/>
<path d="M691.985,861.682L441.065,861.682C440.413,861.682 439.787,861.419 439.326,860.953C438.865,860.486 438.605,859.853 438.605,859.194C438.605,858.534 438.865,857.901 439.326,857.434C439.787,856.968 440.413,856.706 441.065,856.706L691.985,856.706C692.637,856.706 693.263,856.968 693.725,857.434C694.185,857.901 694.445,858.534 694.445,859.194C694.445,859.853 694.185,860.486 693.725,860.953C693.263,861.419 692.637,861.682 691.985,861.682Z" fill="#FFFFFF"/>
</svg>
