<svg width="1546" height="1546" viewBox="0 0 1546 1546" fill="none" xmlns="http://www.w3.org/2000/svg" xmlns:xlink="http://www.w3.org/1999/xlink">
<path d="M643.831,424.547L151.477,1292.115L1420.867,1292.115L953.821,424.547L643.831,424.547Z" fill="#FFE18B"/>
<path d="M1056.862,806.008C1063.636,792.279 1067.2,777.19 1067.284,761.882C1067.366,746.574 1063.97,731.447 1057.346,717.645C1050.722,703.843 1041.048,691.728 1029.053,682.216C1017.059,672.704 1003.058,666.044 988.111,662.739C981.673,661.33 975.797,658.042 971.228,653.293L971.228,653.216C962.478,644.064 960.978,635.854 948.564,610.979C947.234,608.289 946.121,606.125 945.472,604.888L842.06,644.991L870.089,730.686C864.324,748.781 863.778,768.134 868.514,786.524C873.25,804.916 883.076,821.598 896.863,834.658C910.651,847.716 927.841,856.624 946.462,860.356C965.082,864.088 984.377,862.494 1002.133,855.758C1002.982,864.244 1006.171,872.328 1011.346,879.108C1016.52,885.888 1023.477,891.098 1031.439,894.154C1039.401,897.212 1048.056,897.998 1056.438,896.424C1064.822,894.852 1072.602,890.98 1078.914,885.242C1085.224,879.506 1089.818,872.128 1092.182,863.934C1094.544,855.738 1094.586,847.048 1092.298,838.832C1090.012,830.614 1085.488,823.194 1079.23,817.398C1072.972,811.602 1065.228,807.66 1056.862,806.008L1056.862,806.008Z" fill="#262626"/>
<path d="M752.593,858.185C780.462,858.185 803.054,835.592 803.054,807.723C803.054,779.854 780.462,757.262 752.593,757.262C724.724,757.262 702.131,779.854 702.131,807.723C702.131,835.592 724.724,858.185 752.593,858.185Z" fill="#262626"/>
<path d="M914.893,674.442C914.939,665.567 911.487,657.03 905.287,650.679C899.087,644.328 890.635,640.674 881.761,640.508L879.674,617.781C879.061,610.574 877.032,603.559 873.703,597.137C870.374,590.716 865.81,585.014 860.274,580.359C854.737,575.705 848.337,572.188 841.439,570.012C834.541,567.835 827.281,567.041 820.076,567.676L736.36,575.483C725.4,576.57 715.318,581.959 708.325,590.467C701.332,598.976 697.998,609.91 699.055,620.873L708.331,723.126C709.062,731.712 711.481,740.069 715.448,747.719C719.415,755.369 724.852,762.161 731.448,767.706C738.044,773.252 745.67,777.44 753.888,780.034C762.106,782.626 770.754,783.572 779.339,782.818L783.219,782.446L788.46,839.122L899.045,828.826L892.861,761.699L892.768,761.699L887.852,707.728C895.507,706.151 902.383,701.975 907.311,695.909C912.239,689.842 914.917,682.258 914.893,674.442L914.893,674.442Z" fill="#FFFFFF"/>
<path d="M880.942,690.614C878.346,690.614 875.808,689.844 873.65,688.402C871.491,686.959 869.809,684.909 868.815,682.511C867.822,680.113 867.562,677.474 868.068,674.927C868.575,672.381 869.825,670.043 871.661,668.207C873.496,666.371 875.835,665.121 878.381,664.615C880.927,664.108 883.566,664.368 885.965,665.362C888.363,666.355 890.413,668.037 891.855,670.196C893.297,672.354 894.067,674.892 894.067,677.488C894.063,680.968 892.679,684.304 890.218,686.765C887.758,689.225 884.422,690.61 880.942,690.614ZM880.942,670.516C879.569,670.516 878.227,670.923 877.085,671.686C875.944,672.448 875.054,673.532 874.529,674.801C874.003,676.069 873.866,677.465 874.134,678.811C874.401,680.158 875.063,681.395 876.033,682.366C877.004,683.336 878.241,683.998 879.587,684.265C880.934,684.533 882.33,684.396 883.598,683.87C884.867,683.345 885.951,682.455 886.713,681.314C887.476,680.172 887.883,678.83 887.883,677.457C887.871,675.623 887.135,673.867 885.835,672.573C884.535,671.279 882.776,670.551 880.942,670.547L880.942,670.516Z" fill="#262626"/>
<path d="M782.987,782.539L848.832,774.361C849.255,774.307 849.684,774.407 850.04,774.641C850.397,774.875 850.659,775.229 850.778,775.639C850.897,776.049 850.866,776.488 850.691,776.877C850.515,777.266 850.207,777.58 849.821,777.762L785.368,808.558L782.987,782.539Z" fill="#262626"/>
<path d="M871.264,683.193C870.538,683.207 869.831,682.965 869.266,682.51C868.7,682.055 868.313,681.415 868.172,680.704C867.461,677.196 867.685,673.564 868.819,670.17C869.953,666.776 871.958,663.739 874.634,661.363C877.219,659.182 880.289,657.652 883.587,656.902C886.884,656.151 890.314,656.202 893.588,657.05C894.377,657.27 895.046,657.794 895.449,658.507C895.852,659.22 895.956,660.064 895.737,660.853C895.517,661.642 894.993,662.311 894.28,662.714C893.567,663.117 892.723,663.221 891.934,663.002C889.659,662.43 887.282,662.401 884.994,662.916C882.706,663.432 880.571,664.478 878.762,665.97C876.9,667.625 875.505,669.74 874.718,672.103C873.931,674.467 873.78,676.995 874.278,679.436C874.36,679.835 874.361,680.246 874.283,680.646C874.205,681.045 874.048,681.425 873.823,681.764C873.597,682.103 873.307,682.395 872.969,682.621C872.63,682.848 872.251,683.005 871.851,683.084C871.658,683.135 871.462,683.171 871.264,683.193Z" fill="#262626"/>
<path d="M718.782,684.708C722.393,684.708 725.321,681.78 725.321,678.168C725.321,674.557 722.393,671.629 718.782,671.629C715.17,671.629 712.242,674.557 712.242,678.168C712.242,681.78 715.17,684.708 718.782,684.708Z" fill="#262626"/>
<path d="M788.553,676.622C792.165,676.622 795.092,673.694 795.092,670.083C795.092,666.471 792.165,663.543 788.553,663.543C784.941,663.543 782.013,666.471 782.013,670.083C782.013,673.694 784.941,676.622 788.553,676.622Z" fill="#262626"/>
<path d="M747.12,704.249C746.875,704.25 746.63,704.219 746.393,704.157C741.461,702.966 736.36,701.173 736.004,697.045C735.967,695.479 736.551,693.962 737.627,692.824C737.937,692.422 738.292,691.959 738.679,691.356C740.122,689.041 740.853,686.353 740.781,683.626L740.642,655.117C740.642,654.297 740.968,653.511 741.548,652.931C742.128,652.351 742.914,652.025 743.734,652.025C744.554,652.025 745.341,652.351 745.92,652.931C746.5,653.511 746.826,654.297 746.826,655.117L746.965,683.626C747.007,687.5 745.934,691.305 743.873,694.587C743.378,695.344 742.977,695.901 742.621,696.365C744.262,697.162 745.997,697.749 747.785,698.112C748.529,698.281 749.185,698.72 749.625,699.344C750.066,699.968 750.259,700.734 750.169,701.492C750.079,702.25 749.711,702.949 749.137,703.452C748.562,703.955 747.822,704.228 747.058,704.218L747.12,704.249Z" fill="#262626"/>
<path d="M757.757,731.475C753.578,731.416 749.462,730.445 745.698,728.63C744.968,728.255 744.417,727.605 744.166,726.824C743.915,726.042 743.985,725.193 744.36,724.464C744.736,723.734 745.385,723.183 746.167,722.932C746.948,722.681 747.797,722.751 748.527,723.126C748.62,723.126 755.747,726.744 762.178,724.672C763.933,724.035 765.54,723.047 766.9,721.768C768.261,720.49 769.348,718.948 770.093,717.236C770.261,716.85 770.505,716.502 770.811,716.213C771.117,715.925 771.479,715.702 771.874,715.558C772.27,715.414 772.69,715.352 773.11,715.377C773.53,715.401 773.941,715.511 774.317,715.7C774.693,715.888 775.027,716.152 775.298,716.474C775.569,716.796 775.771,717.169 775.892,717.572C776.013,717.975 776.051,718.399 776.003,718.817C775.955,719.235 775.822,719.638 775.613,720.003C774.514,722.461 772.923,724.667 770.936,726.483C768.949,728.3 766.61,729.688 764.064,730.562C762.023,731.197 759.894,731.504 757.757,731.475L757.757,731.475Z" fill="#262626"/>
<path d="M898.553,801.454L786.19,801.454L786.19,853.167L898.553,853.167L898.553,801.454Z" transform="rotate(-10.54 842.371 827.31)" fill="#F9B800"/>
<path d="M737.952,579.41C747.785,578.637 757.169,586.723 762.688,593.912C771.964,606.032 775.876,620.812 783.018,634.108C797.195,660.39 831.717,663.682 856.871,652.737L951.64,617.38C949.29,609.82 937.138,567.073 893.681,546.387C873.572,536.982 851.144,533.692 829.182,536.926L749.424,541.1C740.14,541.517 731.106,544.243 723.142,549.031C708.717,557.921 692.948,576.859 698.529,616.854C699.801,607.021 704.421,597.926 711.613,591.101C718.805,584.275 728.128,580.136 738.014,579.379L737.952,579.41Z" fill="#262626"/>
<path d="M705.301,844.518C705.301,844.518 669.433,849.542 645.872,921.54C640.044,939.349 633.86,956.974 626.717,974.351L578.374,1084.024L613.576,1235.362L692.5,1184.036L666.14,1115.872C651.33,1080.314 646.97,1040.241 658.148,1003.416L705.301,844.518Z" fill="#FFFFFF"/>
<path d="M1014.516,1137.053L686.038,1175.533C671.304,1139.001 668.475,1135.645 653.757,1099.145C641.715,1069.313 640.151,1036.277 649.32,1005.441L695.283,851.382C696.292,847.961 698.352,844.943 701.171,842.757C703.99,840.571 707.425,839.326 710.99,839.2L1000.772,828.177C1007.838,955.026 1007.528,1010.203 1014.516,1137.053Z" fill="#F9B800"/>
<path d="M659.57,729.016C669.836,734.891 675.85,745.62 681.214,755.731C687.426,767.347 692.864,779.359 697.494,791.691C706.76,816.292 712.713,842.016 715.195,868.187C717.634,893.796 716.405,919.622 711.547,944.884C706.932,968.6 699.06,991.564 688.156,1013.124C677.253,1034.756 663.219,1054.662 646.506,1072.198C644.445,1074.392 642.301,1076.546 640.075,1078.66C635.777,1082.818 642.332,1089.374 646.63,1085.214C664.648,1067.698 679.957,1047.596 692.052,1025.57C704.218,1003.552 713.252,979.944 718.89,955.428C724.745,929.644 726.874,903.155 725.213,876.767C723.512,849.481 718.119,822.552 709.181,796.716C704.666,783.61 699.289,770.818 693.087,758.421C687.506,747.259 681.539,735.308 672.155,726.821C669.759,724.629 667.13,722.706 664.316,721.085C659.122,718.117 654.453,726.125 659.678,729.094L659.57,729.016Z" fill="#FFFFFF"/>
<path d="M892.49,1266.174C891.334,1231.058 898.147,1196.136 912.418,1164.03C926.587,1131.76 947.746,1103.039 974.367,1079.943C988.281,1067.992 1004.235,1056.057 1022.571,1052.424C1030.699,1050.772 1039.128,1051.447 1046.889,1054.372C1050.071,1055.679 1053.112,1057.305 1055.965,1059.226C1058.837,1061.195 1061.505,1063.449 1063.926,1065.951C1074.609,1076.773 1081.767,1091.306 1086.868,1105.529C1093.672,1124.576 1098.154,1144.658 1101.772,1164.524C1109.448,1206.688 1111.398,1249.694 1107.57,1292.378C1107.096,1297.728 1106.528,1303.066 1105.868,1308.396C1105.56,1310.884 1108.218,1313.034 1110.506,1313.034C1111.728,1313.006 1112.892,1312.508 1113.756,1311.644C1114.62,1310.78 1115.118,1309.616 1115.144,1308.396C1120.536,1264.058 1119.788,1219.186 1112.918,1175.053C1109.678,1153.654 1104.92,1132.513 1098.68,1111.79C1093.78,1095.681 1087.008,1079.804 1076.619,1066.446C1066.462,1053.352 1052.378,1043.844 1035.573,1042.39C1015.181,1040.643 995.918,1051.558 980.195,1063.385C950.817,1085.632 926.884,1114.27 910.208,1147.132C893.359,1179.924 884.101,1216.086 883.122,1252.94C883.013,1257.346 883.122,1261.738 883.214,1266.144C883.415,1272.096 892.691,1272.126 892.49,1266.144L892.49,1266.174Z" fill="#FFFFFF"/>
<path d="M722.585,1187.561C718.271,1162.453 718.365,1136.787 722.863,1111.713C726.96,1088.879 734.335,1066.214 746.486,1046.348C751.946,1037.285 758.637,1029.023 766.368,1021.798C770.109,1018.36 774.144,1015.256 778.427,1012.522C782.424,1009.934 786.658,1007.734 791.073,1005.951C799.834,1002.525 809.188,1000.875 818.592,1001.097C827.497,1001.204 836.279,1003.19 844.364,1006.925C852.759,1010.826 859.838,1017.084 864.74,1024.936C870.476,1034.29 872.748,1045.745 869.378,1056.042C867.891,1060.538 865.358,1064.618 861.988,1067.946C858.711,1071.162 854.15,1074.13 849.326,1074.547C847.316,1074.692 845.299,1074.363 843.438,1073.587C841.578,1072.811 839.925,1071.61 838.613,1070.079C835.518,1066.723 833.252,1062.688 831.996,1058.299C825.07,1035.495 834.918,1010.574 846.652,991.187C858.152,972.51 872.932,956.064 890.28,942.643C908.382,928.627 928.564,917.527 950.094,909.744C973.906,901.165 998.702,895.623 1023.9,893.248C1030.084,892.63 1036.268,892.166 1042.452,891.857C1043.672,891.825 1044.834,891.327 1045.698,890.463C1046.56,889.6 1047.058,888.439 1047.09,887.219C1047.09,885.988 1046.602,884.809 1045.732,883.939C1044.862,883.069 1043.682,882.581 1042.452,882.581C1015.384,883.753 988.558,888.192 962.554,895.799C938.2,902.956 915.128,913.913 894.191,928.265C874.545,941.797 857.494,958.754 843.854,978.324C829.708,998.948 817.989,1024.612 820.973,1050.213C822.302,1061.669 826.461,1073.666 836.433,1080.36C847.1,1087.473 860.519,1082.556 868.821,1074.176C872.971,1069.865 876.116,1064.69 878.032,1059.021C879.948,1053.352 880.588,1047.33 879.906,1041.386C878.444,1029.19 872.787,1017.883 863.905,1009.399C848.971,995.037 827.079,989.935 806.904,992.563C784.487,995.485 765.054,1007.853 750.568,1024.936C735.108,1043.225 725.059,1065.596 718.612,1088.539C711.194,1114.965 708.576,1142.507 710.882,1169.859C711.454,1176.645 712.428,1183.433 713.51,1190.157C713.839,1191.343 714.624,1192.349 715.694,1192.953C716.763,1193.559 718.03,1193.717 719.215,1193.389C720.389,1193.043 721.383,1192.255 721.988,1191.191C722.594,1190.127 722.763,1188.871 722.461,1187.683L722.585,1187.561Z" fill="#FFFFFF"/>
<path d="M1185.52,1122.768L1185.69,1122.768L1162.174,1068.038L1112.702,952.784C1105.58,936.211 1098.458,919.628 1091.336,903.034C1081.628,880.447 1073.712,856.005 1053.244,840.607C1026.962,820.864 987.23,816.798 960.144,837.19C937.092,854.536 930.77,886.043 931.186,913.47C931.744,944.56 942.008,974.799 955.52,1002.473C969.434,1030.982 980.876,1060.664 993.66,1089.714L1014.532,1137.114L701.482,1173.724C691.097,1174.928 680.959,1177.728 671.428,1182.026C658.287,1187.972 644.919,1194.362 631.325,1201.196C623.358,1205.194 615.576,1209.224 607.98,1213.286L627.63,1292.132L1074.176,1292.132C1161.974,1292.132 1219.98,1202.092 1185.52,1122.768Z" fill="#FFFFFF"/>
<path d="M1318.027,1055.3L1212.899,1055.3C1207.93,1055.295 1203.167,1053.32 1199.654,1049.807C1196.141,1046.294 1194.165,1041.53 1194.161,1036.562L1194.161,931.341C1194.165,926.373 1196.141,921.609 1199.654,918.096C1203.167,914.583 1207.93,912.608 1212.899,912.604L1318.027,912.604C1322.995,912.608 1327.759,914.583 1331.272,918.096C1334.785,921.609 1336.76,926.373 1336.764,931.341L1336.764,1036.562C1336.76,1041.53 1334.785,1046.294 1331.272,1049.807C1327.759,1053.32 1322.995,1055.295 1318.027,1055.3L1318.027,1055.3ZM1212.899,918.788C1209.57,918.792 1206.38,920.116 1204.027,922.469C1201.673,924.822 1200.349,928.013 1200.345,931.341L1200.345,1036.562C1200.349,1039.89 1201.673,1043.081 1204.027,1045.434C1206.38,1047.788 1209.57,1049.111 1212.899,1049.116L1318.027,1049.116C1321.355,1049.111 1324.546,1047.788 1326.899,1045.434C1329.252,1043.081 1330.576,1039.89 1330.58,1036.562L1330.58,931.341C1330.576,928.013 1329.252,924.822 1326.899,922.469C1324.546,920.116 1321.355,918.792 1318.027,918.788L1212.899,918.788Z" fill="#262626"/>
<path d="M1241.979,972.434C1238.787,972.434 1235.666,971.487 1233.012,969.714C1230.358,967.94 1228.289,965.42 1227.068,962.47C1225.846,959.521 1225.526,956.276 1226.149,953.145C1226.772,950.014 1228.309,947.138 1230.566,944.881C1232.824,942.624 1235.699,941.086 1238.83,940.464C1241.961,939.841 1245.207,940.161 1248.156,941.382C1251.105,942.604 1253.626,944.672 1255.399,947.327C1257.173,949.981 1258.119,953.102 1258.119,956.294C1258.115,960.573 1256.413,964.676 1253.387,967.702C1250.361,970.728 1246.258,972.43 1241.979,972.434L1241.979,972.434ZM1241.979,946.338C1240.01,946.338 1238.085,946.921 1236.448,948.015C1234.81,949.109 1233.534,950.664 1232.781,952.484C1232.027,954.303 1231.83,956.305 1232.214,958.236C1232.598,960.168 1233.547,961.942 1234.939,963.334C1236.331,964.726 1238.105,965.675 1240.037,966.059C1241.968,966.443 1243.97,966.246 1245.789,965.492C1247.608,964.739 1249.163,963.463 1250.257,961.825C1251.351,960.188 1251.935,958.263 1251.935,956.294C1251.919,953.663 1250.863,951.144 1248.998,949.288C1247.133,947.432 1244.61,946.388 1241.979,946.384L1241.979,946.338Z" fill="#262626"/>
<path d="M1288.869,1022.509C1285.674,1022.509 1282.55,1021.56 1279.894,1019.784C1277.238,1018.007 1275.17,1015.481 1273.95,1012.527C1272.731,1009.574 1272.416,1006.324 1273.045,1003.191C1273.674,1000.058 1275.219,997.183 1277.484,994.929C1279.749,992.674 1282.632,991.143 1285.768,990.529C1288.904,989.915 1292.152,990.246 1295.1,991.479C1298.047,992.713 1300.563,994.794 1302.327,997.458C1304.091,1000.122 1305.025,1003.251 1305.01,1006.446C1304.985,1010.712 1303.274,1014.795 1300.25,1017.805C1297.227,1020.814 1293.135,1022.505 1288.869,1022.509L1288.869,1022.509ZM1288.869,996.413C1286.9,996.413 1284.975,996.996 1283.338,998.09C1281.701,999.184 1280.425,1000.739 1279.671,1002.559C1278.917,1004.378 1278.72,1006.38 1279.104,1008.311C1279.489,1010.243 1280.437,1012.017 1281.829,1013.409C1283.222,1014.801 1284.996,1015.75 1286.927,1016.134C1288.858,1016.518 1290.86,1016.321 1292.679,1015.567C1294.499,1014.814 1296.054,1013.538 1297.148,1011.9C1298.242,1010.263 1298.826,1008.338 1298.826,1006.369C1298.821,1003.729 1297.771,1001.199 1295.905,999.333C1294.039,997.467 1291.509,996.417 1288.869,996.413Z" fill="#262626"/>
<path d="M1234.589,1032.094C1234.042,1032.089 1233.508,1031.933 1233.043,1031.646C1232.343,1031.222 1231.839,1030.539 1231.642,1029.745C1231.445,1028.951 1231.571,1028.111 1231.992,1027.41L1286.272,937.294C1286.482,936.945 1286.758,936.642 1287.086,936.401C1287.413,936.159 1287.785,935.985 1288.18,935.887C1288.575,935.79 1288.985,935.771 1289.387,935.832C1289.789,935.893 1290.175,936.032 1290.523,936.242C1290.871,936.452 1291.175,936.729 1291.416,937.056C1291.657,937.384 1291.832,937.756 1291.929,938.15C1292.027,938.545 1292.046,938.955 1291.985,939.357C1291.924,939.759 1291.785,940.146 1291.574,940.494L1237.294,1030.595C1237.015,1031.06 1236.618,1031.444 1236.143,1031.707C1235.668,1031.97 1235.132,1032.104 1234.589,1032.094Z" fill="#262626"/>
<path d="M1485.707,833.943L1151.631,833.943C1144.25,833.943 1137.172,831.011 1131.953,825.793C1126.735,820.575 1123.803,813.497 1123.803,806.115L1123.803,545.151C1123.803,537.77 1126.735,530.692 1131.953,525.473C1137.172,520.254 1144.25,517.323 1151.631,517.323L1485.707,517.323C1493.087,517.323 1500.165,520.254 1505.383,525.473C1510.603,530.692 1513.535,537.77 1513.535,545.151L1513.535,806.147C1513.527,813.521 1510.591,820.591 1505.373,825.805C1500.155,831.017 1493.081,833.943 1485.707,833.943L1485.707,833.943ZM1151.631,523.537C1145.89,523.537 1140.385,525.818 1136.326,529.877C1132.267,533.936 1129.987,539.441 1129.987,545.182L1129.987,806.147C1129.987,811.887 1132.267,817.393 1136.326,821.451C1140.385,825.511 1145.89,827.791 1151.631,827.791L1485.707,827.791C1491.447,827.791 1496.951,825.511 1501.011,821.451C1505.069,817.393 1507.351,811.887 1507.351,806.147L1507.351,545.151C1507.351,539.41 1505.069,533.905 1501.011,529.846C1496.951,525.787 1491.447,523.507 1485.707,523.507L1151.631,523.537Z" fill="#262626"/>
<path d="M1302.969,578.467L1183.617,578.467C1175.899,578.467 1169.642,584.724 1169.642,592.443L1169.642,774.515C1169.642,782.233 1175.899,788.491 1183.617,788.491L1302.969,788.491C1310.687,788.491 1316.945,782.233 1316.945,774.515L1316.945,592.443C1316.945,584.724 1310.687,578.467 1302.969,578.467Z" fill="#F9B800"/>
<path d="M1400.815,584.96L1369.725,584.96C1365.438,584.96 1361.964,588.435 1361.964,592.721L1361.964,623.811C1361.964,628.097 1365.438,631.572 1369.725,631.572L1400.815,631.572C1405.101,631.572 1408.576,628.097 1408.576,623.811L1408.576,592.721C1408.576,588.435 1405.101,584.96 1400.815,584.96Z" fill="#FFF1C9"/>
<path d="M1469.04,584.96L1437.95,584.96C1433.664,584.96 1430.189,588.435 1430.189,592.721L1430.189,623.811C1430.189,628.097 1433.664,631.572 1437.95,631.572L1469.04,631.572C1473.326,631.572 1476.801,628.097 1476.801,623.811L1476.801,592.721C1476.801,588.435 1473.326,584.96 1469.04,584.96Z" fill="#FFF1C9"/>
<path d="M1476.785,669.974L1364.932,669.974C1364.112,669.974 1363.326,669.649 1362.746,669.069C1362.166,668.489 1361.84,667.703 1361.84,666.883C1361.84,666.062 1362.166,665.276 1362.746,664.696C1363.326,664.116 1364.112,663.791 1364.932,663.791L1476.785,663.791C1477.605,663.791 1478.392,664.116 1478.972,664.696C1479.552,665.276 1479.877,666.062 1479.877,666.883C1479.877,667.703 1479.552,668.489 1478.972,669.069C1478.392,669.649 1477.605,669.974 1476.785,669.974Z" fill="#262626"/>
<path d="M1476.785,701.436L1364.932,701.436C1364.112,701.436 1363.326,701.11 1362.746,700.53C1362.166,699.95 1361.84,699.164 1361.84,698.344C1361.84,697.524 1362.166,696.737 1362.746,696.157C1363.326,695.577 1364.112,695.252 1364.932,695.252L1476.785,695.252C1477.605,695.252 1478.392,695.577 1478.972,696.157C1479.552,696.737 1479.877,697.524 1479.877,698.344C1479.877,699.164 1479.552,699.95 1478.972,700.53C1478.392,701.11 1477.605,701.436 1476.785,701.436Z" fill="#262626"/>
<path d="M1443.33,735.046L1364.932,735.046C1364.112,735.046 1363.326,734.72 1362.746,734.14C1362.166,733.56 1361.84,732.774 1361.84,731.954C1361.84,731.134 1362.166,730.347 1362.746,729.767C1363.326,729.188 1364.112,728.862 1364.932,728.862L1443.33,728.862C1444.15,728.862 1444.937,729.188 1445.516,729.767C1446.096,730.347 1446.422,731.134 1446.422,731.954C1446.422,732.774 1446.096,733.56 1445.516,734.14C1444.937,734.72 1444.15,735.046 1443.33,735.046Z" fill="#262626"/>
<path d="M1261.181,639.518L1261.181,647.248C1261.179,651.123 1259.675,654.846 1256.985,657.634C1254.295,660.422 1250.628,662.058 1246.756,662.198C1245.844,662.198 1244.963,662.198 1244.082,662.198C1240.105,662.073 1236.333,660.403 1233.568,657.543C1230.803,654.682 1229.261,650.856 1229.271,646.877L1229.271,639.534C1229.271,637.189 1228.34,634.939 1226.681,633.281C1225.023,631.622 1222.773,630.691 1220.428,630.691L1220.428,630.691C1218.083,630.691 1215.833,631.622 1214.175,633.281C1212.517,634.939 1211.585,637.189 1211.585,639.534L1211.585,719.818C1211.585,721.3 1211.877,722.767 1212.444,724.136C1213.011,725.506 1213.843,726.75 1214.891,727.798C1215.938,728.846 1217.183,729.677 1218.552,730.244C1219.921,730.811 1221.389,731.103 1222.871,731.103L1267.581,731.103C1269.063,731.103 1270.531,730.811 1271.9,730.244C1273.269,729.677 1274.513,728.846 1275.561,727.798C1276.609,726.75 1277.441,725.506 1278.008,724.136C1278.575,722.767 1278.867,721.3 1278.867,719.818L1278.867,639.518C1278.867,637.173 1277.935,634.924 1276.277,633.265C1274.618,631.607 1272.369,630.675 1270.024,630.675L1270.024,630.675C1267.678,630.675 1265.429,631.607 1263.771,633.265C1262.112,634.924 1261.181,637.173 1261.181,639.518Z" fill="#FFFFFF"/>
<path d="M1076.016,1107.756C1076.016,1100.288 1049.549,1094.228 1016.882,1094.228C984.215,1094.228 957.747,1100.288 957.747,1107.756L951.393,1174.481C966.204,1172.069 986.951,1171.914 1005.256,1183.293C1011.781,1187.471 1018.985,1190.48 1026.544,1192.183C1039.268,1194.857 1058.423,1195.491 1081.473,1185.72L1076.016,1107.756Z" fill="#FFFFFF"/>
<path d="M1043.225,1196.975C1037.403,1196.981 1031.596,1196.391 1025.895,1195.213C1017.995,1193.427 1010.463,1190.289 1003.632,1185.937C985.853,1174.929 965.678,1175.3 951.888,1177.542L947.93,1178.191L954.67,1107.601C955.011,1094.599 995.454,1091.151 1016.882,1091.151C1038.309,1091.151 1078.845,1094.568 1079.108,1107.632L1084.705,1187.715L1082.664,1188.565C1070.221,1194.004 1056.805,1196.865 1043.225,1196.975ZM967.162,1170.075C981.135,1169.826 994.899,1173.494 1006.894,1180.665C1013.107,1184.649 1019.965,1187.521 1027.163,1189.152C1038.479,1191.533 1056.397,1192.461 1078.181,1183.71L1072.924,1107.755C1072.924,1105.251 1056.073,1097.32 1016.882,1097.32C977.69,1097.32 960.839,1105.251 960.839,1107.755L960.839,1108.049L954.841,1170.863C958.927,1170.343 963.043,1170.08 967.162,1170.075L967.162,1170.075Z" fill="#262626"/>
<path d="M1085.555,1180.247C1061.02,1190.018 1040.613,1189.384 1027.07,1186.71C1019.088,1185.011 1011.441,1182.008 1004.436,1177.82C984.848,1166.426 962.849,1166.596 947.08,1168.992L940.633,1232.487C939.809,1240.574 940.691,1248.744 943.221,1256.469C945.752,1264.194 949.875,1271.302 955.324,1277.334C960.773,1283.366 967.428,1288.187 974.857,1291.487C982.286,1294.787 990.324,1296.492 998.453,1296.491L1031.584,1296.491C1039.58,1296.492 1047.49,1294.843 1054.82,1291.647C1062.15,1288.451 1068.742,1283.777 1074.183,1277.918C1079.625,1272.059 1083.798,1265.14 1086.444,1257.594C1089.09,1250.048 1090.15,1242.038 1089.559,1234.064L1085.555,1180.247Z" fill="#F9B800"/>
<path d="M1012.182,1256.372L1011.903,1256.372C1011.088,1256.298 1010.335,1255.902 1009.81,1255.274C1009.286,1254.644 1009.032,1253.834 1009.105,1253.018L1028.353,1039.979C1028.629,1036.742 1030.113,1033.728 1032.511,1031.536C1034.909,1029.344 1038.044,1028.136 1041.293,1028.152L1087.085,1028.152C1087.905,1028.152 1088.692,1028.478 1089.272,1029.057C1089.852,1029.637 1090.177,1030.424 1090.177,1031.244C1090.177,1032.064 1089.852,1032.85 1089.272,1033.43C1088.692,1034.01 1087.905,1034.336 1087.085,1034.336L1041.293,1034.336C1039.594,1034.333 1037.955,1034.966 1036.699,1036.11C1035.443,1037.254 1034.66,1038.828 1034.506,1040.52L1015.258,1253.558C1015.189,1254.328 1014.835,1255.042 1014.265,1255.562C1013.696,1256.082 1012.953,1256.372 1012.182,1256.372Z" fill="#262626"/>
<path d="M1016.758,1123.942C1014.98,1123.942 1013.202,1123.942 1011.44,1123.849C992.408,1123.131 973.711,1118.615 956.448,1110.569C956.08,1110.398 955.749,1110.155 955.474,1109.856C955.199,1109.556 954.986,1109.205 954.847,1108.824C954.708,1108.442 954.645,1108.036 954.663,1107.63C954.68,1107.224 954.777,1106.825 954.949,1106.457C955.12,1106.088 955.363,1105.757 955.662,1105.482C955.962,1105.208 956.313,1104.995 956.694,1104.855C957.076,1104.716 957.482,1104.653 957.888,1104.671C958.294,1104.688 958.693,1104.786 959.061,1104.957C975.56,1112.655 993.432,1116.976 1011.625,1117.665C1033.347,1118.446 1054.947,1114.092 1074.671,1104.957C1075.04,1104.783 1075.44,1104.684 1075.847,1104.666C1076.254,1104.647 1076.661,1104.709 1077.045,1104.849C1077.428,1104.988 1077.78,1105.202 1078.08,1105.477C1078.38,1105.753 1078.623,1106.086 1078.794,1106.456C1078.966,1106.826 1079.062,1107.226 1079.078,1107.634C1079.094,1108.041 1079.029,1108.448 1078.887,1108.83C1078.745,1109.212 1078.529,1109.563 1078.252,1109.861C1077.974,1110.16 1077.64,1110.4 1077.268,1110.569C1058.299,1119.34 1037.657,1123.902 1016.758,1123.942L1016.758,1123.942Z" fill="#262626"/>
<path d="M821.312,840.328C820.524,840.33 819.764,840.029 819.189,839.489C818.614,838.949 818.268,838.209 818.22,837.422L816.396,805.976C816.349,805.156 816.63,804.351 817.176,803.738C817.723,803.124 818.49,802.753 819.31,802.706C820.13,802.659 820.936,802.94 821.549,803.486C822.162,804.033 822.533,804.8 822.58,805.62L824.404,837.051C824.43,837.457 824.374,837.864 824.242,838.249C824.109,838.634 823.902,838.988 823.632,839.293C823.362,839.597 823.034,839.846 822.668,840.023C822.302,840.201 821.904,840.305 821.498,840.328L821.312,840.328Z" fill="#262626"/>
<path d="M852.665,838.04C851.876,838.042 851.117,837.742 850.542,837.201C849.967,836.661 849.621,835.921 849.573,835.134L847.749,803.688C847.726,803.282 847.783,802.876 847.916,802.491C848.05,802.107 848.258,801.753 848.529,801.45C848.8,801.146 849.127,800.899 849.494,800.722C849.86,800.545 850.257,800.442 850.663,800.418C851.069,800.395 851.476,800.452 851.86,800.586C852.244,800.72 852.598,800.928 852.902,801.198C853.205,801.469 853.453,801.797 853.63,802.163C853.807,802.529 853.91,802.927 853.933,803.333L855.757,834.84C855.782,835.246 855.727,835.654 855.594,836.038C855.462,836.423 855.255,836.778 854.985,837.083C854.715,837.387 854.387,837.635 854.021,837.813C853.655,837.991 853.257,838.094 852.851,838.118L852.665,838.04Z" fill="#262626"/>
<path d="M532.428,844.256L204.428,844.256C198.687,844.256 193.182,841.974 189.123,837.916C185.064,833.856 182.784,828.352 182.784,822.612L182.784,613.252C182.784,607.512 185.064,602.006 189.123,597.947C193.182,593.888 198.687,591.608 204.428,591.608L532.428,591.608C538.168,591.608 543.672,593.888 547.732,597.947C551.79,602.006 554.072,607.512 554.072,613.252L554.072,822.564C554.078,825.412 553.522,828.23 552.438,830.862C551.352,833.494 549.758,835.884 547.748,837.9C545.738,839.914 543.35,841.512 540.72,842.604C538.092,843.694 535.274,844.256 532.428,844.256L532.428,844.256ZM204.428,597.746C200.327,597.746 196.395,599.374 193.496,602.274C190.597,605.173 188.968,609.105 188.968,613.206L188.968,822.564C188.968,826.666 190.597,830.598 193.496,833.496C196.395,836.396 200.327,838.024 204.428,838.024L532.428,838.024C536.528,838.024 540.46,836.396 543.36,833.496C546.258,830.598 547.888,826.666 547.888,822.564L547.888,613.252C547.888,609.152 546.258,605.219 543.36,602.32C540.46,599.421 536.528,597.792 532.428,597.792L204.428,597.746Z" fill="#262626"/>
<path d="M502.96,749.949L364.037,749.949C357.385,749.949 351.993,755.341 351.993,761.992L351.993,766.367C351.993,773.019 357.385,778.411 364.037,778.411L502.96,778.411C509.611,778.411 515.003,773.019 515.003,766.367L515.003,761.992C515.003,755.341 509.611,749.949 502.96,749.949Z" fill="#FFBB45"/>
<path d="M508.201,677.921L358.796,677.921C357.976,677.921 357.189,677.595 356.609,677.015C356.029,676.436 355.704,675.649 355.704,674.829C355.704,674.009 356.029,673.223 356.609,672.643C357.189,672.063 357.976,671.737 358.796,671.737L508.201,671.737C509.021,671.737 509.808,672.063 510.387,672.643C510.967,673.223 511.293,674.009 511.293,674.829C511.293,675.649 510.967,676.436 510.387,677.015C509.808,677.595 509.021,677.921 508.201,677.921Z" fill="#262626"/>
<path d="M487.16,711.732L358.842,711.732C358.022,711.732 357.235,711.406 356.656,710.826C356.076,710.247 355.75,709.46 355.75,708.64C355.75,707.82 356.076,707.034 356.656,706.454C357.235,705.874 358.022,705.548 358.842,705.548L487.16,705.548C487.98,705.548 488.766,705.874 489.346,706.454C489.926,707.034 490.252,707.82 490.252,708.64C490.252,709.46 489.926,710.247 489.346,710.826C488.766,711.406 487.98,711.732 487.16,711.732Z" fill="#262626"/>
<path d="M252.524,681.26C251.704,681.26 250.917,680.935 250.337,680.355C249.757,679.775 249.432,678.988 249.432,678.168C249.169,667.346 253.204,660.807 256.636,657.251C260.462,653.238 265.705,650.88 271.246,650.68C276.656,650.772 281.811,652.994 285.593,656.864C289.102,660.389 293.323,666.944 293.137,678.137C293.137,678.957 292.811,679.744 292.231,680.324C291.652,680.904 290.865,681.229 290.045,681.229C289.225,681.229 288.439,680.904 287.859,680.324C287.279,679.744 286.953,678.957 286.953,678.137C287.061,669.093 283.861,663.991 281.217,661.301C278.584,658.638 275.035,657.079 271.292,656.942C267.411,657.096 263.744,658.76 261.073,661.58C257.332,665.445 255.446,671.134 255.616,678.045C255.616,678.865 255.29,679.651 254.71,680.231C254.13,680.811 253.344,681.137 252.524,681.137L252.524,681.26Z" fill="#262626"/>
<path d="M309.061,782.276L233.863,782.276C232.021,782.277 230.199,781.884 228.521,781.123C226.842,780.362 225.346,779.251 224.132,777.864C222.919,776.478 222.015,774.848 221.483,773.084C220.951,771.319 220.802,769.462 221.047,767.635L231.529,689.439C231.948,686.338 233.478,683.494 235.835,681.435C238.192,679.377 241.216,678.244 244.345,678.246L296.832,678.246C299.913,678.242 302.893,679.34 305.235,681.342C307.577,683.343 309.126,686.117 309.602,689.16L321.862,767.357C322.153,769.204 322.039,771.091 321.529,772.89C321.019,774.688 320.124,776.354 318.907,777.773C317.69,779.192 316.179,780.329 314.479,781.107C312.779,781.884 310.93,782.283 309.061,782.276Z" fill="#FFF1C9"/>
<path d="M857.89,1295.78L607.98,1295.78L607.98,1241.747L857.89,1241.747C861.344,1241.747 864.654,1243.118 867.096,1245.56C869.536,1248.001 870.908,1251.312 870.908,1254.764L870.908,1282.747C870.91,1284.458 870.576,1286.152 869.922,1287.733C869.268,1289.314 868.31,1290.751 867.1,1291.962C865.892,1293.172 864.456,1294.132 862.876,1294.787C861.296,1295.442 859.602,1295.78 857.89,1295.78L857.89,1295.78Z" fill="#262626"/>
<path d="M636.194,1295.781L343.289,1295.781C337.83,1295.831 332.499,1294.119 328.092,1290.895C323.685,1287.673 320.437,1283.111 318.832,1277.893L247.113,1034.738C242.475,1018.984 254.673,1003.292 271.571,1003.292L547.81,1003.292C553.51,1003.226 559.064,1005.09 563.57,1008.582C568.074,1012.074 571.266,1016.988 572.622,1022.524L636.194,1295.781Z" fill="#262626"/>
<path d="M423.465,1213.177C445.878,1213.177 464.047,1195.008 464.047,1172.595C464.047,1150.182 445.878,1132.012 423.465,1132.012C401.052,1132.012 382.882,1150.182 382.882,1172.595C382.882,1195.008 401.052,1213.177 423.465,1213.177Z" fill="#FFF1C9"/>
<path d="M414.544,1143.746C413.852,1143.745 413.18,1143.511 412.636,1143.082C412.092,1142.653 411.708,1142.054 411.545,1141.381L406.691,1121.499C406.594,1121.104 406.577,1120.694 406.639,1120.293C406.701,1119.891 406.841,1119.505 407.052,1119.158C407.478,1118.456 408.166,1117.953 408.963,1117.758C409.761,1117.563 410.603,1117.693 411.305,1118.12C412.006,1118.546 412.51,1119.233 412.705,1120.031L417.559,1139.912C417.656,1140.307 417.674,1140.717 417.612,1141.119C417.55,1141.521 417.41,1141.907 417.199,1142.254C416.988,1142.602 416.71,1142.904 416.382,1143.144C416.054,1143.384 415.682,1143.557 415.286,1143.654C415.044,1143.714 414.795,1143.745 414.544,1143.746L414.544,1143.746Z" fill="#F9B800"/>
<path d="M1420.867,1295.223L195.291,1295.223C194.471,1295.223 193.684,1294.898 193.104,1294.318C192.524,1293.738 192.199,1292.951 192.199,1292.131C192.199,1291.311 192.524,1290.525 193.104,1289.945C193.684,1289.365 194.471,1289.039 195.291,1289.039L1420.867,1289.039C1421.687,1289.039 1422.473,1289.365 1423.053,1289.945C1423.633,1290.525 1423.959,1291.311 1423.959,1292.131C1423.959,1292.951 1423.633,1293.738 1423.053,1294.318C1422.473,1294.898 1421.687,1295.223 1420.867,1295.223Z" fill="#262626"/>
<path d="M798.818,464.759C788.404,464.774 778.218,461.699 769.551,455.925C760.884,450.15 754.125,441.933 750.129,432.316C746.133,422.698 745.079,412.111 747.102,401.895C749.124,391.678 754.132,382.291 761.491,374.922C768.85,367.552 778.229,362.531 788.443,360.493C798.656,358.456 809.245,359.494 818.868,363.476C828.492,367.458 836.718,374.205 842.505,382.863C848.293,391.522 851.382,401.703 851.382,412.117C851.362,426.059 845.82,439.425 835.969,449.29C826.118,459.156 812.76,464.718 798.818,464.759ZM798.818,365.66C789.645,365.66 780.678,368.38 773.051,373.476C765.424,378.573 759.479,385.816 755.969,394.291C752.458,402.766 751.54,412.091 753.329,421.088C755.119,430.085 759.536,438.349 766.023,444.836C772.509,451.322 780.773,455.739 789.77,457.529C798.767,459.318 808.092,458.4 816.567,454.89C825.042,451.379 832.286,445.434 837.382,437.807C842.478,430.18 845.198,421.213 845.198,412.04C845.166,399.749 840.269,387.971 831.578,379.28C822.887,370.59 811.109,365.693 798.818,365.66L798.818,365.66Z" fill="#FFFFFF"/>
<path d="M800.998,228.885L796.654,228.885C790.028,228.885 784.657,234.256 784.657,240.882L784.657,340.043C784.657,346.668 790.028,352.04 796.654,352.04L800.998,352.04C807.624,352.04 812.995,346.668 812.995,340.043L812.995,240.882C812.995,234.256 807.624,228.885 800.998,228.885Z" fill="#262626"/>
<path d="M796.561,317.688C763.832,318.182 731.842,327.488 703.955,344.628C676.069,361.768 653.318,386.107 638.096,415.085C637.573,416.073 637.315,417.18 637.346,418.297C637.378,419.414 637.697,420.505 638.275,421.462C638.852,422.419 639.667,423.21 640.641,423.759C641.615,424.308 642.714,424.595 643.832,424.593L953.882,424.593C954.998,424.592 956.096,424.303 957.068,423.753C958.04,423.203 958.852,422.412 959.428,421.455C960.004,420.498 960.322,419.409 960.352,418.293C960.384,417.177 960.124,416.072 959.602,415.085C944.016,385.424 920.548,360.638 891.782,343.454C863.016,326.27 830.067,317.354 796.561,317.688L796.561,317.688Z" fill="#FFF1C9"/>
<path d="M703.585,394.926C683.239,394.926 666.651,381.182 666.403,381.012C665.776,380.483 665.384,379.726 665.315,378.909C665.245,378.091 665.503,377.279 666.032,376.652C666.561,376.025 667.318,375.633 668.135,375.564C668.953,375.494 669.765,375.752 670.392,376.281L670.392,376.281C671.752,377.425 703.909,403.923 731.366,376.466L733.237,374.596L735.386,376.142C736.932,377.255 773.139,403.166 799.87,376.451L801.678,374.627L803.812,376.08C809.897,379.984 816.56,382.906 823.554,384.738C838.009,388.386 849.975,385.603 859.112,376.451L861.029,374.534L863.178,376.173C864.616,377.27 898.844,402.857 925.266,376.451C925.854,375.917 926.624,375.629 927.416,375.647C928.21,375.665 928.966,375.988 929.528,376.548C930.09,377.109 930.416,377.864 930.438,378.657C930.458,379.45 930.172,380.222 929.642,380.811C903.452,407 870.322,388.309 861.617,382.589C851.135,391.865 837.453,394.678 821.854,390.69C815.038,388.885 808.507,386.137 802.451,382.527C776.169,406.443 742.699,388.108 733.917,382.527C723.853,391.787 713.294,394.926 703.585,394.926Z" fill="#D3B970"/>
<path d="M615.926,1214.569C615.261,1214.551 614.619,1214.319 614.096,1213.908C613.573,1213.496 613.196,1212.927 613.023,1212.284C612.849,1211.642 612.887,1210.96 613.132,1210.341C613.377,1209.722 613.814,1209.199 614.38,1208.848C624.429,1202.664 634.85,1196.913 645.301,1191.58C659.215,1184.545 673.546,1178.114 688.047,1172.471C688.812,1172.174 689.664,1172.192 690.415,1172.523C691.165,1172.853 691.754,1173.469 692.052,1174.233C692.349,1174.998 692.33,1175.85 692,1176.6C691.669,1177.351 691.054,1177.94 690.289,1178.238C675.973,1183.803 661.781,1190.142 648.099,1197.099C637.756,1202.355 627.491,1208.091 617.55,1214.105C617.064,1214.412 616.501,1214.573 615.926,1214.569Z" fill="#262626"/>
<path d="M216.888,1125.581L234.807,1057.742L133.157,1057.742L149.297,1126.323C130.965,1134.321 115.963,1148.412 106.832,1166.207C97.701,1184.002 95.003,1204.406 99.196,1223.963C103.389,1243.519 114.214,1261.024 129.838,1273.512C145.461,1286 164.922,1292.702 184.921,1292.482C204.921,1292.262 224.229,1285.134 239.575,1272.308C254.92,1259.48 265.359,1241.741 269.121,1222.097C272.884,1202.453 269.739,1182.113 260.219,1164.523C250.7,1146.933 235.391,1133.175 216.888,1125.581L216.888,1125.581Z" fill="#FFFFFF"/>
<path d="M183.974,1295.548C163.58,1295.532 143.799,1288.572 127.886,1275.816C111.973,1263.06 100.877,1245.267 96.423,1225.365C91.97,1205.463 94.424,1184.638 103.382,1166.316C112.34,1147.994 127.268,1133.268 145.71,1124.561L129.246,1054.65L238.811,1054.65L220.568,1123.788C239.331,1132.178 254.648,1146.753 263.96,1165.076C273.272,1183.4 276.016,1204.364 271.733,1224.467C267.45,1244.57 256.4,1262.594 240.427,1275.532C224.455,1288.468 204.528,1295.534 183.974,1295.548L183.974,1295.548ZM137.053,1060.834L152.899,1128.132L150.534,1129.152C132.851,1136.864 118.378,1150.453 109.569,1167.616C100.759,1184.779 98.155,1204.46 102.197,1223.324C106.239,1242.187 116.679,1259.072 131.747,1271.118C146.816,1283.164 165.586,1289.63 184.876,1289.42C204.167,1289.21 222.791,1282.336 237.593,1269.964C252.395,1257.592 262.464,1240.482 266.094,1221.535C269.723,1202.588 266.69,1182.969 257.508,1166.002C248.326,1149.036 233.561,1135.766 215.713,1128.441L213.209,1127.405L230.787,1060.834L137.053,1060.834Z" fill="#262626"/>
<path d="M183.943,1066.168C214.323,1066.168 238.95,1060.949 238.95,1054.511C238.95,1048.073 214.323,1042.854 183.943,1042.854C153.564,1042.854 128.937,1048.073 128.937,1054.511C128.937,1060.949 153.564,1066.168 183.943,1066.168Z" fill="#262626"/>
<path d="M168.978,1063.896C168.347,1063.893 167.732,1063.698 167.215,1063.336C166.698,1062.974 166.304,1062.462 166.087,1061.87C147.318,1010.698 108.529,969.11 108.143,968.755C107.863,968.459 107.645,968.112 107.5,967.732C107.356,967.352 107.287,966.948 107.298,966.541C107.31,966.135 107.401,965.735 107.567,965.364C107.733,964.993 107.971,964.659 108.266,964.379C108.562,964.1 108.909,963.882 109.289,963.737C109.669,963.592 110.073,963.524 110.48,963.535C110.886,963.547 111.286,963.638 111.657,963.804C112.028,963.97 112.362,964.208 112.642,964.503C113.043,964.936 152.683,1007.358 171.884,1059.737C172.15,1060.498 172.108,1061.333 171.767,1062.063C171.427,1062.794 170.814,1063.363 170.06,1063.648C169.716,1063.792 169.35,1063.876 168.978,1063.896L168.978,1063.896Z" fill="#262626"/>
<path d="M193.745,1064.313C192.925,1064.313 192.138,1063.987 191.558,1063.407C190.979,1062.827 190.653,1062.041 190.653,1061.221L190.653,1016.943C190.653,1016.123 190.979,1015.337 191.558,1014.757C192.138,1014.177 192.925,1013.851 193.745,1013.851C194.565,1013.851 195.351,1014.177 195.931,1014.757C196.511,1015.337 196.837,1016.123 196.837,1016.943L196.837,1061.221C196.837,1062.041 196.511,1062.827 195.931,1063.407C195.351,1063.987 194.565,1064.313 193.745,1064.313Z" fill="#262626"/>
<path d="M126.046,937.804L112.858,937.804C112.611,937.123 112.333,936.459 112.039,935.809L121.639,927.306C122.656,926.431 123.489,925.363 124.089,924.163C124.689,922.964 125.045,921.657 125.136,920.318C125.227,918.98 125.051,917.637 124.618,916.367C124.186,915.098 123.505,913.927 122.616,912.922C121.728,911.917 120.648,911.1 119.44,910.516C118.233,909.932 116.921,909.594 115.582,909.521C114.242,909.448 112.902,909.642 111.638,910.092C110.374,910.542 109.213,911.238 108.22,912.14L98.109,921.091C97.955,921.23 97.831,921.401 97.676,921.555C97.043,921.261 96.393,920.999 95.729,920.751L95.729,908.492C95.626,905.872 94.514,903.394 92.624,901.577C90.735,899.761 88.216,898.746 85.595,898.746C82.973,898.746 80.454,899.761 78.565,901.577C76.675,903.394 75.563,905.872 75.46,908.492L75.46,920.751C74.523,921.095 73.605,921.487 72.709,921.926C72.424,921.574 72.114,921.244 71.781,920.937L61.593,912.14C59.542,910.506 56.939,909.729 54.328,909.974C51.717,910.218 49.302,911.463 47.59,913.45C45.878,915.436 45.002,918.007 45.145,920.626C45.289,923.244 46.44,925.705 48.359,927.492L58.594,936.32C58.675,936.39 58.763,936.452 58.856,936.505C58.671,936.938 58.516,937.386 58.346,937.835L45.638,937.835C42.966,937.847 40.407,938.915 38.519,940.806C36.63,942.697 35.566,945.258 35.558,947.93L35.558,947.93C35.558,950.617 36.624,953.194 38.523,955.096C40.422,956.997 42.997,958.068 45.684,958.072L58.269,958.072L58.578,958.907L58.485,958.907L48.359,967.858C46.446,969.666 45.311,972.147 45.194,974.776C45.077,977.406 45.987,979.978 47.731,981.949C49.475,983.92 51.918,985.136 54.542,985.339C57.166,985.543 59.766,984.718 61.794,983.04L71.905,974.088L72.121,973.856C73.227,974.453 74.374,974.97 75.553,975.402L75.553,987.554C75.656,990.173 76.768,992.651 78.657,994.468C80.547,996.285 83.066,997.3 85.687,997.3C88.308,997.3 90.828,996.285 92.717,994.468C94.607,992.651 95.719,990.173 95.821,987.554L95.821,975.526C96.517,975.263 97.213,974.985 97.893,974.66L107.818,983.21C109.862,984.958 112.517,985.824 115.199,985.615C117.881,985.406 120.37,984.141 122.119,982.097C123.868,980.053 124.733,977.398 124.524,974.716C124.315,972.034 123.05,969.545 121.006,967.796L112.193,960.19C112.503,959.494 112.781,958.783 113.044,958.072L126.046,958.072C128.735,958.072 131.315,957.003 133.217,955.101C135.119,953.199 136.187,950.62 136.187,947.93L136.187,947.93C136.183,945.243 135.113,942.667 133.211,940.769C131.31,938.87 128.733,937.804 126.046,937.804L126.046,937.804Z" fill="#FFE18B"/>
<path d="M126.046,937.804L112.858,937.804C112.611,937.123 112.333,936.459 112.039,935.809L121.639,927.306C122.656,926.431 123.489,925.363 124.089,924.163C124.689,922.964 125.045,921.657 125.136,920.318C125.227,918.98 125.051,917.637 124.618,916.367C124.186,915.098 123.505,913.927 122.616,912.922C121.728,911.917 120.648,911.1 119.44,910.516C118.233,909.932 116.921,909.594 115.582,909.521C114.242,909.448 112.902,909.642 111.638,910.092C110.374,910.542 109.213,911.238 108.22,912.14L98.109,921.091C97.955,921.23 97.831,921.401 97.676,921.555C97.043,921.261 96.393,920.999 95.729,920.751L95.729,908.492C95.626,905.872 94.514,903.394 92.624,901.577C90.735,899.761 88.216,898.746 85.595,898.746C82.973,898.746 80.454,899.761 78.565,901.577C76.675,903.394 75.563,905.872 75.46,908.492L75.46,920.751C74.523,921.095 73.605,921.487 72.709,921.926C72.424,921.574 72.114,921.244 71.781,920.937L61.593,912.14C59.542,910.506 56.939,909.729 54.328,909.974C51.717,910.218 49.302,911.463 47.59,913.45C45.878,915.436 45.002,918.007 45.145,920.626C45.289,923.244 46.44,925.705 48.359,927.492L58.594,936.32C58.675,936.39 58.763,936.452 58.856,936.505C58.671,936.938 58.516,937.386 58.346,937.835L45.638,937.835C42.966,937.847 40.407,938.915 38.519,940.806C36.63,942.697 35.566,945.258 35.558,947.93L35.558,947.93C35.558,950.617 36.624,953.194 38.523,955.096C40.422,956.997 42.997,958.068 45.684,958.072L58.269,958.072L58.578,958.907L58.485,958.907L48.359,967.858C46.446,969.666 45.311,972.147 45.194,974.776C45.077,977.406 45.987,979.978 47.731,981.949C49.475,983.92 51.918,985.136 54.542,985.339C57.166,985.543 59.766,984.718 61.794,983.04L71.905,974.088L72.121,973.856C73.227,974.453 74.374,974.97 75.553,975.402L75.553,987.554C75.656,990.173 76.768,992.651 78.657,994.468C80.547,996.285 83.066,997.3 85.687,997.3C88.308,997.3 90.828,996.285 92.717,994.468C94.607,992.651 95.719,990.173 95.821,987.554L95.821,975.526C96.517,975.263 97.213,974.985 97.893,974.66L107.818,983.21C109.862,984.958 112.517,985.824 115.199,985.615C117.881,985.406 120.37,984.141 122.119,982.097C123.868,980.053 124.733,977.398 124.524,974.716C124.315,972.034 123.05,969.545 121.006,967.796L112.193,960.19C112.503,959.494 112.781,958.783 113.044,958.072L126.046,958.072C128.735,958.072 131.315,957.003 133.217,955.101C135.119,953.199 136.187,950.62 136.187,947.93L136.187,947.93C136.183,945.243 135.113,942.667 133.211,940.769C131.31,938.87 128.733,937.804 126.046,937.804L126.046,937.804Z" fill="#FFE18B"/>
<path d="M126.046,937.804L112.858,937.804C112.611,937.123 112.333,936.459 112.039,935.809L121.639,927.306C122.656,926.431 123.489,925.363 124.089,924.163C124.689,922.964 125.045,921.657 125.136,920.318C125.227,918.98 125.051,917.637 124.618,916.367C124.186,915.098 123.505,913.927 122.616,912.922C121.728,911.917 120.648,911.1 119.44,910.516C118.233,909.932 116.921,909.594 115.582,909.521C114.242,909.448 112.902,909.642 111.638,910.092C110.374,910.542 109.213,911.238 108.22,912.14L98.109,921.091C97.955,921.23 97.831,921.401 97.676,921.555C97.043,921.261 96.393,920.999 95.729,920.751L95.729,908.492C95.626,905.872 94.514,903.394 92.624,901.577C90.735,899.761 88.216,898.746 85.595,898.746C82.973,898.746 80.454,899.761 78.565,901.577C76.675,903.394 75.563,905.872 75.46,908.492L75.46,920.751C74.523,921.095 73.605,921.487 72.709,921.926C72.424,921.574 72.114,921.244 71.781,920.937L61.593,912.14C59.542,910.506 56.939,909.729 54.328,909.974C51.717,910.218 49.302,911.463 47.59,913.45C45.878,915.436 45.002,918.007 45.145,920.626C45.289,923.244 46.44,925.705 48.359,927.492L58.594,936.32C58.675,936.39 58.763,936.452 58.856,936.505C58.671,936.938 58.516,937.386 58.346,937.835L45.638,937.835C42.966,937.847 40.407,938.915 38.519,940.806C36.63,942.697 35.566,945.258 35.558,947.93L35.558,947.93C35.558,950.617 36.624,953.194 38.523,955.096C40.422,956.997 42.997,958.068 45.684,958.072L58.269,958.072L58.578,958.907L58.485,958.907L48.359,967.858C46.446,969.666 45.311,972.147 45.194,974.776C45.077,977.406 45.987,979.978 47.731,981.949C49.475,983.92 51.918,985.136 54.542,985.339C57.166,985.543 59.766,984.718 61.794,983.04L71.905,974.088L72.121,973.856C73.227,974.453 74.374,974.97 75.553,975.402L75.553,987.554C75.656,990.173 76.768,992.651 78.657,994.468C80.547,996.285 83.066,997.3 85.687,997.3C88.308,997.3 90.828,996.285 92.717,994.468C94.607,992.651 95.719,990.173 95.821,987.554L95.821,975.526C96.517,975.263 97.213,974.985 97.893,974.66L107.818,983.21C109.862,984.958 112.517,985.824 115.199,985.615C117.881,985.406 120.37,984.141 122.119,982.097C123.868,980.053 124.733,977.398 124.524,974.716C124.315,972.034 123.05,969.545 121.006,967.796L112.193,960.19C112.503,959.494 112.781,958.783 113.044,958.072L126.046,958.072C128.735,958.072 131.315,957.003 133.217,955.101C135.119,953.199 136.187,950.62 136.187,947.93L136.187,947.93C136.183,945.243 135.113,942.667 133.211,940.769C131.31,938.87 128.733,937.804 126.046,937.804L126.046,937.804Z" fill="#FFE18B"/>
<path d="M126.046,937.804L112.858,937.804C112.611,937.123 112.333,936.459 112.039,935.809L121.639,927.306C122.656,926.431 123.489,925.363 124.089,924.163C124.689,922.964 125.045,921.657 125.136,920.318C125.227,918.98 125.051,917.637 124.618,916.367C124.186,915.098 123.505,913.927 122.616,912.922C121.728,911.917 120.648,911.1 119.44,910.516C118.233,909.932 116.921,909.594 115.582,909.521C114.242,909.448 112.902,909.642 111.638,910.092C110.374,910.542 109.213,911.238 108.22,912.14L98.109,921.091C97.955,921.23 97.831,921.401 97.676,921.555C97.043,921.261 96.393,920.999 95.729,920.751L95.729,908.492C95.626,905.872 94.514,903.394 92.624,901.577C90.735,899.761 88.216,898.746 85.595,898.746C82.973,898.746 80.454,899.761 78.565,901.577C76.675,903.394 75.563,905.872 75.46,908.492L75.46,920.751C74.523,921.095 73.605,921.487 72.709,921.926C72.424,921.574 72.114,921.244 71.781,920.937L61.593,912.14C59.542,910.506 56.939,909.729 54.328,909.974C51.717,910.218 49.302,911.463 47.59,913.45C45.878,915.436 45.002,918.007 45.145,920.626C45.289,923.244 46.44,925.705 48.359,927.492L58.594,936.32C58.675,936.39 58.763,936.452 58.856,936.505C58.671,936.938 58.516,937.386 58.346,937.835L45.638,937.835C42.966,937.847 40.407,938.915 38.519,940.806C36.63,942.697 35.566,945.258 35.558,947.93L35.558,947.93C35.558,950.617 36.624,953.194 38.523,955.096C40.422,956.997 42.997,958.068 45.684,958.072L58.269,958.072L58.578,958.907L58.485,958.907L48.359,967.858C46.446,969.666 45.311,972.147 45.194,974.776C45.077,977.406 45.987,979.978 47.731,981.949C49.475,983.92 51.918,985.136 54.542,985.339C57.166,985.543 59.766,984.718 61.794,983.04L71.905,974.088L72.121,973.856C73.227,974.453 74.374,974.97 75.553,975.402L75.553,987.554C75.656,990.173 76.768,992.651 78.657,994.468C80.547,996.285 83.066,997.3 85.687,997.3C88.308,997.3 90.828,996.285 92.717,994.468C94.607,992.651 95.719,990.173 95.821,987.554L95.821,975.526C96.517,975.263 97.213,974.985 97.893,974.66L107.818,983.21C109.862,984.958 112.517,985.824 115.199,985.615C117.881,985.406 120.37,984.141 122.119,982.097C123.868,980.053 124.733,977.398 124.524,974.716C124.315,972.034 123.05,969.545 121.006,967.796L112.193,960.19C112.503,959.494 112.781,958.783 113.044,958.072L126.046,958.072C128.735,958.072 131.315,957.003 133.217,955.101C135.119,953.199 136.187,950.62 136.187,947.93L136.187,947.93C136.183,945.243 135.113,942.667 133.211,940.769C131.31,938.87 128.733,937.804 126.046,937.804L126.046,937.804Z" fill="#FFE18B"/>
<path d="M126.046,937.804L112.858,937.804C112.611,937.123 112.333,936.459 112.039,935.809L121.639,927.306C122.656,926.431 123.489,925.363 124.089,924.163C124.689,922.964 125.045,921.657 125.136,920.318C125.227,918.98 125.051,917.637 124.618,916.367C124.186,915.098 123.505,913.927 122.616,912.922C121.728,911.917 120.648,911.1 119.44,910.516C118.233,909.932 116.921,909.594 115.582,909.521C114.242,909.448 112.902,909.642 111.638,910.092C110.374,910.542 109.213,911.238 108.22,912.14L98.109,921.091C97.955,921.23 97.831,921.401 97.676,921.555C97.043,921.261 96.393,920.999 95.729,920.751L95.729,908.492C95.626,905.872 94.514,903.394 92.624,901.577C90.735,899.761 88.216,898.746 85.595,898.746C82.973,898.746 80.454,899.761 78.565,901.577C76.675,903.394 75.563,905.872 75.46,908.492L75.46,920.751C74.523,921.095 73.605,921.487 72.709,921.926C72.424,921.574 72.114,921.244 71.781,920.937L61.593,912.14C59.542,910.506 56.939,909.729 54.328,909.974C51.717,910.218 49.302,911.463 47.59,913.45C45.878,915.436 45.002,918.007 45.145,920.626C45.289,923.244 46.44,925.705 48.359,927.492L58.594,936.32C58.675,936.39 58.763,936.452 58.856,936.505C58.671,936.938 58.516,937.386 58.346,937.835L45.638,937.835C42.966,937.847 40.407,938.915 38.519,940.806C36.63,942.697 35.566,945.258 35.558,947.93L35.558,947.93C35.558,950.617 36.624,953.194 38.523,955.096C40.422,956.997 42.997,958.068 45.684,958.072L58.269,958.072L58.578,958.907L58.485,958.907L48.359,967.858C46.446,969.666 45.311,972.147 45.194,974.776C45.077,977.406 45.987,979.978 47.731,981.949C49.475,983.92 51.918,985.136 54.542,985.339C57.166,985.543 59.766,984.718 61.794,983.04L71.905,974.088L72.121,973.856C73.227,974.453 74.374,974.97 75.553,975.402L75.553,987.554C75.656,990.173 76.768,992.651 78.657,994.468C80.547,996.285 83.066,997.3 85.687,997.3C88.308,997.3 90.828,996.285 92.717,994.468C94.607,992.651 95.719,990.173 95.821,987.554L95.821,975.526C96.517,975.263 97.213,974.985 97.893,974.66L107.818,983.21C109.862,984.958 112.517,985.824 115.199,985.615C117.881,985.406 120.37,984.141 122.119,982.097C123.868,980.053 124.733,977.398 124.524,974.716C124.315,972.034 123.05,969.545 121.006,967.796L112.193,960.19C112.503,959.494 112.781,958.783 113.044,958.072L126.046,958.072C128.735,958.072 131.315,957.003 133.217,955.101C135.119,953.199 136.187,950.62 136.187,947.93L136.187,947.93C136.183,945.243 135.113,942.667 133.211,940.769C131.31,938.87 128.733,937.804 126.046,937.804L126.046,937.804Z" fill="#FFE18B"/>
<path d="M126.046,937.804L112.858,937.804C112.611,937.123 112.333,936.459 112.039,935.809L121.639,927.306C122.656,926.431 123.489,925.363 124.089,924.163C124.689,922.964 125.045,921.657 125.136,920.318C125.227,918.98 125.051,917.637 124.618,916.367C124.186,915.098 123.505,913.927 122.616,912.922C121.728,911.917 120.648,911.1 119.44,910.516C118.233,909.932 116.921,909.594 115.582,909.521C114.242,909.448 112.902,909.642 111.638,910.092C110.374,910.542 109.213,911.238 108.22,912.14L98.109,921.091C97.955,921.23 97.831,921.401 97.676,921.555C97.043,921.261 96.393,920.999 95.729,920.751L95.729,908.492C95.626,905.872 94.514,903.394 92.624,901.577C90.735,899.761 88.216,898.746 85.595,898.746C82.973,898.746 80.454,899.761 78.565,901.577C76.675,903.394 75.563,905.872 75.46,908.492L75.46,920.751C74.523,921.095 73.605,921.487 72.709,921.926C72.424,921.574 72.114,921.244 71.781,920.937L61.593,912.14C59.542,910.506 56.939,909.729 54.328,909.974C51.717,910.218 49.302,911.463 47.59,913.45C45.878,915.436 45.002,918.007 45.145,920.626C45.289,923.244 46.44,925.705 48.359,927.492L58.594,936.32C58.675,936.39 58.763,936.452 58.856,936.505C58.671,936.938 58.516,937.386 58.346,937.835L45.638,937.835C42.966,937.847 40.407,938.915 38.519,940.806C36.63,942.697 35.566,945.258 35.558,947.93L35.558,947.93C35.558,950.617 36.624,953.194 38.523,955.096C40.422,956.997 42.997,958.068 45.684,958.072L58.269,958.072L58.578,958.907L58.485,958.907L48.359,967.858C46.446,969.666 45.311,972.147 45.194,974.776C45.077,977.406 45.987,979.978 47.731,981.949C49.475,983.92 51.918,985.136 54.542,985.339C57.166,985.543 59.766,984.718 61.794,983.04L71.905,974.088L72.121,973.856C73.227,974.453 74.374,974.97 75.553,975.402L75.553,987.554C75.656,990.173 76.768,992.651 78.657,994.468C80.547,996.285 83.066,997.3 85.687,997.3C88.308,997.3 90.828,996.285 92.717,994.468C94.607,992.651 95.719,990.173 95.821,987.554L95.821,975.526C96.517,975.263 97.213,974.985 97.893,974.66L107.818,983.21C109.862,984.958 112.517,985.824 115.199,985.615C117.881,985.406 120.37,984.141 122.119,982.097C123.868,980.053 124.733,977.398 124.524,974.716C124.315,972.034 123.05,969.545 121.006,967.796L112.193,960.19C112.503,959.494 112.781,958.783 113.044,958.072L126.046,958.072C128.735,958.072 131.315,957.003 133.217,955.101C135.119,953.199 136.187,950.62 136.187,947.93L136.187,947.93C136.183,945.243 135.113,942.667 133.211,940.769C131.31,938.87 128.733,937.804 126.046,937.804L126.046,937.804Z" fill="#FFE18B"/>
<path d="M126.046,937.804L112.858,937.804C112.611,937.123 112.333,936.459 112.039,935.809L121.639,927.306C122.656,926.431 123.489,925.363 124.089,924.163C124.689,922.964 125.045,921.657 125.136,920.318C125.227,918.98 125.051,917.637 124.618,916.367C124.186,915.098 123.505,913.927 122.616,912.922C121.728,911.917 120.648,911.1 119.44,910.516C118.233,909.932 116.921,909.594 115.582,909.521C114.242,909.448 112.902,909.642 111.638,910.092C110.374,910.542 109.213,911.238 108.22,912.14L98.109,921.091C97.955,921.23 97.831,921.401 97.676,921.555C97.043,921.261 96.393,920.999 95.729,920.751L95.729,908.492C95.626,905.872 94.514,903.394 92.624,901.577C90.735,899.761 88.216,898.746 85.595,898.746C82.973,898.746 80.454,899.761 78.565,901.577C76.675,903.394 75.563,905.872 75.46,908.492L75.46,920.751C74.523,921.095 73.605,921.487 72.709,921.926C72.424,921.574 72.114,921.244 71.781,920.937L61.593,912.14C59.542,910.506 56.939,909.729 54.328,909.974C51.717,910.218 49.302,911.463 47.59,913.45C45.878,915.436 45.002,918.007 45.145,920.626C45.289,923.244 46.44,925.705 48.359,927.492L58.594,936.32C58.675,936.39 58.763,936.452 58.856,936.505C58.671,936.938 58.516,937.386 58.346,937.835L45.638,937.835C42.966,937.847 40.407,938.915 38.519,940.806C36.63,942.697 35.566,945.258 35.558,947.93L35.558,947.93C35.558,950.617 36.624,953.194 38.523,955.096C40.422,956.997 42.997,958.068 45.684,958.072L58.269,958.072L58.578,958.907L58.485,958.907L48.359,967.858C46.446,969.666 45.311,972.147 45.194,974.776C45.077,977.406 45.987,979.978 47.731,981.949C49.475,983.92 51.918,985.136 54.542,985.339C57.166,985.543 59.766,984.718 61.794,983.04L71.905,974.088L72.121,973.856C73.227,974.453 74.374,974.97 75.553,975.402L75.553,987.554C75.656,990.173 76.768,992.651 78.657,994.468C80.547,996.285 83.066,997.3 85.687,997.3C88.308,997.3 90.828,996.285 92.717,994.468C94.607,992.651 95.719,990.173 95.821,987.554L95.821,975.526C96.517,975.263 97.213,974.985 97.893,974.66L107.818,983.21C109.862,984.958 112.517,985.824 115.199,985.615C117.881,985.406 120.37,984.141 122.119,982.097C123.868,980.053 124.733,977.398 124.524,974.716C124.315,972.034 123.05,969.545 121.006,967.796L112.193,960.19C112.503,959.494 112.781,958.783 113.044,958.072L126.046,958.072C128.735,958.072 131.315,957.003 133.217,955.101C135.119,953.199 136.187,950.62 136.187,947.93L136.187,947.93C136.183,945.243 135.113,942.667 133.211,940.769C131.31,938.87 128.733,937.804 126.046,937.804L126.046,937.804Z" fill="#FFE18B"/>
<path d="M233.956,975.139L220.831,975.139C220.583,974.459 220.305,973.81 219.996,973.16L229.612,964.657C231.525,962.849 232.659,960.368 232.777,957.739C232.894,955.11 231.984,952.538 230.24,950.566C228.496,948.595 226.053,947.38 223.429,947.176C220.805,946.973 218.205,947.797 216.177,949.476L206.066,958.427C205.914,958.574 205.77,958.729 205.633,958.891C205,958.597 204.335,958.334 203.67,958.087L203.67,945.827C203.568,943.208 202.455,940.73 200.566,938.913C198.677,937.096 196.157,936.081 193.536,936.081C190.915,936.081 188.395,937.096 186.506,938.913C184.617,940.73 183.504,943.208 183.402,945.827L183.402,958.087C182.474,958.427 181.562,958.829 180.666,959.262C180.377,958.913 180.067,958.583 179.738,958.272L169.503,949.445C168.505,948.515 167.329,947.795 166.046,947.33C164.763,946.865 163.399,946.664 162.036,946.739C160.673,946.813 159.34,947.162 158.115,947.764C156.89,948.367 155.8,949.21 154.909,950.244C154.018,951.277 153.344,952.48 152.929,953.78C152.514,955.08 152.366,956.451 152.493,957.81C152.62,959.168 153.02,960.488 153.669,961.688C154.318,962.889 155.202,963.946 156.27,964.796L166.489,973.624C166.578,973.691 166.671,973.753 166.767,973.81C166.581,974.243 166.411,974.691 166.257,975.139L153.549,975.139C150.863,975.139 148.287,976.206 146.388,978.105C144.489,980.004 143.422,982.58 143.422,985.266C143.422,987.953 144.489,990.53 146.387,992.431C148.286,994.333 150.862,995.403 153.549,995.407L166.133,995.407C166.226,995.686 166.334,995.979 166.442,996.258C166.442,996.258 166.442,996.258 166.35,996.258L156.223,1005.209C155.176,1006.076 154.313,1007.145 153.688,1008.353C153.062,1009.56 152.685,1010.881 152.58,1012.236C152.474,1013.592 152.643,1014.955 153.075,1016.245C153.508,1017.534 154.195,1018.723 155.096,1019.742C155.997,1020.76 157.094,1021.587 158.321,1022.173C159.548,1022.759 160.881,1023.092 162.239,1023.152C163.598,1023.213 164.955,1023 166.229,1022.525C167.504,1022.051 168.67,1021.325 169.658,1020.391L179.769,1011.439L179.985,1011.223C181.09,1011.811 182.231,1012.327 183.402,1012.769L183.402,1024.998C183.504,1027.617 184.617,1030.095 186.506,1031.912C188.395,1033.729 190.915,1034.744 193.536,1034.744C196.157,1034.744 198.677,1033.729 200.566,1031.912C202.455,1030.095 203.568,1027.617 203.67,1024.998L203.67,1012.784C204.381,1012.522 205.077,1012.243 205.757,1011.919L215.667,1020.468C216.674,1021.338 217.842,1022.001 219.106,1022.419C220.369,1022.838 221.702,1023.003 223.03,1022.906C224.357,1022.809 225.652,1022.452 226.841,1021.855C228.03,1021.257 229.09,1020.431 229.96,1019.424C230.83,1018.417 231.493,1017.249 231.911,1015.986C232.33,1014.722 232.495,1013.389 232.398,1012.062C232.301,1010.735 231.944,1009.44 231.346,1008.251C230.749,1007.061 229.923,1006.002 228.916,1005.132L220.089,997.525C220.413,996.83 220.691,996.118 220.954,995.407L233.956,995.407C236.643,995.403 239.219,994.333 241.117,992.431C243.016,990.53 244.082,987.953 244.082,985.266C244.082,983.936 243.821,982.619 243.312,981.39C242.803,980.162 242.057,979.045 241.117,978.105C240.176,977.165 239.06,976.419 237.831,975.91C236.603,975.401 235.286,975.139 233.956,975.139L233.956,975.139Z" fill="#FFE18B"/>
<path d="M233.956,975.139L220.831,975.139C220.583,974.459 220.305,973.81 219.996,973.16L229.612,964.657C231.525,962.849 232.659,960.368 232.777,957.739C232.894,955.11 231.984,952.538 230.24,950.566C228.496,948.595 226.053,947.38 223.429,947.176C220.805,946.973 218.205,947.797 216.177,949.476L206.066,958.427C205.914,958.574 205.77,958.729 205.633,958.891C205,958.597 204.335,958.334 203.67,958.087L203.67,945.827C203.568,943.208 202.455,940.73 200.566,938.913C198.677,937.096 196.157,936.081 193.536,936.081C190.915,936.081 188.395,937.096 186.506,938.913C184.617,940.73 183.504,943.208 183.402,945.827L183.402,958.087C182.474,958.427 181.562,958.829 180.666,959.262C180.377,958.913 180.067,958.583 179.738,958.272L169.503,949.445C168.505,948.515 167.329,947.795 166.046,947.33C164.763,946.865 163.399,946.664 162.036,946.739C160.673,946.813 159.34,947.162 158.115,947.764C156.89,948.367 155.8,949.21 154.909,950.244C154.018,951.277 153.344,952.48 152.929,953.78C152.514,955.08 152.366,956.451 152.493,957.81C152.62,959.168 153.02,960.488 153.669,961.688C154.318,962.889 155.202,963.946 156.27,964.796L166.489,973.624C166.578,973.691 166.671,973.753 166.767,973.81C166.581,974.243 166.411,974.691 166.257,975.139L153.549,975.139C150.863,975.139 148.287,976.206 146.388,978.105C144.489,980.004 143.422,982.58 143.422,985.266C143.422,987.953 144.489,990.53 146.387,992.431C148.286,994.333 150.862,995.403 153.549,995.407L166.133,995.407C166.226,995.686 166.334,995.979 166.442,996.258C166.442,996.258 166.442,996.258 166.35,996.258L156.223,1005.209C155.176,1006.076 154.313,1007.145 153.688,1008.353C153.062,1009.56 152.685,1010.881 152.58,1012.236C152.474,1013.592 152.643,1014.955 153.075,1016.245C153.508,1017.534 154.195,1018.723 155.096,1019.742C155.997,1020.76 157.094,1021.587 158.321,1022.173C159.548,1022.759 160.881,1023.092 162.239,1023.152C163.598,1023.213 164.955,1023 166.229,1022.525C167.504,1022.051 168.67,1021.325 169.658,1020.391L179.769,1011.439L179.985,1011.223C181.09,1011.811 182.231,1012.327 183.402,1012.769L183.402,1024.998C183.504,1027.617 184.617,1030.095 186.506,1031.912C188.395,1033.729 190.915,1034.744 193.536,1034.744C196.157,1034.744 198.677,1033.729 200.566,1031.912C202.455,1030.095 203.568,1027.617 203.67,1024.998L203.67,1012.784C204.381,1012.522 205.077,1012.243 205.757,1011.919L215.667,1020.468C216.674,1021.338 217.842,1022.001 219.106,1022.419C220.369,1022.838 221.702,1023.003 223.03,1022.906C224.357,1022.809 225.652,1022.452 226.841,1021.855C228.03,1021.257 229.09,1020.431 229.96,1019.424C230.83,1018.417 231.493,1017.249 231.911,1015.986C232.33,1014.722 232.495,1013.389 232.398,1012.062C232.301,1010.735 231.944,1009.44 231.346,1008.251C230.749,1007.061 229.923,1006.002 228.916,1005.132L220.089,997.525C220.413,996.83 220.691,996.118 220.954,995.407L233.956,995.407C236.643,995.403 239.219,994.333 241.117,992.431C243.016,990.53 244.082,987.953 244.082,985.266C244.082,983.936 243.821,982.619 243.312,981.39C242.803,980.162 242.057,979.045 241.117,978.105C240.176,977.165 239.06,976.419 237.831,975.91C236.603,975.401 235.286,975.139 233.956,975.139L233.956,975.139Z" fill="#FFE18B"/>
<path d="M233.956,975.139L220.831,975.139C220.583,974.459 220.305,973.81 219.996,973.16L229.612,964.657C231.525,962.849 232.659,960.368 232.777,957.739C232.894,955.11 231.984,952.538 230.24,950.566C228.496,948.595 226.053,947.38 223.429,947.176C220.805,946.973 218.205,947.797 216.177,949.476L206.066,958.427C205.914,958.574 205.77,958.729 205.633,958.891C205,958.597 204.335,958.334 203.67,958.087L203.67,945.827C203.568,943.208 202.455,940.73 200.566,938.913C198.677,937.096 196.157,936.081 193.536,936.081C190.915,936.081 188.395,937.096 186.506,938.913C184.617,940.73 183.504,943.208 183.402,945.827L183.402,958.087C182.474,958.427 181.562,958.829 180.666,959.262C180.377,958.913 180.067,958.583 179.738,958.272L169.503,949.445C168.505,948.515 167.329,947.795 166.046,947.33C164.763,946.865 163.399,946.664 162.036,946.739C160.673,946.813 159.34,947.162 158.115,947.764C156.89,948.367 155.8,949.21 154.909,950.244C154.018,951.277 153.344,952.48 152.929,953.78C152.514,955.08 152.366,956.451 152.493,957.81C152.62,959.168 153.02,960.488 153.669,961.688C154.318,962.889 155.202,963.946 156.27,964.796L166.489,973.624C166.578,973.691 166.671,973.753 166.767,973.81C166.581,974.243 166.411,974.691 166.257,975.139L153.549,975.139C150.863,975.139 148.287,976.206 146.388,978.105C144.489,980.004 143.422,982.58 143.422,985.266C143.422,987.953 144.489,990.53 146.387,992.431C148.286,994.333 150.862,995.403 153.549,995.407L166.133,995.407C166.226,995.686 166.334,995.979 166.442,996.258C166.442,996.258 166.442,996.258 166.35,996.258L156.223,1005.209C155.176,1006.076 154.313,1007.145 153.688,1008.353C153.062,1009.56 152.685,1010.881 152.58,1012.236C152.474,1013.592 152.643,1014.955 153.075,1016.245C153.508,1017.534 154.195,1018.723 155.096,1019.742C155.997,1020.76 157.094,1021.587 158.321,1022.173C159.548,1022.759 160.881,1023.092 162.239,1023.152C163.598,1023.213 164.955,1023 166.229,1022.525C167.504,1022.051 168.67,1021.325 169.658,1020.391L179.769,1011.439L179.985,1011.223C181.09,1011.811 182.231,1012.327 183.402,1012.769L183.402,1024.998C183.504,1027.617 184.617,1030.095 186.506,1031.912C188.395,1033.729 190.915,1034.744 193.536,1034.744C196.157,1034.744 198.677,1033.729 200.566,1031.912C202.455,1030.095 203.568,1027.617 203.67,1024.998L203.67,1012.784C204.381,1012.522 205.077,1012.243 205.757,1011.919L215.667,1020.468C216.674,1021.338 217.842,1022.001 219.106,1022.419C220.369,1022.838 221.702,1023.003 223.03,1022.906C224.357,1022.809 225.652,1022.452 226.841,1021.855C228.03,1021.257 229.09,1020.431 229.96,1019.424C230.83,1018.417 231.493,1017.249 231.911,1015.986C232.33,1014.722 232.495,1013.389 232.398,1012.062C232.301,1010.735 231.944,1009.44 231.346,1008.251C230.749,1007.061 229.923,1006.002 228.916,1005.132L220.089,997.525C220.413,996.83 220.691,996.118 220.954,995.407L233.956,995.407C236.643,995.403 239.219,994.333 241.117,992.431C243.016,990.53 244.082,987.953 244.082,985.266C244.082,983.936 243.821,982.619 243.312,981.39C242.803,980.162 242.057,979.045 241.117,978.105C240.176,977.165 239.06,976.419 237.831,975.91C236.603,975.401 235.286,975.139 233.956,975.139L233.956,975.139Z" fill="#FFE18B"/>
<path d="M233.956,975.139L220.831,975.139C220.583,974.459 220.305,973.81 219.996,973.16L229.612,964.657C231.525,962.849 232.659,960.368 232.777,957.739C232.894,955.11 231.984,952.538 230.24,950.566C228.496,948.595 226.053,947.38 223.429,947.176C220.805,946.973 218.205,947.797 216.177,949.476L206.066,958.427C205.914,958.574 205.77,958.729 205.633,958.891C205,958.597 204.335,958.334 203.67,958.087L203.67,945.827C203.568,943.208 202.455,940.73 200.566,938.913C198.677,937.096 196.157,936.081 193.536,936.081C190.915,936.081 188.395,937.096 186.506,938.913C184.617,940.73 183.504,943.208 183.402,945.827L183.402,958.087C182.474,958.427 181.562,958.829 180.666,959.262C180.377,958.913 180.067,958.583 179.738,958.272L169.503,949.445C168.505,948.515 167.329,947.795 166.046,947.33C164.763,946.865 163.399,946.664 162.036,946.739C160.673,946.813 159.34,947.162 158.115,947.764C156.89,948.367 155.8,949.21 154.909,950.244C154.018,951.277 153.344,952.48 152.929,953.78C152.514,955.08 152.366,956.451 152.493,957.81C152.62,959.168 153.02,960.488 153.669,961.688C154.318,962.889 155.202,963.946 156.27,964.796L166.489,973.624C166.578,973.691 166.671,973.753 166.767,973.81C166.581,974.243 166.411,974.691 166.257,975.139L153.549,975.139C150.863,975.139 148.287,976.206 146.388,978.105C144.489,980.004 143.422,982.58 143.422,985.266C143.422,987.953 144.489,990.53 146.387,992.431C148.286,994.333 150.862,995.403 153.549,995.407L166.133,995.407C166.226,995.686 166.334,995.979 166.442,996.258C166.442,996.258 166.442,996.258 166.35,996.258L156.223,1005.209C155.176,1006.076 154.313,1007.145 153.688,1008.353C153.062,1009.56 152.685,1010.881 152.58,1012.236C152.474,1013.592 152.643,1014.955 153.075,1016.245C153.508,1017.534 154.195,1018.723 155.096,1019.742C155.997,1020.76 157.094,1021.587 158.321,1022.173C159.548,1022.759 160.881,1023.092 162.239,1023.152C163.598,1023.213 164.955,1023 166.229,1022.525C167.504,1022.051 168.67,1021.325 169.658,1020.391L179.769,1011.439L179.985,1011.223C181.09,1011.811 182.231,1012.327 183.402,1012.769L183.402,1024.998C183.504,1027.617 184.617,1030.095 186.506,1031.912C188.395,1033.729 190.915,1034.744 193.536,1034.744C196.157,1034.744 198.677,1033.729 200.566,1031.912C202.455,1030.095 203.568,1027.617 203.67,1024.998L203.67,1012.784C204.381,1012.522 205.077,1012.243 205.757,1011.919L215.667,1020.468C216.674,1021.338 217.842,1022.001 219.106,1022.419C220.369,1022.838 221.702,1023.003 223.03,1022.906C224.357,1022.809 225.652,1022.452 226.841,1021.855C228.03,1021.257 229.09,1020.431 229.96,1019.424C230.83,1018.417 231.493,1017.249 231.911,1015.986C232.33,1014.722 232.495,1013.389 232.398,1012.062C232.301,1010.735 231.944,1009.44 231.346,1008.251C230.749,1007.061 229.923,1006.002 228.916,1005.132L220.089,997.525C220.413,996.83 220.691,996.118 220.954,995.407L233.956,995.407C236.643,995.403 239.219,994.333 241.117,992.431C243.016,990.53 244.082,987.953 244.082,985.266C244.082,983.936 243.821,982.619 243.312,981.39C242.803,980.162 242.057,979.045 241.117,978.105C240.176,977.165 239.06,976.419 237.831,975.91C236.603,975.401 235.286,975.139 233.956,975.139L233.956,975.139Z" fill="#FFE18B"/>
<path d="M233.956,975.139L220.831,975.139C220.583,974.459 220.305,973.81 219.996,973.16L229.612,964.657C231.525,962.849 232.659,960.368 232.777,957.739C232.894,955.11 231.984,952.538 230.24,950.566C228.496,948.595 226.053,947.38 223.429,947.176C220.805,946.973 218.205,947.797 216.177,949.476L206.066,958.427C205.914,958.574 205.77,958.729 205.633,958.891C205,958.597 204.335,958.334 203.67,958.087L203.67,945.827C203.568,943.208 202.455,940.73 200.566,938.913C198.677,937.096 196.157,936.081 193.536,936.081C190.915,936.081 188.395,937.096 186.506,938.913C184.617,940.73 183.504,943.208 183.402,945.827L183.402,958.087C182.474,958.427 181.562,958.829 180.666,959.262C180.377,958.913 180.067,958.583 179.738,958.272L169.503,949.445C168.505,948.515 167.329,947.795 166.046,947.33C164.763,946.865 163.399,946.664 162.036,946.739C160.673,946.813 159.34,947.162 158.115,947.764C156.89,948.367 155.8,949.21 154.909,950.244C154.018,951.277 153.344,952.48 152.929,953.78C152.514,955.08 152.366,956.451 152.493,957.81C152.62,959.168 153.02,960.488 153.669,961.688C154.318,962.889 155.202,963.946 156.27,964.796L166.489,973.624C166.578,973.691 166.671,973.753 166.767,973.81C166.581,974.243 166.411,974.691 166.257,975.139L153.549,975.139C150.863,975.139 148.287,976.206 146.388,978.105C144.489,980.004 143.422,982.58 143.422,985.266C143.422,987.953 144.489,990.53 146.387,992.431C148.286,994.333 150.862,995.403 153.549,995.407L166.133,995.407C166.226,995.686 166.334,995.979 166.442,996.258C166.442,996.258 166.442,996.258 166.35,996.258L156.223,1005.209C155.176,1006.076 154.313,1007.145 153.688,1008.353C153.062,1009.56 152.685,1010.881 152.58,1012.236C152.474,1013.592 152.643,1014.955 153.075,1016.245C153.508,1017.534 154.195,1018.723 155.096,1019.742C155.997,1020.76 157.094,1021.587 158.321,1022.173C159.548,1022.759 160.881,1023.092 162.239,1023.152C163.598,1023.213 164.955,1023 166.229,1022.525C167.504,1022.051 168.67,1021.325 169.658,1020.391L179.769,1011.439L179.985,1011.223C181.09,1011.811 182.231,1012.327 183.402,1012.769L183.402,1024.998C183.504,1027.617 184.617,1030.095 186.506,1031.912C188.395,1033.729 190.915,1034.744 193.536,1034.744C196.157,1034.744 198.677,1033.729 200.566,1031.912C202.455,1030.095 203.568,1027.617 203.67,1024.998L203.67,1012.784C204.381,1012.522 205.077,1012.243 205.757,1011.919L215.667,1020.468C216.674,1021.338 217.842,1022.001 219.106,1022.419C220.369,1022.838 221.702,1023.003 223.03,1022.906C224.357,1022.809 225.652,1022.452 226.841,1021.855C228.03,1021.257 229.09,1020.431 229.96,1019.424C230.83,1018.417 231.493,1017.249 231.911,1015.986C232.33,1014.722 232.495,1013.389 232.398,1012.062C232.301,1010.735 231.944,1009.44 231.346,1008.251C230.749,1007.061 229.923,1006.002 228.916,1005.132L220.089,997.525C220.413,996.83 220.691,996.118 220.954,995.407L233.956,995.407C236.643,995.403 239.219,994.333 241.117,992.431C243.016,990.53 244.082,987.953 244.082,985.266C244.082,983.936 243.821,982.619 243.312,981.39C242.803,980.162 242.057,979.045 241.117,978.105C240.176,977.165 239.06,976.419 237.831,975.91C236.603,975.401 235.286,975.139 233.956,975.139L233.956,975.139Z" fill="#FFE18B"/>
<path d="M233.956,975.139L220.831,975.139C220.583,974.459 220.305,973.81 219.996,973.16L229.612,964.657C231.525,962.849 232.659,960.368 232.777,957.739C232.894,955.11 231.984,952.538 230.24,950.566C228.496,948.595 226.053,947.38 223.429,947.176C220.805,946.973 218.205,947.797 216.177,949.476L206.066,958.427C205.914,958.574 205.77,958.729 205.633,958.891C205,958.597 204.335,958.334 203.67,958.087L203.67,945.827C203.568,943.208 202.455,940.73 200.566,938.913C198.677,937.096 196.157,936.081 193.536,936.081C190.915,936.081 188.395,937.096 186.506,938.913C184.617,940.73 183.504,943.208 183.402,945.827L183.402,958.087C182.474,958.427 181.562,958.829 180.666,959.262C180.377,958.913 180.067,958.583 179.738,958.272L169.503,949.445C168.505,948.515 167.329,947.795 166.046,947.33C164.763,946.865 163.399,946.664 162.036,946.739C160.673,946.813 159.34,947.162 158.115,947.764C156.89,948.367 155.8,949.21 154.909,950.244C154.018,951.277 153.344,952.48 152.929,953.78C152.514,955.08 152.366,956.451 152.493,957.81C152.62,959.168 153.02,960.488 153.669,961.688C154.318,962.889 155.202,963.946 156.27,964.796L166.489,973.624C166.578,973.691 166.671,973.753 166.767,973.81C166.581,974.243 166.411,974.691 166.257,975.139L153.549,975.139C150.863,975.139 148.287,976.206 146.388,978.105C144.489,980.004 143.422,982.58 143.422,985.266C143.422,987.953 144.489,990.53 146.387,992.431C148.286,994.333 150.862,995.403 153.549,995.407L166.133,995.407C166.226,995.686 166.334,995.979 166.442,996.258C166.442,996.258 166.442,996.258 166.35,996.258L156.223,1005.209C155.176,1006.076 154.313,1007.145 153.688,1008.353C153.062,1009.56 152.685,1010.881 152.58,1012.236C152.474,1013.592 152.643,1014.955 153.075,1016.245C153.508,1017.534 154.195,1018.723 155.096,1019.742C155.997,1020.76 157.094,1021.587 158.321,1022.173C159.548,1022.759 160.881,1023.092 162.239,1023.152C163.598,1023.213 164.955,1023 166.229,1022.525C167.504,1022.051 168.67,1021.325 169.658,1020.391L179.769,1011.439L179.985,1011.223C181.09,1011.811 182.231,1012.327 183.402,1012.769L183.402,1024.998C183.504,1027.617 184.617,1030.095 186.506,1031.912C188.395,1033.729 190.915,1034.744 193.536,1034.744C196.157,1034.744 198.677,1033.729 200.566,1031.912C202.455,1030.095 203.568,1027.617 203.67,1024.998L203.67,1012.784C204.381,1012.522 205.077,1012.243 205.757,1011.919L215.667,1020.468C216.674,1021.338 217.842,1022.001 219.106,1022.419C220.369,1022.838 221.702,1023.003 223.03,1022.906C224.357,1022.809 225.652,1022.452 226.841,1021.855C228.03,1021.257 229.09,1020.431 229.96,1019.424C230.83,1018.417 231.493,1017.249 231.911,1015.986C232.33,1014.722 232.495,1013.389 232.398,1012.062C232.301,1010.735 231.944,1009.44 231.346,1008.251C230.749,1007.061 229.923,1006.002 228.916,1005.132L220.089,997.525C220.413,996.83 220.691,996.118 220.954,995.407L233.956,995.407C236.643,995.403 239.219,994.333 241.117,992.431C243.016,990.53 244.082,987.953 244.082,985.266C244.082,983.936 243.821,982.619 243.312,981.39C242.803,980.162 242.057,979.045 241.117,978.105C240.176,977.165 239.06,976.419 237.831,975.91C236.603,975.401 235.286,975.139 233.956,975.139L233.956,975.139Z" fill="#FFE18B"/>
<path d="M233.956,975.139L220.831,975.139C220.583,974.459 220.305,973.81 219.996,973.16L229.612,964.657C231.525,962.849 232.659,960.368 232.777,957.739C232.894,955.11 231.984,952.538 230.24,950.566C228.496,948.595 226.053,947.38 223.429,947.176C220.805,946.973 218.205,947.797 216.177,949.476L206.066,958.427C205.914,958.574 205.77,958.729 205.633,958.891C205,958.597 204.335,958.334 203.67,958.087L203.67,945.827C203.568,943.208 202.455,940.73 200.566,938.913C198.677,937.096 196.157,936.081 193.536,936.081C190.915,936.081 188.395,937.096 186.506,938.913C184.617,940.73 183.504,943.208 183.402,945.827L183.402,958.087C182.474,958.427 181.562,958.829 180.666,959.262C180.377,958.913 180.067,958.583 179.738,958.272L169.503,949.445C168.505,948.515 167.329,947.795 166.046,947.33C164.763,946.865 163.399,946.664 162.036,946.739C160.673,946.813 159.34,947.162 158.115,947.764C156.89,948.367 155.8,949.21 154.909,950.244C154.018,951.277 153.344,952.48 152.929,953.78C152.514,955.08 152.366,956.451 152.493,957.81C152.62,959.168 153.02,960.488 153.669,961.688C154.318,962.889 155.202,963.946 156.27,964.796L166.489,973.624C166.578,973.691 166.671,973.753 166.767,973.81C166.581,974.243 166.411,974.691 166.257,975.139L153.549,975.139C150.863,975.139 148.287,976.206 146.388,978.105C144.489,980.004 143.422,982.58 143.422,985.266C143.422,987.953 144.489,990.53 146.387,992.431C148.286,994.333 150.862,995.403 153.549,995.407L166.133,995.407C166.226,995.686 166.334,995.979 166.442,996.258C166.442,996.258 166.442,996.258 166.35,996.258L156.223,1005.209C155.176,1006.076 154.313,1007.145 153.688,1008.353C153.062,1009.56 152.685,1010.881 152.58,1012.236C152.474,1013.592 152.643,1014.955 153.075,1016.245C153.508,1017.534 154.195,1018.723 155.096,1019.742C155.997,1020.76 157.094,1021.587 158.321,1022.173C159.548,1022.759 160.881,1023.092 162.239,1023.152C163.598,1023.213 164.955,1023 166.229,1022.525C167.504,1022.051 168.67,1021.325 169.658,1020.391L179.769,1011.439L179.985,1011.223C181.09,1011.811 182.231,1012.327 183.402,1012.769L183.402,1024.998C183.504,1027.617 184.617,1030.095 186.506,1031.912C188.395,1033.729 190.915,1034.744 193.536,1034.744C196.157,1034.744 198.677,1033.729 200.566,1031.912C202.455,1030.095 203.568,1027.617 203.67,1024.998L203.67,1012.784C204.381,1012.522 205.077,1012.243 205.757,1011.919L215.667,1020.468C216.674,1021.338 217.842,1022.001 219.106,1022.419C220.369,1022.838 221.702,1023.003 223.03,1022.906C224.357,1022.809 225.652,1022.452 226.841,1021.855C228.03,1021.257 229.09,1020.431 229.96,1019.424C230.83,1018.417 231.493,1017.249 231.911,1015.986C232.33,1014.722 232.495,1013.389 232.398,1012.062C232.301,1010.735 231.944,1009.44 231.346,1008.251C230.749,1007.061 229.923,1006.002 228.916,1005.132L220.089,997.525C220.413,996.83 220.691,996.118 220.954,995.407L233.956,995.407C236.643,995.403 239.219,994.333 241.117,992.431C243.016,990.53 244.082,987.953 244.082,985.266C244.082,983.936 243.821,982.619 243.312,981.39C242.803,980.162 242.057,979.045 241.117,978.105C240.176,977.165 239.06,976.419 237.831,975.91C236.603,975.401 235.286,975.139 233.956,975.139L233.956,975.139Z" fill="#FFE18B"/>
<path d="M85.849,961.457C93.261,961.457 99.269,955.449 99.269,948.038C99.269,940.627 93.261,934.619 85.849,934.619C78.438,934.619 72.43,940.627 72.43,948.038C72.43,955.449 78.438,961.457 85.849,961.457Z" fill="#FFFFFF"/>
<path d="M193.76,999.52C201.171,999.52 207.179,993.512 207.179,986.101C207.179,978.689 201.171,972.681 193.76,972.681C186.349,972.681 180.341,978.689 180.341,986.101C180.341,993.512 186.349,999.52 193.76,999.52Z" fill="#FFFFFF"/>
<path d="M211.384,1228.684C206.358,1228.684 201.444,1227.193 197.264,1224.4C193.084,1221.607 189.827,1217.638 187.903,1212.994C185.979,1208.349 185.476,1203.239 186.457,1198.309C187.437,1193.379 189.858,1188.85 193.413,1185.295C196.967,1181.741 201.496,1179.32 206.426,1178.339C211.356,1177.359 216.467,1177.862 221.111,1179.786C225.755,1181.709 229.725,1184.967 232.517,1189.147C235.31,1193.327 236.801,1198.24 236.801,1203.267C236.793,1210.006 234.112,1216.466 229.347,1221.23C224.583,1225.995 218.123,1228.675 211.384,1228.684L211.384,1228.684ZM211.384,1184.035C207.581,1184.035 203.862,1185.163 200.7,1187.276C197.537,1189.39 195.072,1192.393 193.616,1195.907C192.161,1199.422 191.78,1203.289 192.522,1207.019C193.264,1210.75 195.096,1214.177 197.785,1216.866C200.475,1219.556 203.902,1221.388 207.632,1222.13C211.363,1222.872 215.23,1222.491 218.744,1221.036C222.259,1219.58 225.262,1217.115 227.375,1213.952C229.489,1210.789 230.617,1207.071 230.617,1203.267C230.604,1198.17 228.574,1193.286 224.97,1189.682C221.366,1186.077 216.481,1184.047 211.384,1184.035L211.384,1184.035Z" fill="#262626"/>
<path d="M171.343,1270.966C167.86,1270.966 164.456,1269.934 161.56,1267.999C158.664,1266.064 156.407,1263.314 155.075,1260.096C153.742,1256.879 153.393,1253.338 154.072,1249.922C154.752,1246.506 156.429,1243.369 158.892,1240.906C161.354,1238.443 164.492,1236.766 167.908,1236.087C171.324,1235.407 174.864,1235.756 178.082,1237.089C181.299,1238.422 184.05,1240.679 185.984,1243.575C187.919,1246.47 188.952,1249.875 188.952,1253.358C188.948,1258.027 187.091,1262.503 183.79,1265.805C180.489,1269.106 176.012,1270.962 171.343,1270.966L171.343,1270.966ZM171.343,1241.933C169.083,1241.933 166.875,1242.603 164.996,1243.858C163.117,1245.113 161.653,1246.898 160.788,1248.985C159.923,1251.073 159.697,1253.37 160.138,1255.586C160.578,1257.803 161.667,1259.838 163.264,1261.436C164.862,1263.034 166.898,1264.122 169.114,1264.563C171.33,1265.004 173.628,1264.778 175.715,1263.913C177.803,1263.048 179.587,1261.584 180.843,1259.705C182.098,1257.826 182.768,1255.617 182.768,1253.358C182.764,1250.329 181.559,1247.425 179.417,1245.283C177.276,1243.142 174.372,1241.937 171.343,1241.933L171.343,1241.933Z" fill="#262626"/>
</svg>
