<svg width="1428" height="1458" viewBox="0 0 1428 1458" fill="none" xmlns="http://www.w3.org/2000/svg" xmlns:xlink="http://www.w3.org/1999/xlink">
<path d="M814.773,168.382L121.723,840.168C72.428,887.946 92.363,972.196 157.622,991.814L1074.999,1267.616C1140.257,1287.248 1201.877,1227.578 1185.911,1160.11L961.587,212.522C945.635,145.125 864.069,120.603 814.773,168.382Z" fill="#FFF1C9"/>
<path d="M807.862,1005.887L507.668,1005.887C462.098,1097.587 439.293,1199.278 441.252,1302.049L867.51,1302.441C865.972,1248.201 859.518,1194.22 848.232,1141.19C838.35,1095.061 824.85,1049.814 807.862,1005.887Z" fill="#F9B800"/>
<path d="M781.645,637.671L541.655,637.671L541.655,898.395L781.645,898.395L781.645,637.671Z" fill="#262626"/>
<path d="M687.025,594.228L628.877,594.228C610.444,594.228 592.766,586.766 579.733,573.483C566.699,560.2 559.376,542.183 559.376,523.398L559.376,448.52C559.376,430.19 566.521,412.611 579.239,399.649C591.957,386.688 609.206,379.406 627.192,379.406L686.782,379.406C710.544,379.406 733.332,389.026 750.134,406.15C766.936,423.273 776.374,446.498 776.374,470.714L776.374,503.168C776.374,527.319 766.962,550.481 750.205,567.558C733.449,584.634 710.722,594.228 687.025,594.228L687.025,594.228Z" fill="#262626"/>
<path d="M759.41,569.197L795.01,449.248C795.507,447.572 796.36,446.028 797.51,444.727C798.659,443.425 800.075,442.398 801.659,441.718C803.242,441.038 804.953,440.723 806.669,440.795C808.386,440.866 810.066,441.322 811.59,442.131L850.031,462.506C851.7,463.39 853.134,464.672 854.212,466.242C855.29,467.812 855.981,469.624 856.225,471.524C856.469,473.424 856.259,475.356 855.613,477.156C854.968,478.956 853.905,480.57 852.516,481.862L759.41,569.197Z" fill="#D3B970"/>
<path d="M750.285,564.496L851.916,500.01C853.495,499.01 855.274,498.386 857.122,498.182C858.97,497.979 860.839,498.202 862.59,498.835C864.342,499.469 865.931,500.496 867.24,501.84C868.549,503.185 869.544,504.813 870.152,506.603L883.632,546.377C884.273,548.266 884.464,550.283 884.189,552.262C883.915,554.241 883.182,556.125 882.052,557.758C880.922,559.392 879.427,560.728 877.691,561.657C875.954,562.585 874.026,563.08 872.065,563.099L750.285,564.496Z" fill="#D3B970"/>
<path d="M781.644,573.185C777.538,573.185 773.523,571.943 770.109,569.618C766.694,567.293 764.033,563.988 762.462,560.122C760.89,556.255 760.479,552 761.28,547.896C762.081,543.791 764.059,540.02 766.963,537.061C769.866,534.102 773.566,532.086 777.594,531.27C781.621,530.453 785.796,530.872 789.59,532.474C793.384,534.076 796.627,536.788 798.908,540.268C801.19,543.748 802.407,547.839 802.407,552.024C802.4,557.634 800.21,563.011 796.318,566.978C792.426,570.945 787.149,573.177 781.644,573.185L781.644,573.185ZM781.644,536.685C778.667,536.685 775.757,537.584 773.282,539.27C770.807,540.955 768.878,543.351 767.739,546.154C766.6,548.957 766.302,552.041 766.882,555.016C767.463,557.992 768.897,560.725 771.002,562.87C773.106,565.016 775.788,566.477 778.708,567.068C781.628,567.66 784.654,567.357 787.404,566.196C790.154,565.035 792.505,563.068 794.159,560.546C795.813,558.023 796.695,555.058 796.695,552.024C796.688,547.958 795.1,544.061 792.279,541.186C789.458,538.311 785.634,536.692 781.644,536.685Z" fill="#262626"/>
<path d="M744.074,519.832C744.899,511.887 742.62,503.931 737.732,497.686C732.844,491.44 725.739,487.408 717.956,486.461L718.141,465.926C718.241,459.413 717.079,452.945 714.72,446.891C712.362,440.837 708.853,435.318 704.397,430.649C699.941,425.98 694.624,422.254 688.751,419.684C682.878,417.114 676.565,415.751 670.175,415.673L595.919,415.135C586.191,415.123 576.856,419.043 569.961,426.036C563.065,433.028 559.171,442.522 559.133,452.435L558.348,544.864C558.239,552.616 559.63,560.314 562.442,567.518C565.254,574.722 569.432,581.29 574.738,586.847C580.043,592.404 586.371,596.84 593.36,599.902C600.349,602.964 607.861,604.592 615.468,604.693L618.895,604.693L618.438,655.921L716.556,656.635L717.099,595.961L717.013,595.961L717.456,547.163C724.301,546.426 730.688,543.305 735.537,538.325C740.387,533.346 743.402,526.814 744.074,519.832L744.074,519.832Z" fill="#FFFFFF"/>
<path d="M934.983,776.045L817.302,846.745L890.387,1000.779C890.387,1000.779 923.373,1064.611 985.234,1034.689C997.717,1028.539 1008.847,1019.873 1017.952,1009.217C1027.058,998.563 1033.95,986.137 1038.214,972.691L1101.802,776.045C1101.802,776.045 1195.222,743.722 1209.074,660.535C1209.608,657.898 1209.652,655.183 1209.202,652.53C1208.496,648.563 1206.72,644.875 1204.076,641.877C1205.024,639.682 1205.79,637.408 1206.36,635.081C1207.646,629.798 1208.874,624.646 1204.676,620.28C1202.93,618.352 1200.52,617.185 1197.95,617.022C1195.38,616.859 1192.848,617.714 1190.882,619.407C1191.852,613.993 1190.396,609.219 1187.126,607.124C1185.78,606.316 1184.226,605.946 1182.67,606.061C1175.288,606.512 1169.918,616.831 1168.39,619.712C1162.136,631.355 1148.926,651.046 1129.362,678.654C1129.362,678.654 1157.508,639.752 1142.528,629.041C1138.06,625.854 1132.718,630.322 1129.776,633.494C1124.336,639.316 1122.238,647.364 1118.196,654.058C1112.868,662.455 1105.744,669.515 1097.362,674.71C1084.152,683.267 1069.53,687.808 1057.478,698.242C1051.99,702.944 1047.098,708.321 1042.912,714.251C1038.014,721.266 1036.286,729.547 1032.058,736.634L966.642,845.713L934.983,776.045Z" fill="#FFFFFF"/>
<path d="M953.304,1045.56C910.893,1045.56 888.13,1002.67 887.859,1002.132L813.603,845.596L936.254,771.912L966.984,839.6L1029.589,735.15C1031.327,732.072 1032.825,728.861 1034.071,725.544C1035.747,721.001 1037.921,716.665 1040.555,712.621C1044.873,706.476 1049.923,700.903 1055.591,696.03C1063.131,689.481 1071.671,685.173 1079.867,681.011C1085.309,678.389 1090.609,675.475 1095.747,672.279C1103.795,667.339 1110.631,660.595 1115.739,652.559C1117.149,650.122 1118.423,647.605 1119.553,645.02C1121.709,640.349 1123.935,635.532 1127.677,631.515C1135.745,622.783 1141.457,624.777 1144.143,626.698C1145.599,627.746 1146.829,629.09 1147.753,630.645C1148.677,632.2 1149.275,633.933 1149.511,635.735C1149.919,638.928 1149.745,642.169 1148.997,645.297C1157.023,633.349 1162.535,624.529 1165.863,618.344L1165.947,618.155C1167.861,614.589 1173.673,603.718 1182.483,603.194C1184.625,603.012 1186.769,603.521 1188.611,604.649C1190.187,605.752 1191.489,607.214 1192.413,608.919C1193.337,610.624 1193.859,612.526 1193.937,614.473C1196.199,613.893 1198.573,613.937 1200.813,614.599C1203.053,615.261 1205.081,616.519 1206.689,618.242C1212.043,623.787 1210.415,630.438 1209.117,635.779C1208.659,637.681 1208.071,639.548 1207.359,641.368C1209.461,644.135 1210.951,647.332 1211.727,650.741C1212.503,654.149 1212.549,657.689 1211.857,661.116C1206.145,695.797 1185.339,727.203 1151.881,751.842C1137.125,762.737 1121.045,771.635 1104.043,778.315L1040.927,973.592C1036.525,987.406 1029.431,1000.172 1020.069,1011.124C1010.707,1022.074 999.272,1030.986 986.448,1037.322C976.142,1042.556 964.817,1045.37 953.304,1045.56L953.304,1045.56ZM821.014,847.896L892.957,999.512C898.964,1010.076 906.956,1019.33 916.476,1026.742C936.739,1042.154 959.459,1043.944 984.006,1032.054C996.129,1026.056 1006.939,1017.626 1015.787,1007.268C1024.635,996.91 1031.341,984.836 1035.499,971.774L1099.561,773.76L1100.917,773.294C1101.831,772.974 1192.895,740.52 1206.289,660.04C1206.765,657.735 1206.809,655.36 1206.417,653.039C1205.801,649.605 1204.263,646.412 1201.977,643.812L1200.749,642.357L1201.491,640.64C1202.375,638.6 1203.087,636.487 1203.619,634.324C1204.947,628.837 1205.617,625.33 1202.661,622.259C1201.433,620.871 1199.727,620.018 1197.897,619.877C1196.069,619.736 1194.257,620.318 1192.837,621.502L1186.583,627.323L1188.111,618.853C1188.853,614.706 1187.867,610.965 1185.655,609.583C1184.813,609.081 1183.839,608.862 1182.869,608.957C1179.129,609.175 1175.129,613.207 1171.017,620.905L1170.917,621.08C1164.991,632.112 1153.081,650.187 1132.361,679.454L1131.719,680.371L1127.107,676.936L1128.035,675.626C1133.747,667.331 1145.685,647.436 1143.957,636.623C1143.841,635.588 1143.513,634.589 1142.993,633.692C1142.475,632.794 1141.775,632.018 1140.943,631.413C1138.087,629.375 1133.675,633.581 1131.905,635.488C1128.791,638.806 1126.863,643.012 1124.765,647.465C1123.531,650.24 1122.153,652.946 1120.637,655.572C1115.097,664.351 1107.669,671.732 1098.917,677.154C1093.583,680.467 1088.077,683.484 1082.423,686.192C1074.113,690.398 1066.259,694.356 1059.247,700.44C1053.981,705.01 1049.295,710.232 1045.295,715.983C1042.915,719.675 1040.951,723.629 1039.441,727.771C1038.073,731.365 1036.441,734.848 1034.557,738.191L966.356,851.912L933.783,780.192L821.014,847.896Z" fill="#262626"/>
<path d="M714,531.46C713.605,531.482 713.21,531.482 712.815,531.46C710.509,531.221 708.324,530.291 706.537,528.787C704.749,527.283 703.439,525.272 702.773,523.01C702.106,520.747 702.112,518.334 702.791,516.075C703.47,513.816 704.79,511.813 706.585,510.319C708.381,508.825 710.57,507.906 712.878,507.68C715.185,507.454 717.506,507.929 719.549,509.047C721.591,510.165 723.262,511.875 724.351,513.96C725.44,516.045 725.898,518.413 725.667,520.764L725.667,520.764C725.374,523.708 724.02,526.436 721.868,528.423C719.716,530.409 716.918,531.512 714.014,531.519L714,531.46ZM714,513.385C712.837,513.385 711.698,513.73 710.723,514.376C709.748,515.023 708.978,515.944 708.506,517.028C708.034,518.111 707.881,519.312 708.065,520.482C708.25,521.653 708.763,522.744 709.544,523.623C710.325,524.502 711.339,525.132 712.463,525.435C713.588,525.738 714.775,525.703 715.88,525.332C716.985,524.962 717.961,524.272 718.689,523.348C719.418,522.423 719.867,521.303 719.983,520.123L719.983,520.123C720.139,518.507 719.66,516.893 718.651,515.636C717.642,514.378 716.185,513.58 714.6,513.414L714,513.385Z" fill="#262626"/>
<path d="M620.18,601.855L678.728,600.4C679.109,600.385 679.482,600.51 679.779,600.752C680.076,600.995 680.278,601.338 680.347,601.72C680.417,602.101 680.349,602.495 680.157,602.83C679.964,603.165 679.66,603.418 679.3,603.543L619.938,625.373L620.18,601.855Z" fill="#262626"/>
<path d="M705.232,523.892C704.522,523.896 703.835,523.63 703.307,523.145C702.779,522.661 702.447,521.993 702.376,521.273C702.053,518.043 702.571,514.784 703.877,511.823C705.183,508.862 707.232,506.303 709.816,504.406C712.297,502.68 715.147,501.586 718.129,501.214C721.11,500.841 724.136,501.202 726.952,502.266C727.317,502.394 727.652,502.595 727.938,502.858C728.224,503.122 728.455,503.441 728.617,503.798C728.779,504.154 728.868,504.541 728.879,504.933C728.891,505.326 728.824,505.717 728.683,506.083C728.542,506.448 728.33,506.781 728.06,507.061C727.79,507.341 727.466,507.562 727.11,507.712C726.753,507.861 726.371,507.935 725.985,507.93C725.6,507.924 725.219,507.839 724.867,507.68C722.939,506.976 720.876,506.74 718.843,506.993C716.81,507.246 714.863,507.979 713.157,509.135C711.389,510.434 709.988,512.184 709.096,514.211C708.203,516.237 707.851,518.467 708.074,520.676C708.111,521.057 708.075,521.441 707.967,521.807C707.859,522.173 707.681,522.513 707.443,522.809C707.206,523.105 706.914,523.351 706.583,523.532C706.253,523.712 705.891,523.825 705.518,523.863L705.232,523.892Z" fill="#262626"/>
<path d="M417.634,767.531L535.314,838.231L462.23,992.265C462.23,992.265 429.228,1056.097 367.382,1026.175C354.896,1020.029 343.764,1011.365 334.658,1000.709C325.552,990.053 318.661,977.625 314.403,964.177L250.8,767.531C250.8,767.531 157.38,735.208 143.543,652.021C143.007,649.384 142.964,646.669 143.414,644.016C144.113,640.053 145.878,636.364 148.512,633.363C147.563,631.168 146.799,628.894 146.227,626.567C144.942,621.298 143.714,616.132 147.927,611.766C149.672,609.842 152.079,608.678 154.645,608.515C157.211,608.352 159.741,609.204 161.707,610.893C160.736,605.479 162.207,600.705 165.463,598.61C166.81,597.809 168.362,597.439 169.918,597.547C177.301,597.998 182.67,608.317 184.198,611.198C190.467,622.841 203.676,642.546 223.225,670.14C223.225,670.14 195.079,631.238 210.059,620.527C214.529,617.34 219.869,621.822 222.825,624.98C228.266,630.802 230.351,638.864 234.392,645.544C239.728,653.934 246.849,660.993 255.227,666.196C268.436,674.753 283.058,679.294 295.125,689.728C300.608,694.434 305.5,699.811 309.69,705.737C314.574,712.752 316.316,721.018 320.543,728.106L385.946,837.183L417.634,767.531Z" fill="#FFFFFF"/>
<path d="M399.311,1037.045C387.793,1036.867 376.461,1034.053 366.153,1028.809C353.333,1022.471 341.899,1013.559 332.54,1002.609C323.181,991.657 316.089,978.893 311.69,965.079L248.472,769.801C231.467,763.128 215.386,754.229 200.634,743.329C167.19,718.704 146.456,687.283 140.658,652.501C139.981,649.09 140.034,645.571 140.812,642.183C141.591,638.795 143.078,635.618 145.17,632.868C144.474,631.044 143.887,629.177 143.414,627.28C142.114,621.924 140.558,615.288 145.842,609.728C147.451,608.007 149.478,606.752 151.718,606.09C153.959,605.428 156.331,605.382 158.594,605.959C158.673,604.013 159.196,602.112 160.12,600.407C161.045,598.702 162.346,597.24 163.92,596.135C165.762,595.009 167.905,594.5 170.046,594.68C178.857,595.218 184.669,606.075 186.582,609.641L186.682,609.83C190.067,616.132 195.493,624.849 203.547,636.812C202.792,633.676 202.617,630.423 203.033,627.221C203.263,625.418 203.859,623.682 204.784,622.126C205.708,620.57 206.941,619.228 208.402,618.184C211.087,616.263 216.799,614.342 224.867,623.001C228.594,627.018 230.836,631.849 232.992,636.507C234.116,639.094 235.389,641.611 236.805,644.045C241.89,652.078 248.702,658.827 256.726,663.78C261.868,666.967 267.168,669.882 272.605,672.512C280.859,676.674 289.398,680.996 296.881,687.531C302.55,692.408 307.606,697.98 311.932,704.122C314.561,708.166 316.731,712.502 318.401,717.045C319.661,720.363 321.164,723.578 322.899,726.665L385.517,831.101L416.249,763.412L538.913,837.111L464.657,993.545C464.485,994.143 441.709,1037.045 399.311,1037.045ZM155.523,611.358C153.433,611.399 151.443,612.278 149.983,613.803C147.012,616.874 147.684,620.396 149.026,625.868C149.545,628.033 150.253,630.147 151.139,632.184L151.882,633.901L150.668,635.357C148.369,637.948 146.83,641.145 146.227,644.584C145.83,646.869 145.868,649.211 146.341,651.482C159.765,732.137 250.8,764.518 251.728,764.838L253.07,765.304L317.116,963.319C321.272,976.385 327.976,988.461 336.824,998.823C345.673,1009.183 356.485,1017.615 368.609,1023.613C393.215,1035.517 415.991,1033.699 436.283,1018.171C445.769,1010.763 453.729,1001.519 459.703,990.969L531.587,839.439L418.905,771.737L386.331,843.369L318.13,729.634C316.238,726.295 314.605,722.811 313.246,719.214C311.731,715.074 309.767,711.12 307.391,707.425C303.335,701.715 298.601,696.538 293.297,692.013C286.285,685.93 278.446,681.971 270.135,677.765C264.511,675.054 259.034,672.037 253.727,668.728C244.971,663.305 237.539,655.925 231.993,647.145C230.473,644.524 229.1,641.818 227.88,639.039C225.824,634.586 223.882,630.394 220.74,627.061C218.969,625.155 214.543,620.949 211.687,622.986C210.856,623.593 210.159,624.37 209.64,625.267C209.122,626.165 208.792,627.162 208.674,628.197C206.946,639.01 218.784,658.759 224.567,667.156L225.524,668.509L220.912,671.944L220.269,671.027C199.506,641.688 187.596,623.67 181.713,612.668L181.613,612.479C177.486,604.78 173.502,600.763 169.746,600.53C168.777,600.443 167.805,600.661 166.962,601.156C164.748,602.612 163.763,606.279 164.52,610.441L166.034,618.897L159.793,613.076C158.634,611.974 157.108,611.36 155.523,611.358L155.523,611.358Z" fill="#262626"/>
<path d="M571.371,511.42C574.565,511.42 577.155,508.781 577.155,505.526C577.155,502.271 574.565,499.632 571.371,499.632C568.177,499.632 565.588,502.271 565.588,505.526C565.588,508.781 568.177,511.42 571.371,511.42Z" fill="#262626"/>
<path d="M633.404,510.46C636.598,510.46 639.187,507.821 639.187,504.566C639.187,501.31 636.598,498.671 633.404,498.671C630.21,498.671 627.62,501.31 627.62,504.566C627.62,507.821 630.21,510.46 633.404,510.46Z" fill="#262626"/>
<path d="M594.248,531.591C593.922,531.589 593.598,531.53 593.291,531.417C589.007,529.961 584.723,527.807 584.723,523.994C584.772,523.281 584.959,522.585 585.272,521.946C585.586,521.306 586.021,520.736 586.551,520.269C586.92,519.886 587.268,519.483 587.593,519.061C589.042,517.149 589.911,514.847 590.092,512.439L592.491,486.898C592.563,486.126 592.933,485.415 593.52,484.921C594.106,484.427 594.861,484.19 595.619,484.264C596.376,484.337 597.074,484.714 597.559,485.312C598.044,485.909 598.275,486.679 598.203,487.451L595.776,513.006C595.489,516.5 594.22,519.835 592.12,522.612C591.677,523.194 591.292,523.63 590.964,523.994C592.312,524.808 593.75,525.458 595.248,525.93C595.886,526.155 596.426,526.604 596.771,527.197C597.115,527.79 597.242,528.488 597.129,529.167C597.016,529.847 596.67,530.463 596.153,530.907C595.636,531.351 594.981,531.593 594.305,531.591L594.248,531.591Z" fill="#262626"/>
<path d="M602.873,557.03C598.497,556.906 594.231,555.606 590.507,553.261C590.176,553.06 589.889,552.794 589.662,552.477C589.435,552.161 589.273,551.801 589.186,551.419C589.099,551.037 589.089,550.642 589.156,550.256C589.222,549.87 589.365,549.501 589.575,549.173C589.784,548.844 590.057,548.562 590.376,548.344C590.696,548.125 591.055,547.975 591.433,547.901C591.81,547.828 592.199,547.833 592.575,547.916C592.95,547.999 593.306,548.159 593.62,548.386C593.72,548.458 599.603,552.228 605.386,550.933C606.969,550.524 608.452,549.791 609.746,548.777C611.04,547.764 612.118,546.491 612.912,545.038C613.317,544.386 613.96,543.925 614.699,543.755C615.438,543.586 616.213,543.723 616.853,544.136C617.493,544.549 617.946,545.204 618.112,545.958C618.278,546.711 618.144,547.501 617.739,548.153C616.274,550.859 614.12,553.112 611.503,554.674C608.887,556.237 605.905,557.051 602.873,557.03L602.873,557.03Z" fill="#262626"/>
<path d="M507.668,1005.886L482.678,882.182C478.425,861.146 479.507,839.352 485.82,818.861L541.655,637.656L591.449,637.656L602.873,663.503C627.392,718.995 705.105,717.802 727.981,661.597L737.719,637.656L781.645,637.656L836.665,821.888C843.765,845.634 844.117,870.946 837.679,894.888L807.863,1005.886L507.668,1005.886Z" fill="#F9B800"/>
<path d="M667.59,457.325L640.001,457.325C631.472,457.325 623.292,453.872 617.262,447.726C611.231,441.579 607.843,433.243 607.843,424.551L607.843,403.478L667.59,403.478L667.59,457.325Z" fill="#262626"/>
<path d="M781.644,637.671L840.292,837.299L950.591,770.98C938.403,748.205 924.864,726.208 910.05,705.111C883.903,667.913 870.352,649.124 847.389,639.621C822.985,629.434 798.466,632.97 781.644,637.671Z" fill="#262626"/>
<path d="M744.231,489.081L694.679,489.081C689.901,489.079 685.17,488.118 680.756,486.253C676.343,484.387 672.332,481.654 668.955,478.21C665.578,474.765 662.899,470.676 661.072,466.176C659.246,461.676 658.306,456.854 658.308,451.984L658.308,435.219L744.245,435.219L744.231,489.081Z" fill="#262626"/>
<path d="M726.724,403.478L641.329,403.478L641.329,457.34L726.724,457.34L726.724,403.478Z" fill="#262626"/>
<path d="M767.707,691.94C805.231,691.94 835.651,660.938 835.651,622.695C835.651,584.452 805.231,553.45 767.707,553.45C730.182,553.45 699.763,584.452 699.763,622.695C699.763,660.938 730.182,691.94 767.707,691.94Z" fill="#262626"/>
<path d="M718.041,740.214C745.826,740.214 768.35,717.259 768.35,688.942C768.35,660.626 745.826,637.671 718.041,637.671C690.257,637.671 667.733,660.626 667.733,688.942C667.733,717.259 690.257,740.214 718.041,740.214Z" fill="#262626"/>
<path d="M808.362,743.125C836.147,743.125 858.671,720.17 858.671,691.853C858.671,663.537 836.147,640.582 808.362,640.582C780.578,640.582 758.054,663.537 758.054,691.853C758.054,720.17 780.578,743.125 808.362,743.125Z" fill="#262626"/>
<path d="M705.832,917.009L617.453,917.009C604.272,916.993 591.635,911.649 582.315,902.149C572.996,892.648 567.755,879.768 567.744,866.334L567.744,805.413C567.744,798.89 570.284,792.634 574.806,788.017C579.328,783.4 585.462,780.801 591.863,780.789L731.422,780.789C737.82,780.797 743.954,783.391 748.478,788.001C753.002,792.612 755.547,798.864 755.555,805.384L755.555,866.305C755.547,879.745 750.307,892.633 740.985,902.139C731.662,911.646 719.019,916.993 705.832,917.009L705.832,917.009ZM591.863,786.61C586.981,786.618 582.301,788.599 578.851,792.119C575.4,795.638 573.46,800.409 573.456,805.384L573.456,866.305C573.467,878.195 578.106,889.594 586.354,898.003C594.602,906.412 605.786,911.143 617.453,911.158L705.832,911.158C717.501,911.147 728.689,906.417 736.94,898.008C745.191,889.599 749.831,878.197 749.843,866.305L749.843,805.413C749.843,800.432 747.903,795.653 744.449,792.128C740.995,788.603 736.31,786.618 731.422,786.61L591.863,786.61Z" fill="#FFFFFF"/>
<path d="M758.054,809.998C785.838,809.998 808.362,787.043 808.362,758.726C808.362,730.41 785.838,707.455 758.054,707.455C730.269,707.455 707.745,730.41 707.745,758.726C707.745,787.043 730.269,809.998 758.054,809.998Z" fill="#262626"/>
<path d="M934.555,896.94C934.037,896.938 933.529,896.793 933.087,896.52C932.644,896.247 932.282,895.856 932.04,895.39C931.798,894.924 931.685,894.399 931.713,893.872C931.741,893.346 931.908,892.836 932.198,892.399L964.257,844.126C964.467,843.808 964.736,843.536 965.049,843.325C965.363,843.114 965.713,842.968 966.082,842.895C966.451,842.822 966.83,842.824 967.198,842.9C967.566,842.976 967.915,843.126 968.227,843.34C968.538,843.554 968.805,843.828 969.012,844.147C969.219,844.467 969.363,844.824 969.434,845.2C969.506,845.576 969.504,845.962 969.429,846.337C969.354,846.712 969.208,847.068 968.998,847.386L936.925,895.659C936.663,896.054 936.31,896.378 935.897,896.601C935.483,896.824 935.022,896.941 934.555,896.94Z" fill="#262626"/>
<path d="M1173.002,703.656C1172.425,703.658 1171.861,703.481 1171.384,703.149C1170.908,702.818 1170.541,702.347 1170.332,701.798C1170.124,701.25 1170.083,700.65 1170.215,700.078C1170.348,699.505 1170.647,698.987 1171.074,698.592C1188.653,682.263 1200.748,642.532 1200.862,642.139C1200.972,641.773 1201.151,641.433 1201.39,641.137C1201.629,640.842 1201.922,640.597 1202.254,640.418C1202.585,640.238 1202.949,640.126 1203.322,640.09C1203.696,640.053 1204.073,640.092 1204.432,640.203C1204.791,640.315 1205.125,640.498 1205.415,640.741C1205.705,640.985 1205.945,641.284 1206.121,641.622C1206.298,641.959 1206.407,642.329 1206.443,642.71C1206.479,643.091 1206.441,643.476 1206.332,643.842C1205.817,645.53 1193.665,685.479 1174.916,702.899C1174.392,703.385 1173.71,703.654 1173.002,703.656Z" fill="#262626"/>
<path d="M1155.252,687.909C1154.659,687.912 1154.081,687.727 1153.596,687.379C1153.112,687.032 1152.745,686.539 1152.547,685.97C1152.35,685.401 1152.331,684.783 1152.493,684.202C1152.655,683.621 1152.99,683.106 1153.453,682.728C1169.717,669.281 1187.996,618.897 1188.182,618.402C1188.473,617.723 1189.007,617.183 1189.675,616.891C1190.344,616.6 1191.096,616.579 1191.779,616.833C1192.462,617.088 1193.024,617.598 1193.35,618.26C1193.677,618.922 1193.744,619.686 1193.537,620.396C1192.765,622.535 1174.53,672.788 1157.051,687.255C1156.543,687.677 1155.908,687.908 1155.252,687.909Z" fill="#262626"/>
<path d="M418.047,888.484C417.583,888.484 417.126,888.369 416.715,888.148C416.305,887.928 415.953,887.609 415.691,887.218L383.618,838.93C383.389,838.614 383.226,838.255 383.137,837.873C383.049,837.492 383.036,837.096 383.102,836.709C383.167,836.323 383.308,835.954 383.517,835.624C383.725,835.295 383.997,835.011 384.316,834.792C384.634,834.572 384.993,834.42 385.371,834.345C385.749,834.27 386.137,834.274 386.514,834.356C386.89,834.438 387.246,834.597 387.561,834.822C387.875,835.048 388.142,835.337 388.345,835.67L420.418,883.944C420.708,884.382 420.876,884.892 420.903,885.42C420.931,885.948 420.816,886.474 420.573,886.941C420.329,887.408 419.965,887.798 419.52,888.07C419.075,888.342 418.566,888.485 418.047,888.484Z" fill="#262626"/>
<path d="M179.6,695.157C178.892,695.155 178.21,694.885 177.686,694.4C158.951,676.936 146.784,637.03 146.27,635.342C146.139,634.971 146.083,634.577 146.105,634.184C146.128,633.79 146.229,633.405 146.402,633.053C146.575,632.7 146.816,632.387 147.112,632.132C147.407,631.877 147.75,631.686 148.12,631.571C148.49,631.456 148.879,631.418 149.264,631.46C149.648,631.503 150.02,631.624 150.358,631.818C150.695,632.011 150.99,632.272 151.225,632.586C151.46,632.899 151.63,633.257 151.725,633.64C151.853,634.033 163.949,673.763 181.513,690.107C181.935,690.503 182.23,691.02 182.359,691.59C182.488,692.16 182.446,692.756 182.238,693.302C182.03,693.847 181.666,694.315 181.192,694.646C180.719,694.977 180.159,695.155 179.585,695.157L179.6,695.157Z" fill="#262626"/>
<path d="M197.335,679.395C196.68,679.394 196.044,679.163 195.536,678.74C178.043,664.289 159.836,614.022 159.036,611.897C158.907,611.537 158.848,611.156 158.864,610.773C158.879,610.391 158.968,610.015 159.126,609.668C159.284,609.321 159.507,609.008 159.783,608.749C160.06,608.49 160.383,608.288 160.736,608.156C161.088,608.025 161.463,607.965 161.838,607.98C162.213,607.996 162.582,608.087 162.923,608.248C163.263,608.409 163.57,608.636 163.824,608.918C164.079,609.199 164.276,609.529 164.406,609.888C164.591,610.398 182.856,660.825 199.135,674.229C199.591,674.608 199.922,675.122 200.08,675.7C200.239,676.279 200.218,676.893 200.021,677.458C199.824,678.024 199.46,678.514 198.98,678.861C198.499,679.207 197.925,679.394 197.335,679.395L197.335,679.395Z" fill="#262626"/>
<path d="M654.379,1199.231C653.622,1199.231 652.896,1199.145 652.36,1198.994C651.824,1198.842 651.523,1198.636 651.523,1198.422L651.523,1159.274C651.523,1159.059 651.824,1158.853 652.36,1158.702C652.896,1158.55 653.622,1158.465 654.379,1158.465C655.137,1158.465 655.863,1158.55 656.399,1158.702C656.935,1158.853 657.235,1159.059 657.235,1159.274L657.235,1198.422C657.235,1198.636 656.935,1198.842 656.399,1198.994C655.863,1199.145 655.137,1199.231 654.379,1199.231Z" fill="#FFFFFF"/>
<path d="M654.381,1076.223C653.623,1076.223 652.897,1075.916 652.361,1075.37C651.826,1074.825 651.525,1074.084 651.525,1073.312L651.525,1005.886C651.525,1005.114 651.826,1004.374 652.361,1003.828C652.897,1003.282 653.623,1002.976 654.381,1002.976C655.138,1002.976 655.865,1003.282 656.4,1003.828C656.936,1004.374 657.237,1005.114 657.237,1005.886L657.237,1073.312C657.237,1074.084 656.936,1074.825 656.4,1075.37C655.865,1075.916 655.138,1076.223 654.381,1076.223Z" fill="#FFFFFF"/>
<path d="M832.238,1080.924C832.072,1080.938 831.905,1080.938 831.739,1080.924C796.453,1074.607 778.046,1054.728 768.835,1039.054C762.796,1029.033 758.83,1017.86 757.183,1006.221C757.145,1005.839 757.182,1005.453 757.291,1005.085C757.4,1004.717 757.579,1004.375 757.817,1004.078C758.056,1003.78 758.35,1003.534 758.682,1003.352C759.014,1003.171 759.378,1003.058 759.753,1003.019C760.128,1002.981 760.507,1003.019 760.868,1003.13C761.229,1003.241 761.565,1003.423 761.856,1003.666C762.148,1003.909 762.39,1004.209 762.568,1004.547C762.746,1004.886 762.857,1005.257 762.895,1005.639L762.895,1005.639C764.543,1016.467 768.281,1026.854 773.89,1036.201C786.428,1057.274 806.234,1070.372 832.767,1075.131C833.524,1075.197 834.225,1075.567 834.715,1076.159C835.205,1076.751 835.444,1077.518 835.38,1078.29C835.316,1079.061 834.953,1079.776 834.372,1080.275C833.791,1080.775 833.039,1081.018 832.281,1080.953L832.238,1080.924Z" fill="#FFFFFF"/>
<path d="M488.576,1084.795C484.312,1084.781 480.053,1084.494 475.824,1083.936C475.066,1083.838 474.378,1083.437 473.911,1082.821C473.444,1082.206 473.235,1081.426 473.332,1080.654C473.429,1079.882 473.822,1079.181 474.426,1078.705C475.03,1078.229 475.795,1078.016 476.552,1078.115C497.801,1080.895 514.908,1076.558 527.403,1065.264C550.494,1044.38 550.48,1006.25 550.48,1005.872C550.48,1005.1 550.781,1004.359 551.316,1003.813C551.852,1003.268 552.578,1002.961 553.336,1002.961C554.093,1002.961 554.82,1003.268 555.355,1003.813C555.891,1004.359 556.192,1005.1 556.192,1005.872C556.192,1007.531 556.192,1046.971 531.216,1069.63C520.078,1079.716 505.769,1084.795 488.576,1084.795Z" fill="#FFFFFF"/>
<path d="M400.583,765.261L486.748,815.849L541.655,637.671C541.655,637.671 465.528,616.045 400.583,765.261Z" fill="#262626"/>
<path d="M436.097,586.719L214.757,586.719C203.667,586.707 193.035,582.213 185.194,574.221C177.352,566.229 172.942,555.393 172.931,544.093L172.931,363.63C172.923,358.023 174,352.469 176.1,347.286C178.2,342.104 181.281,337.393 185.169,333.425C189.056,329.457 193.672,326.308 198.754,324.159C203.836,322.01 209.283,320.903 214.785,320.901L436.125,320.901C447.215,320.913 457.847,325.408 465.689,333.399C473.531,341.391 477.941,352.226 477.951,363.528L477.951,543.991C477.959,549.597 476.883,555.151 474.783,560.335C472.683,565.517 469.601,570.227 465.713,574.195C461.827,578.163 457.211,581.313 452.129,583.461C447.047,585.611 441.599,586.717 436.097,586.719L436.097,586.719ZM214.785,326.723C205.211,326.734 196.032,330.616 189.261,337.516C182.491,344.416 178.683,353.77 178.671,363.528L178.671,543.991C178.683,553.749 182.491,563.103 189.261,570.003C196.032,576.903 205.211,580.785 214.785,580.795L436.125,580.795C445.701,580.787 454.883,576.907 461.653,570.007C468.425,563.107 472.233,553.749 472.239,543.991L472.239,363.528C472.233,353.764 468.421,344.403 461.643,337.501C454.867,330.6 445.677,326.723 436.097,326.723L214.785,326.723Z" fill="#262626"/>
<path d="M452.676,423.954L377.734,423.954C376.977,423.954 376.251,423.648 375.715,423.102C375.179,422.556 374.878,421.815 374.878,421.043C374.878,420.272 375.179,419.531 375.715,418.985C376.251,418.439 376.977,418.133 377.734,418.133L452.676,418.133C453.433,418.133 454.16,418.439 454.695,418.985C455.231,419.531 455.532,420.272 455.532,421.043C455.532,421.815 455.231,422.556 454.695,423.102C454.16,423.648 453.433,423.954 452.676,423.954Z" fill="#262626"/>
<path d="M452.676,454.022L377.734,454.022C376.977,454.022 376.251,453.715 375.715,453.169C375.179,452.623 374.878,451.883 374.878,451.111C374.878,450.339 375.179,449.599 375.715,449.053C376.251,448.507 376.977,448.2 377.734,448.2L452.676,448.2C453.433,448.2 454.16,448.507 454.695,449.053C455.231,449.599 455.532,450.339 455.532,451.111C455.532,451.883 455.231,452.623 454.695,453.169C454.16,453.715 453.433,454.022 452.676,454.022Z" fill="#262626"/>
<path d="M433.127,484.074L377.734,484.074C376.977,484.074 376.251,483.768 375.715,483.222C375.179,482.676 374.878,481.936 374.878,481.164C374.878,480.392 375.179,479.651 375.715,479.105C376.251,478.56 376.977,478.253 377.734,478.253L433.127,478.253C433.884,478.253 434.61,478.56 435.146,479.105C435.682,479.651 435.983,480.392 435.983,481.164C435.983,481.936 435.682,482.676 435.146,483.222C434.61,483.768 433.884,484.074 433.127,484.074Z" fill="#262626"/>
<path d="M334.88,512.672L237.048,512.672L228.123,480.654L340.935,480.654L334.88,512.672ZM241.303,506.85L330.168,506.85L333.981,486.476L235.62,486.476L241.303,506.85Z" fill="#262626"/>
<path d="M286.942,512.672C286.185,512.672 285.459,512.365 284.923,511.819C284.387,511.273 284.086,510.533 284.086,509.761L284.086,483.565C284.086,482.793 284.387,482.053 284.923,481.507C285.459,480.961 286.185,480.654 286.942,480.654C287.7,480.654 288.426,480.961 288.962,481.507C289.498,482.053 289.798,482.793 289.798,483.565L289.798,509.761C289.798,510.533 289.498,511.273 288.962,511.819C288.426,512.365 287.7,512.672 286.942,512.672Z" fill="#262626"/>
<path d="M329.682,517.751C333.973,517.751 337.451,514.174 337.451,509.761C337.451,505.349 333.973,501.771 329.682,501.771C325.392,501.771 321.914,505.349 321.914,509.761C321.914,514.174 325.392,517.751 329.682,517.751Z" fill="#262626"/>
<path d="M286.885,517.751C291.215,517.751 294.725,514.174 294.725,509.761C294.725,505.349 291.215,501.771 286.885,501.771C282.555,501.771 279.045,505.349 279.045,509.761C279.045,514.174 282.555,517.751 286.885,517.751Z" fill="#262626"/>
<path d="M242.117,517.751C246.4,517.751 249.871,514.174 249.871,509.761C249.871,505.349 246.4,501.771 242.117,501.771C237.835,501.771 234.363,505.349 234.363,509.761C234.363,514.174 237.835,517.751 242.117,517.751Z" fill="#262626"/>
<path d="M216.771,428.684C216.328,428.686 215.892,428.583 215.495,428.383C215.099,428.184 214.753,427.893 214.486,427.534L198.492,405.981C197.753,404.976 197.303,403.782 197.191,402.532C197.08,401.281 197.312,400.024 197.862,398.9C198.412,397.777 199.257,396.831 200.304,396.169C201.351,395.507 202.558,395.156 203.79,395.153L252.642,395.153C254.527,395.154 256.385,395.61 258.063,396.486C259.742,397.361 261.192,398.63 262.295,400.188L284.372,423.692C284.831,424.259 285.062,424.981 285.02,425.714C284.978,426.448 284.666,427.138 284.145,427.646C283.625,428.154 282.935,428.443 282.214,428.455C281.494,428.467 280.795,428.2 280.259,427.709L257.683,403.71C257.115,402.867 256.354,402.177 255.465,401.7C254.577,401.223 253.589,400.974 252.585,400.974L203.733,400.974C203.56,400.971 203.39,401.019 203.243,401.112C203.096,401.205 202.979,401.339 202.905,401.498C202.829,401.653 202.797,401.826 202.812,401.998C202.827,402.17 202.889,402.335 202.99,402.473L219.041,424.012C219.27,424.317 219.437,424.664 219.534,425.035C219.63,425.405 219.654,425.792 219.604,426.172C219.553,426.552 219.43,426.918 219.24,427.249C219.05,427.58 218.798,427.87 218.498,428.102C218,428.483 217.393,428.687 216.771,428.684Z" fill="#262626"/>
<path d="M286.942,487.116L340.264,487.116L353.573,426.253C353.779,425.288 353.769,424.288 353.543,423.327C353.318,422.366 352.884,421.47 352.272,420.704C351.66,419.938 350.887,419.322 350.009,418.902C349.132,418.482 348.173,418.269 347.204,418.278L286.942,418.278L286.942,487.116Z" fill="#FFE18B"/>
<path d="M229.194,487.116L286.942,487.116L286.942,418.278L215.628,418.278C214.568,418.275 213.522,418.529 212.578,419.02C211.634,419.511 210.818,420.224 210.198,421.101C209.578,421.977 209.172,422.992 209.014,424.06C208.856,425.128 208.95,426.219 209.288,427.243L229.194,487.116Z" fill="#FFE18B"/>
<line x1="286.942" y1="425.744" x2="286.942" y2="476.099" fill="#FFFFFF"/>
<path d="M286.942,479.01C286.185,479.01 285.459,478.703 284.923,478.157C284.387,477.611 284.086,476.871 284.086,476.099L284.086,425.686C284.086,424.914 284.387,424.174 284.923,423.628C285.459,423.082 286.185,422.775 286.942,422.775C287.7,422.775 288.426,423.082 288.962,423.628C289.498,424.174 289.798,424.914 289.798,425.686L289.798,476.041C289.806,476.428 289.738,476.813 289.598,477.173C289.458,477.533 289.248,477.86 288.982,478.137C288.716,478.413 288.399,478.633 288.049,478.783C287.698,478.933 287.322,479.01 286.942,479.01Z" fill="#262626"/>
<path d="M264.494,1071.042L172.788,1071.042C168.199,1071.038 163.799,1069.179 160.554,1065.872C157.309,1062.565 155.484,1058.081 155.481,1053.404L155.481,959.956C155.488,955.282 157.315,950.801 160.559,947.497C163.804,944.193 168.202,942.336 172.788,942.332L264.466,942.332C269.055,942.336 273.455,944.195 276.7,947.503C279.945,950.81 281.769,955.294 281.773,959.971L281.773,1053.418C281.766,1058.088 279.943,1062.564 276.705,1065.867C273.466,1069.17 269.076,1071.031 264.494,1071.042L264.494,1071.042ZM172.788,948.153C169.714,948.157 166.767,949.404 164.593,951.619C162.419,953.834 161.196,956.838 161.193,959.971L161.193,1053.418C161.196,1056.551 162.419,1059.555 164.593,1061.77C166.767,1063.985 169.714,1065.232 172.788,1065.236L264.466,1065.236C267.54,1065.232 270.487,1063.985 272.661,1061.77C274.834,1059.555 276.057,1056.551 276.061,1053.418L276.061,959.956C276.057,956.823 274.834,953.82 272.661,951.604C270.487,949.389 267.54,948.143 264.466,948.139L172.788,948.153Z" fill="#262626"/>
<path d="M197.949,996.485C195.101,996.488 192.316,995.63 189.947,994.019C187.578,992.408 185.73,990.117 184.639,987.436C183.548,984.755 183.262,981.804 183.817,978.957C184.372,976.11 185.743,973.495 187.757,971.442C189.771,969.39 192.337,967.992 195.13,967.427C197.924,966.861 200.819,967.153 203.45,968.265C206.081,969.377 208.329,971.26 209.909,973.674C211.49,976.089 212.332,978.927 212.329,981.83C212.325,985.716 210.809,989.441 208.113,992.189C205.417,994.936 201.762,996.481 197.949,996.485L197.949,996.485ZM197.949,972.981C196.231,972.979 194.551,973.495 193.122,974.466C191.692,975.436 190.577,976.817 189.918,978.434C189.258,980.05 189.084,981.83 189.418,983.547C189.751,985.265 190.577,986.843 191.791,988.082C193.004,989.321 194.551,990.165 196.236,990.507C197.921,990.85 199.667,990.676 201.254,990.006C202.842,989.337 204.198,988.203 205.153,986.747C206.108,985.292 206.617,983.581 206.617,981.83C206.617,979.486 205.705,977.237 204.079,975.578C202.454,973.919 200.249,972.985 197.949,972.981L197.949,972.981Z" fill="#262626"/>
<path d="M239.361,1041.528C236.517,1041.528 233.737,1040.669 231.372,1039.058C229.008,1037.448 227.164,1035.159 226.076,1032.481C224.988,1029.803 224.703,1026.857 225.258,1024.014C225.813,1021.171 227.182,1018.56 229.193,1016.51C231.204,1014.461 233.767,1013.065 236.556,1012.499C239.345,1011.934 242.237,1012.224 244.864,1013.333C247.492,1014.443 249.738,1016.321 251.318,1018.731C252.898,1021.141 253.741,1023.975 253.741,1026.873C253.738,1030.759 252.221,1034.484 249.525,1037.232C246.829,1039.979 243.174,1041.524 239.361,1041.528L239.361,1041.528ZM239.361,1018.039C237.647,1018.039 235.971,1018.557 234.546,1019.528C233.12,1020.499 232.009,1021.878 231.353,1023.492C230.697,1025.107 230.526,1026.883 230.86,1028.596C231.194,1030.31 232.02,1031.884 233.232,1033.12C234.444,1034.355 235.989,1035.196 237.67,1035.537C239.352,1035.878 241.095,1035.703 242.678,1035.035C244.262,1034.366 245.616,1033.234 246.569,1031.781C247.521,1030.328 248.029,1028.62 248.029,1026.873C248.033,1025.711 247.812,1024.559 247.378,1023.484C246.944,1022.408 246.306,1021.431 245.501,1020.608C244.695,1019.784 243.739,1019.131 242.685,1018.685C241.632,1018.239 240.502,1018.01 239.361,1018.01L239.361,1018.039Z" fill="#262626"/>
<path d="M191.352,1050.158C190.848,1050.148 190.355,1050.003 189.924,1049.736C189.277,1049.337 188.812,1048.694 188.63,1047.947C188.448,1047.199 188.564,1046.409 188.953,1045.748L236.905,964.613C237.297,963.951 237.931,963.475 238.668,963.289C239.404,963.104 240.183,963.224 240.832,963.623C241.482,964.023 241.949,964.669 242.131,965.42C242.313,966.17 242.195,966.964 241.803,967.626L193.851,1048.746C193.593,1049.185 193.226,1049.546 192.787,1049.794C192.348,1050.041 191.853,1050.167 191.352,1050.158L191.352,1050.158Z" fill="#262626"/>
<path d="M1282.23,1097.777L1157.994,1097.777C1149.539,1097.769 1141.433,1094.343 1135.454,1088.251C1129.476,1082.157 1126.114,1073.897 1126.106,1065.279L1126.106,814.713C1126.122,806.112 1129.479,797.867 1135.444,791.782C1141.409,785.697 1149.497,782.268 1157.936,782.245L1282.172,782.245C1290.627,782.252 1298.733,785.679 1304.712,791.771C1310.69,797.864 1314.052,806.126 1314.06,814.742L1314.06,1065.279C1314.048,1073.885 1310.693,1082.135 1304.728,1088.225C1298.763,1094.317 1290.673,1097.751 1282.23,1097.777L1282.23,1097.777ZM1157.936,788.066C1150.997,788.074 1144.343,790.887 1139.436,795.888C1134.529,800.889 1131.769,807.67 1131.761,814.742L1131.761,1065.279C1131.769,1072.353 1134.529,1079.133 1139.436,1084.135C1144.343,1089.135 1150.997,1091.949 1157.936,1091.957L1282.172,1091.957C1289.112,1091.949 1295.766,1089.135 1300.673,1084.135C1305.58,1079.133 1308.34,1072.353 1308.348,1065.279L1308.348,814.713C1308.333,807.656 1305.577,800.891 1300.683,795.898C1295.789,790.905 1289.155,788.089 1282.23,788.066L1157.936,788.066Z" fill="#262626"/>
<path d="M1258.025,969.066L1182.141,969.066C1174.838,969.066 1168.918,975.1 1168.918,982.543L1168.918,1029.245C1168.918,1036.688 1174.838,1042.721 1182.141,1042.721L1258.025,1042.721C1265.328,1042.721 1271.248,1036.688 1271.248,1029.245L1271.248,982.543C1271.248,975.1 1265.328,969.066 1258.025,969.066Z" fill="#FFE18B"/>
<path d="M1268.578,998.392L1171.803,998.392C1171.045,998.392 1170.319,998.085 1169.783,997.539C1169.247,996.993 1168.947,996.253 1168.947,995.481C1168.947,994.709 1169.247,993.969 1169.783,993.423C1170.319,992.877 1171.045,992.57 1171.803,992.57L1268.578,992.57C1269.336,992.57 1270.062,992.877 1270.598,993.423C1271.133,993.969 1271.434,994.709 1271.434,995.481C1271.434,996.253 1271.133,996.993 1270.598,997.539C1270.062,998.085 1269.336,998.392 1268.578,998.392Z" fill="#262626"/>
<path d="M1201.633,1033.64L1189.224,1033.64C1186.592,1033.539 1184.1,1032.403 1182.272,1030.469C1180.445,1028.536 1179.424,1025.955 1179.424,1023.271C1179.424,1020.586 1180.445,1018.006 1182.272,1016.072C1184.1,1014.138 1186.592,1013.002 1189.224,1012.901L1201.633,1012.901C1204.266,1013.002 1206.758,1014.138 1208.585,1016.072C1210.413,1018.006 1211.434,1020.586 1211.434,1023.271C1211.434,1025.955 1210.413,1028.536 1208.585,1030.469C1206.758,1032.403 1204.266,1033.539 1201.633,1033.64L1201.633,1033.64ZM1189.224,1018.723C1188.084,1018.788 1187.012,1019.296 1186.228,1020.142C1185.444,1020.988 1185.007,1022.107 1185.007,1023.271C1185.007,1024.434 1185.444,1025.554 1186.228,1026.399C1187.012,1027.245 1188.084,1027.753 1189.224,1027.819L1201.633,1027.819C1202.773,1027.753 1203.845,1027.245 1204.63,1026.399C1205.414,1025.554 1205.851,1024.434 1205.851,1023.271C1205.851,1022.107 1205.414,1020.988 1204.63,1020.142C1203.845,1019.296 1202.773,1018.788 1201.633,1018.723L1189.224,1018.723Z" fill="#262626"/>
<path d="M1262.323,838.435L1177.672,838.435C1170.369,838.435 1164.448,844.469 1164.448,851.912L1164.448,898.613C1164.448,906.056 1170.369,912.09 1177.672,912.09L1262.323,912.09C1269.626,912.09 1275.547,906.056 1275.547,898.613L1275.547,851.912C1275.547,844.469 1269.626,838.435 1262.323,838.435Z" fill="#F9B800"/>
<path d="M1219.997,893.869C1216.377,893.869 1212.837,892.775 1209.827,890.725C1206.816,888.675 1204.47,885.761 1203.084,882.352C1201.698,878.942 1201.336,875.191 1202.042,871.572C1202.749,867.953 1204.492,864.628 1207.052,862.019C1209.613,859.41 1212.875,857.633 1216.426,856.913C1219.977,856.193 1223.658,856.562 1227.003,857.974C1230.348,859.387 1233.207,861.778 1235.219,864.846C1237.231,867.914 1238.304,871.522 1238.304,875.212C1238.3,880.159 1236.371,884.902 1232.938,888.4C1229.506,891.898 1224.852,893.865 1219.997,893.869L1219.997,893.869ZM1219.997,862.376C1217.506,862.376 1215.071,863.128 1213,864.539C1210.929,865.949 1209.314,867.954 1208.361,870.3C1207.408,872.645 1207.158,875.226 1207.644,877.716C1208.13,880.206 1209.33,882.493 1211.091,884.288C1212.853,886.083 1215.097,887.306 1217.54,887.801C1219.983,888.296 1222.516,888.042 1224.817,887.071C1227.119,886.099 1229.086,884.454 1230.47,882.343C1231.854,880.232 1232.592,877.75 1232.592,875.212C1232.588,871.808 1231.26,868.546 1228.899,866.139C1226.538,863.733 1223.337,862.379 1219.997,862.376Z" fill="#262626"/>
<path d="M1174.916,893.869L1164.448,893.869L1164.448,888.048L1174.916,888.048C1177.707,887.728 1180.285,886.372 1182.157,884.237C1184.029,882.103 1185.064,879.341 1185.064,876.478C1185.064,873.615 1184.029,870.853 1182.157,868.718C1180.285,866.584 1177.707,865.227 1174.916,864.908L1164.448,864.908L1164.448,859.086L1174.916,859.086C1179.172,859.484 1183.129,861.488 1186.01,864.705C1188.891,867.923 1190.489,872.122 1190.489,876.478C1190.489,880.834 1188.891,885.033 1186.01,888.25C1183.129,891.468 1179.172,893.472 1174.916,893.869L1174.916,893.869Z" fill="#262626"/>
<path d="M1275.718,893.956L1265.208,893.956C1260.936,893.578 1256.958,891.582 1254.06,888.361C1251.162,885.139 1249.555,880.928 1249.555,876.558C1249.555,872.188 1251.162,867.976 1254.06,864.755C1256.958,861.534 1260.936,859.537 1265.208,859.159L1275.675,859.159L1275.675,864.981L1265.208,864.981C1262.404,865.285 1259.809,866.636 1257.923,868.773C1256.037,870.911 1254.994,873.683 1254.994,876.558C1254.994,879.432 1256.037,882.205 1257.923,884.342C1259.809,886.48 1262.404,887.831 1265.208,888.135L1275.675,888.135L1275.718,893.956Z" fill="#262626"/>
<path d="M1294.853,597.141L944.865,597.141C933.923,597.109 923.439,592.667 915.701,584.785C907.963,576.901 903.601,566.217 903.567,555.067L903.567,336.503C903.597,325.35 907.958,314.662 915.696,306.776C923.434,298.889 933.921,294.445 944.865,294.415L1294.853,294.415C1305.797,294.445 1316.283,298.889 1324.021,306.776C1331.761,314.662 1336.121,325.35 1336.151,336.503L1336.151,555.067C1336.117,566.217 1331.755,576.901 1324.017,584.785C1316.279,592.667 1305.795,597.109 1294.853,597.141L1294.853,597.141ZM944.865,300.25C935.436,300.281 926.402,304.112 919.735,310.907C913.068,317.702 909.309,326.908 909.279,336.518L909.279,555.067C909.29,564.681 913.044,573.897 919.715,580.693C926.387,587.489 935.431,591.311 944.865,591.319L1294.853,591.319C1304.287,591.311 1313.331,587.489 1320.003,580.693C1326.675,573.897 1330.427,564.681 1330.439,555.067L1330.439,336.503C1330.409,326.894 1326.651,317.687 1319.983,310.892C1313.315,304.097 1304.281,300.267 1294.853,300.236L944.865,300.25Z" fill="#262626"/>
<path d="M1085.708,352.977L975.838,352.977C964.521,352.977 955.346,362.327 955.346,373.861L955.346,505.337C955.346,516.871 964.521,526.221 975.838,526.221L1085.708,526.221C1097.026,526.221 1106.2,516.871 1106.2,505.337L1106.2,373.861C1106.2,362.327 1097.026,352.977 1085.708,352.977Z" fill="#FFE18B"/>
<path d="M1033.629,445.784L1027.917,445.784L1027.917,526.235L1033.629,526.235L1033.629,445.784Z" fill="#262626"/>
<path d="M1172.417,356.616L1145.827,356.616C1141.844,356.616 1138.616,359.906 1138.616,363.965L1138.616,391.064C1138.616,395.123 1141.844,398.413 1145.827,398.413L1172.417,398.413C1176.399,398.413 1179.628,395.123 1179.628,391.064L1179.628,363.965C1179.628,359.906 1176.399,356.616 1172.417,356.616Z" fill="#F9B800"/>
<path d="M1229.937,356.616L1203.347,356.616C1199.364,356.616 1196.136,359.906 1196.136,363.965L1196.136,391.064C1196.136,395.123 1199.364,398.413 1203.347,398.413L1229.937,398.413C1233.919,398.413 1237.148,395.123 1237.148,391.064L1237.148,363.965C1237.148,359.906 1233.919,356.616 1229.937,356.616Z" fill="#F9B800"/>
<path d="M1287.47,356.616L1260.881,356.616C1256.898,356.616 1253.67,359.906 1253.67,363.965L1253.67,391.064C1253.67,395.123 1256.898,398.413 1260.881,398.413L1287.47,398.413C1291.453,398.413 1294.682,395.123 1294.682,391.064L1294.682,363.965C1294.682,359.906 1291.453,356.616 1287.47,356.616Z" fill="#F9B800"/>
<path d="M1294.696,439.396L1141.458,439.396C1140.7,439.396 1139.974,439.089 1139.438,438.543C1138.902,437.997 1138.602,437.257 1138.602,436.485C1138.602,435.713 1138.902,434.973 1139.438,434.427C1139.974,433.881 1140.7,433.574 1141.458,433.574L1294.696,433.574C1295.454,433.574 1296.18,433.881 1296.716,434.427C1297.251,434.973 1297.552,435.713 1297.552,436.485C1297.552,437.257 1297.251,437.997 1296.716,438.543C1296.18,439.089 1295.454,439.396 1294.696,439.396Z" fill="#262626"/>
<path d="M1294.696,470.205L1141.458,470.205C1140.7,470.205 1139.974,469.898 1139.438,469.353C1138.902,468.807 1138.602,468.066 1138.602,467.294C1138.602,466.523 1138.902,465.782 1139.438,465.236C1139.974,464.69 1140.7,464.384 1141.458,464.384L1294.696,464.384C1295.454,464.384 1296.18,464.69 1296.716,465.236C1297.251,465.782 1297.552,466.523 1297.552,467.294C1297.552,468.066 1297.251,468.807 1296.716,469.353C1296.18,469.898 1295.454,470.205 1294.696,470.205Z" fill="#262626"/>
<path d="M1241.36,501.015L1141.4,501.015C1140.643,501.015 1139.917,500.708 1139.381,500.162C1138.845,499.616 1138.544,498.876 1138.544,498.104C1138.544,497.332 1138.845,496.592 1139.381,496.046C1139.917,495.5 1140.643,495.193 1141.4,495.193L1241.36,495.193C1242.118,495.193 1242.844,495.5 1243.38,496.046C1243.916,496.592 1244.216,497.332 1244.216,498.104C1244.216,498.876 1243.916,499.616 1243.38,500.162C1242.844,500.708 1242.118,501.015 1241.36,501.015Z" fill="#262626"/>
<path d="M1059.219,445.784L1001.985,445.784C1001.385,445.784 1000.792,445.664 1000.238,445.429C999.685,445.195 999.182,444.852 998.759,444.419C998.335,443.987 998,443.473 997.772,442.908C997.544,442.343 997.428,441.738 997.429,441.127L997.429,411.627C997.429,410.929 997.702,410.259 998.187,409.765C998.671,409.271 999.329,408.993 1000.014,408.993L1061.175,408.993C1061.516,408.991 1061.854,409.058 1062.169,409.19C1062.484,409.321 1062.771,409.515 1063.012,409.76C1063.254,410.004 1063.445,410.295 1063.576,410.616C1063.707,410.936 1063.774,411.28 1063.774,411.627L1063.774,441.127C1063.776,441.738 1063.66,442.343 1063.432,442.908C1063.204,443.473 1062.868,443.987 1062.445,444.419C1062.022,444.852 1061.519,445.195 1060.966,445.429C1060.412,445.664 1059.818,445.784 1059.219,445.784Z" fill="#FFBB45"/>
<path d="M1030.602,419.559C1048.923,419.559 1063.774,414.829 1063.774,408.994C1063.774,403.158 1048.923,398.428 1030.602,398.428C1012.281,398.428 997.429,403.158 997.429,408.994C997.429,414.829 1012.281,419.559 1030.602,419.559Z" fill="#262626"/>
<path d="M803.378,1008.797L512.066,1008.797C511.309,1008.797 510.583,1008.49 510.047,1007.944C509.511,1007.399 509.21,1006.658 509.21,1005.886C509.21,1005.114 509.511,1004.374 510.047,1003.828C510.583,1003.282 511.309,1002.976 512.066,1002.976L803.378,1002.976C804.136,1002.976 804.862,1003.282 805.398,1003.828C805.934,1004.374 806.234,1005.114 806.234,1005.886C806.234,1006.658 805.934,1007.399 805.398,1007.944C804.862,1008.49 804.136,1008.797 803.378,1008.797Z" fill="#FFFFFF"/>
</svg>
