<svg width="1428" height="1430" viewBox="0 0 1428 1430" fill="none" xmlns="http://www.w3.org/2000/svg" xmlns:xlink="http://www.w3.org/1999/xlink">
<path d="M966.628,191.978L252.756,504.795C190.452,532.099 181.056,616.623 235.863,656.921L863.668,1118.807C918.462,1159.119 996.358,1124.991 1003.856,1057.403L1089.922,282.713C1097.432,215.069 1028.932,164.675 966.628,191.978Z" fill="#FFF1C9"/>
<path d="M1199.977,1153.351L156.637,1153.351C155.88,1153.351 155.153,1153.05 154.618,1152.514C154.082,1151.979 153.781,1151.252 153.781,1150.495C153.781,1149.737 154.082,1149.011 154.618,1148.475C155.153,1147.94 155.88,1147.639 156.637,1147.639L1199.977,1147.639C1200.735,1147.639 1201.461,1147.94 1201.997,1148.475C1202.531,1149.011 1202.833,1149.737 1202.833,1150.495C1202.833,1151.252 1202.531,1151.979 1201.997,1152.514C1201.461,1153.05 1200.735,1153.351 1199.977,1153.351Z" fill="#262626"/>
<path d="M808.576,585.564L844.191,467.868C844.687,466.225 845.54,464.712 846.688,463.436C847.837,462.161 849.252,461.154 850.835,460.489C852.417,459.823 854.126,459.515 855.841,459.586C857.556,459.657 859.234,460.105 860.755,460.899L899.197,480.891C900.859,481.756 902.289,483.009 903.364,484.543C904.44,486.077 905.13,487.848 905.377,489.705C905.623,491.563 905.419,493.452 904.781,495.214C904.142,496.976 903.089,498.558 901.71,499.827L808.576,585.564Z" fill="#D3B970"/>
<path d="M799.452,580.951L901.068,517.691C902.646,516.71 904.424,516.096 906.271,515.896C908.118,515.695 909.987,515.913 911.738,516.533C913.489,517.153 915.079,518.159 916.389,519.477C917.698,520.795 918.695,522.39 919.304,524.145L932.784,563.173C933.424,565.026 933.615,567.004 933.341,568.945C933.067,570.887 932.336,572.735 931.208,574.338C930.08,575.942 928.587,577.254 926.853,578.168C925.118,579.082 923.192,579.571 921.231,579.595L799.452,580.951Z" fill="#D3B970"/>
<path d="M655.766,798.735C703.078,798.735 741.432,760.382 741.432,713.07C741.432,665.758 703.078,627.404 655.766,627.404C608.454,627.404 570.101,665.758 570.101,713.07C570.101,760.382 608.454,798.735 655.766,798.735Z" fill="#262626"/>
<path d="M471.398,340.676L134.989,340.676C113.616,340.676 96.29,358.002 96.29,379.375L96.29,528.315C96.29,549.688 113.616,567.014 134.989,567.014L471.398,567.014C492.77,567.014 510.096,549.688 510.096,528.315L510.096,379.375C510.096,358.002 492.77,340.676 471.398,340.676Z" fill="#FFFFFF"/>
<path d="M471.398,569.87L135.003,569.87C123.982,569.858 113.415,565.476 105.622,557.682C97.829,549.888 93.445,539.322 93.434,528.301L93.434,379.389C93.445,368.368 97.829,357.801 105.622,350.008C113.415,342.215 123.982,337.831 135.003,337.82L471.398,337.82C482.416,337.835 492.978,342.22 500.77,350.013C508.56,357.806 512.94,368.37 512.952,379.389L512.952,528.301C512.94,539.32 508.56,549.884 500.77,557.678C492.978,565.47 482.416,569.854 471.398,569.87L471.398,569.87ZM135.003,343.532C125.496,343.54 116.38,347.32 109.657,354.043C102.934,360.766 99.154,369.882 99.146,379.389L99.146,528.301C99.154,537.809 102.934,546.924 109.657,553.648C116.38,560.37 125.496,564.15 135.003,564.158L471.398,564.158C480.902,564.146 490.014,560.364 496.734,553.642C503.454,546.92 507.232,537.806 507.24,528.301L507.24,379.389C507.232,369.884 503.454,360.77 496.734,354.048C490.014,347.325 480.902,343.543 471.398,343.532L135.003,343.532Z" fill="#262626"/>
<path d="M171.817,417.045C171.072,417.046 170.356,416.755 169.822,416.234C169.289,415.714 168.98,415.006 168.961,414.261C168.69,402.637 172.988,395.697 176.658,391.913C180.706,387.632 186.278,385.118 192.166,384.915L192.323,384.915C198.01,385.036 203.419,387.396 207.374,391.484C211.116,395.24 215.557,402.237 215.414,414.218C215.414,414.975 215.113,415.702 214.577,416.237C214.042,416.773 213.315,417.074 212.558,417.074C211.8,417.074 211.074,416.773 210.538,416.237C210.003,415.702 209.702,414.975 209.702,414.218C209.816,404.222 206.303,398.51 203.333,395.583C200.429,392.589 196.477,390.838 192.309,390.699L192.209,390.699C187.861,390.893 183.761,392.779 180.785,395.954C176.629,400.238 174.516,406.55 174.702,414.189C174.711,414.564 174.646,414.938 174.512,415.288C174.377,415.638 174.174,415.958 173.916,416.23C173.657,416.502 173.348,416.72 173.005,416.872C172.662,417.024 172.292,417.108 171.917,417.117L171.817,417.045Z" fill="#262626"/>
<path d="M233.221,527.13L151.568,527.13C149.568,527.129 147.592,526.701 145.771,525.875C143.95,525.048 142.327,523.842 141.01,522.337C139.693,520.832 138.713,519.063 138.135,517.149C137.557,515.234 137.395,513.218 137.659,511.236L149.083,426.356C149.533,422.987 151.192,419.896 153.75,417.658C156.309,415.42 159.593,414.187 162.992,414.189L219.912,414.189C223.256,414.19 226.491,415.384 229.033,417.556C231.575,419.729 233.258,422.738 233.778,426.042L247.044,510.936C247.36,512.935 247.239,514.978 246.689,516.925C246.14,518.872 245.175,520.677 243.862,522.216C242.548,523.755 240.917,524.991 239.08,525.839C237.243,526.688 235.244,527.128 233.221,527.13Z" fill="#FFE18B"/>
<path d="M455.061,401.237L300.337,401.237C294.193,401.237 289.213,406.218 289.213,412.362L289.213,421.001C289.213,427.145 294.193,432.125 300.337,432.125L455.061,432.125C461.204,432.125 466.185,427.145 466.185,421.001L466.185,412.362C466.185,406.218 461.204,401.237 455.061,401.237Z" fill="#FFBB45"/>
<path d="M458.802,471.224L296.61,471.224C295.852,471.224 295.126,470.923 294.59,470.387C294.055,469.852 293.754,469.125 293.754,468.368C293.754,467.61 294.055,466.884 294.59,466.348C295.126,465.813 295.852,465.512 296.61,465.512L458.802,465.512C459.56,465.512 460.286,465.813 460.822,466.348C461.357,466.884 461.658,467.61 461.658,468.368C461.658,469.125 461.357,469.852 460.822,470.387C460.286,470.923 459.56,471.224 458.802,471.224Z" fill="#262626"/>
<path d="M435.968,507.923L296.61,507.923C295.852,507.923 295.126,507.622 294.59,507.087C294.055,506.551 293.754,505.825 293.754,505.067C293.754,504.31 294.055,503.583 294.59,503.048C295.126,502.512 295.852,502.211 296.61,502.211L435.968,502.211C436.726,502.211 437.452,502.512 437.988,503.048C438.524,503.583 438.824,504.31 438.824,505.067C438.824,505.825 438.524,506.551 437.988,507.087C437.452,507.622 436.726,507.923 435.968,507.923Z" fill="#262626"/>
<path d="M911.949,872.649C961.414,872.649 1001.514,832.805 1001.514,783.656C1001.514,734.506 961.414,694.663 911.949,694.663C862.484,694.663 822.385,734.506 822.385,783.656C822.385,832.805 862.484,872.649 911.949,872.649Z" fill="#262626"/>
<path d="M822.385,752.583C871.85,752.583 911.949,712.739 911.949,663.59C911.949,614.44 871.85,574.597 822.385,574.597C772.92,574.597 732.821,614.44 732.821,663.59C732.821,712.739 772.92,752.583 822.385,752.583Z" fill="#262626"/>
<path d="M743.702,649.294L689.267,649.294C675.867,649.294 662.598,646.656 650.218,641.526C637.838,636.398 626.59,628.882 617.115,619.406C607.641,609.93 600.125,598.681 594.999,586.3C589.872,573.92 587.234,560.65 587.236,547.25L587.236,477.621C587.255,461.615 593.628,446.27 604.954,434.96C616.281,423.65 631.634,417.299 647.641,417.302L721.14,417.302C746.045,417.302 769.93,427.196 787.54,444.807C805.152,462.417 815.044,486.302 815.044,511.208L815.044,578.081C815.038,587.442 813.186,596.709 809.596,605.354C806.006,613.999 800.75,621.852 794.124,628.466C787.5,635.078 779.637,640.322 770.985,643.896C762.334,647.47 753.063,649.304 743.702,649.294L743.702,649.294Z" fill="#262626"/>
<path d="M609.756,441.15C609.756,441.15 577.454,445.92 568.972,514.235C567.969,522.58 564.367,530.398 558.676,536.583L553.478,542.21C552.168,543.626 551.422,545.473 551.383,547.402C551.343,549.332 552.013,551.208 553.264,552.677L560.304,560.959L556.748,604.656C556.748,604.656 549.608,651.224 604.429,649.78L639.301,649.78L639.301,698.09L748.9,698.09L748.9,615.052C748.9,615.052 773.875,610.768 778.417,586.178C779.565,580.031 779.305,573.704 777.657,567.672C776.011,561.64 773.019,556.059 768.907,551.349C760.725,542.081 746.301,534.213 722.553,545.294C722.568,545.294 628.234,564.229 609.756,441.15Z" fill="#FFFFFF"/>
<path d="M741.432,596.731C739.172,596.731 736.964,596.061 735.085,594.805C733.206,593.55 731.742,591.766 730.877,589.678C730.013,587.591 729.787,585.294 730.227,583.078C730.668,580.862 731.756,578.826 733.354,577.229C734.952,575.631 736.987,574.543 739.203,574.102C741.419,573.661 743.716,573.888 745.804,574.752C747.891,575.617 749.675,577.081 750.931,578.96C752.186,580.838 752.856,583.047 752.856,585.307C752.856,588.336 751.652,591.242 749.51,593.385C747.367,595.527 744.462,596.731 741.432,596.731ZM741.432,579.509C740.302,579.509 739.198,579.844 738.258,580.472C737.319,581.099 736.587,581.991 736.155,583.035C735.722,584.079 735.609,585.227 735.83,586.335C736.05,587.443 736.594,588.461 737.393,589.26C738.192,590.059 739.209,590.603 740.317,590.823C741.425,591.044 742.574,590.93 743.618,590.498C744.661,590.066 745.554,589.334 746.181,588.394C746.809,587.455 747.144,586.351 747.144,585.221C747.144,583.706 746.542,582.253 745.471,581.182C744.4,580.111 742.947,579.509 741.432,579.509Z" fill="#262626"/>
<path d="M732.821,588.12C732.078,588.12 731.364,587.831 730.831,587.314C730.298,586.796 729.987,586.092 729.965,585.349C729.765,579.452 731.522,574.682 735.206,571.169C742.517,564.201 754.727,565.086 755.198,565.129C755.955,565.188 756.658,565.545 757.153,566.122C757.647,566.699 757.891,567.449 757.833,568.206C757.774,568.964 757.417,569.667 756.84,570.161C756.262,570.655 755.513,570.9 754.755,570.841L754.755,570.841C754.655,570.841 744.531,570.127 739.047,575.353C736.577,577.724 735.449,580.937 735.591,585.192C735.605,585.569 735.543,585.944 735.411,586.296C735.279,586.649 735.079,586.972 734.821,587.246C734.564,587.521 734.254,587.742 733.911,587.897C733.568,588.052 733.197,588.137 732.821,588.148L732.821,588.12Z" fill="#262626"/>
<path d="M621.251,545.208C624.982,545.208 628.006,542.184 628.006,538.454C628.006,534.724 624.982,531.699 621.251,531.699C617.521,531.699 614.497,534.724 614.497,538.454C614.497,542.184 617.521,545.208 621.251,545.208Z" fill="#262626"/>
<path d="M597.532,602.171C594.782,602.182 592.057,601.638 589.521,600.572C581.31,597.102 575.798,587.948 575.813,577.81C575.816,576.959 576.005,576.12 576.367,575.351C576.73,574.582 577.256,573.901 577.909,573.356C578.562,572.812 579.326,572.417 580.148,572.2C580.97,571.982 581.83,571.947 582.667,572.098L616.725,578.181C617.596,578.342 618.418,578.698 619.131,579.223C619.845,579.748 620.429,580.428 620.842,581.211C621.254,581.995 621.483,582.862 621.512,583.747C621.541,584.632 621.369,585.512 621.009,586.32C616.639,596.031 606.971,602.171 597.532,602.171ZM581.639,577.652C581.622,577.694 581.622,577.74 581.639,577.781C581.639,585.664 585.737,592.689 591.863,595.288C601.26,599.258 612.084,592.432 615.925,583.864L615.839,583.693L581.767,577.61L581.639,577.652Z" fill="#262626"/>
<path d="M638.402,649.838L690.767,649.838C691.231,649.842 691.679,650.004 692.038,650.299C692.396,650.593 692.643,651.002 692.737,651.457C692.83,651.911 692.765,652.384 692.552,652.796C692.339,653.209 691.991,653.535 691.566,653.722L638.402,676.427L638.402,649.838Z" fill="#262626"/>
<path d="M638.401,696.976C638.39,694.372 639.217,691.833 640.76,689.734C642.303,687.636 644.48,686.09 646.969,685.324C648.874,684.747 650.83,684.355 652.81,684.153C660.289,683.46 667.783,685.317 674.073,689.422C679.325,685.352 685.778,683.137 692.422,683.121C699.067,683.106 705.53,685.291 710.801,689.336C716.12,685.765 722.334,683.757 728.737,683.539C732.754,683.428 736.758,684.037 740.561,685.338C742.929,686.165 744.982,687.71 746.433,689.757C747.884,691.804 748.661,694.253 748.657,696.762L748.657,721.752L638.401,721.752L638.401,696.976Z" fill="#FFE18B"/>
<path d="M1063.533,1057.475L433.427,1056.947L461.358,801.235C464.007,777.001 475.495,754.594 493.625,738.297C511.755,722.001 535.256,712.958 559.633,712.899L820.115,712.242C850.507,712.168 880.225,721.175 905.463,738.108C930.699,755.04 950.303,779.126 961.759,807.275C1014.595,928.769 1052.823,1017.477 1056.991,1028.001C1058.977,1033.161 1060.565,1038.465 1061.747,1043.865C1062.673,1048.353 1063.271,1052.901 1063.533,1057.475L1063.533,1057.475Z" fill="#FFE18B"/>
<path d="M872.895,1057.146L549.909,1057.146L549.909,838.248L793.655,838.248C796.985,838.249 800.227,839.315 802.907,841.291C805.587,843.267 807.563,846.049 808.549,849.23L872.895,1057.146Z" fill="#262626"/>
<path d="M793.611,841.104C792.931,841.114 792.269,840.881 791.745,840.446C791.222,840.011 790.871,839.404 790.755,838.734C789.955,834.007 771.577,722.909 809.919,709.557C810.634,709.307 811.42,709.351 812.103,709.681C812.786,710.01 813.31,710.597 813.56,711.313C813.81,712.029 813.765,712.815 813.436,713.498C813.107,714.181 812.519,714.705 811.804,714.955C783.715,724.722 791.155,806.932 796.396,837.763C796.459,838.133 796.449,838.512 796.365,838.879C796.282,839.245 796.127,839.592 795.909,839.898C795.692,840.205 795.416,840.465 795.097,840.665C794.779,840.864 794.424,840.999 794.054,841.061C793.907,841.087 793.759,841.102 793.611,841.104L793.611,841.104Z" fill="#262626"/>
<path d="M557.048,841.104C556.404,841.105 555.779,840.889 555.273,840.489C554.768,840.09 554.412,839.532 554.264,838.905C546.807,807.819 546.606,775.433 553.678,744.257C556.243,733.158 559.739,722.295 564.131,711.784C564.437,711.106 564.995,710.574 565.686,710.301C566.378,710.028 567.149,710.035 567.835,710.321C568.522,710.608 569.069,711.151 569.362,711.835C569.654,712.519 569.668,713.29 569.401,713.984C565.136,724.199 561.74,734.756 559.248,745.542C552.368,775.868 552.569,807.37 559.833,837.605C559.918,837.971 559.929,838.35 559.868,838.72C559.806,839.09 559.671,839.445 559.472,839.763C559.274,840.081 559.014,840.357 558.708,840.575C558.402,840.793 558.057,840.948 557.691,841.033C557.481,841.084 557.265,841.109 557.048,841.104L557.048,841.104Z" fill="#262626"/>
<path d="M516.222,662.519C513.253,658.68 509.845,655.2 506.069,652.151L505.912,652.008C498.85,645.74 492.714,638.499 487.691,630.503C483.235,623.363 480.551,616.051 476.181,604.799C473.996,599.201 472.454,594.803 471.597,592.347C461.416,563.101 454.733,536.883 444.394,533.113C442.837,532.585 441.22,532.254 439.581,532.128C437.4,531.923 435.199,532.158 433.109,532.817C431.02,533.477 429.084,534.549 427.415,535.969C426.308,536.914 425.346,538.015 424.559,539.239C420.56,545.594 422.545,554.805 426.644,572.954C427.301,575.81 427.886,578.167 428.272,579.737L436.568,617.779C436.568,617.779 416.177,622.392 417.319,638.557C417.319,638.557 398.469,627.39 391.158,649.324C391.158,649.324 367.31,651.252 374.236,677.413C374.236,677.413 383.847,712.427 398.084,713.584C398.084,713.584 395.399,768.218 440.795,792.124L515.051,782.784L519.935,761.622C532.787,705.93 526.989,687.866 524.833,681.183C522.749,674.628 519.856,668.358 516.222,662.519L516.222,662.519Z" fill="#FFFFFF"/>
<path d="M450.42,761.15C449.969,761.152 449.525,761.046 449.123,760.843C448.721,760.639 448.372,760.343 448.106,759.979C439.533,748.339 434.21,734.628 432.684,720.253C429.443,687.409 448.206,663.133 455.889,654.779L449.934,639.413C449.349,637.857 448.592,635.872 447.75,633.901C443.023,622.92 440.895,613.695 441.438,606.469C441.591,604.287 442.186,602.159 443.185,600.212C444.183,598.266 445.566,596.543 447.25,595.145C448.898,593.77 450.809,592.745 452.866,592.131C454.924,591.517 457.084,591.328 459.216,591.575C472.154,593.003 479.894,607.798 480.222,608.412C480.395,608.745 480.5,609.11 480.532,609.484C480.563,609.859 480.521,610.236 480.407,610.594C480.293,610.952 480.109,611.284 479.867,611.571C479.625,611.858 479.328,612.095 478.994,612.267C478.66,612.44 478.296,612.545 477.922,612.576C477.547,612.608 477.17,612.566 476.812,612.452C476.454,612.338 476.122,612.154 475.835,611.912C475.548,611.669 475.311,611.373 475.139,611.039C475.139,610.911 468.47,598.344 458.588,597.259C457.217,597.098 455.828,597.218 454.505,597.611C453.182,598.003 451.952,598.661 450.891,599.544C449.8,600.451 448.904,601.571 448.259,602.835C447.613,604.099 447.231,605.482 447.135,606.898C446.664,613.195 448.635,621.521 452.99,631.645C453.89,633.716 454.675,635.801 455.275,637.357L462.529,656.064L461.258,657.378C455.075,663.789 435.169,687.223 438.41,719.667C439.817,733.019 444.745,745.758 452.69,756.581C453.136,757.191 453.321,757.953 453.206,758.7C453.091,759.446 452.685,760.117 452.076,760.565C451.599,760.929 451.02,761.134 450.42,761.15L450.42,761.15Z" fill="#262626"/>
<path d="M612.183,1043.195C592.845,1041.921 573.437,1044.225 554.935,1049.992C486.091,1071.684 455.546,1135.258 449.063,1149.652L612.183,1150.495L612.183,1043.195Z" fill="#FFFFFF"/>
<path d="M615.039,1153.365L444.65,1152.48L446.45,1148.481C457.103,1124.891 488.89,1067.814 554.078,1047.265C572.912,1041.391 592.669,1039.043 612.355,1040.339L615.039,1040.51L615.039,1153.365ZM453.533,1146.825L609.327,1147.624L609.327,1045.894C591.217,1045.012 573.093,1047.337 555.792,1052.762C496.23,1071.483 465.428,1122.02 453.533,1146.825Z" fill="#262626"/>
<path d="M424.873,721.467C422.084,721.494 419.326,720.889 416.805,719.696C413.665,718.158 411.004,715.793 409.108,712.856C408.129,714.051 406.907,715.024 405.524,715.712C402.899,716.955 399.895,717.134 397.141,716.211C396.789,716.083 396.465,715.886 396.188,715.633C395.912,715.379 395.688,715.074 395.529,714.733C395.371,714.393 395.281,714.025 395.265,713.65C395.249,713.276 395.306,712.901 395.435,712.549C395.563,712.196 395.76,711.872 396.014,711.596C396.267,711.319 396.573,711.095 396.913,710.937C397.253,710.778 397.621,710.688 397.996,710.672C398.371,710.656 398.745,710.714 399.098,710.842C400.401,711.234 401.802,711.137 403.039,710.571C403.902,710.016 404.646,709.294 405.227,708.448C405.808,707.602 406.215,706.649 406.423,705.644L409.279,696.348L411.95,705.687C411.95,705.687 413.849,711.927 419.361,714.526C423.274,716.383 428.243,716.054 434.127,713.57C434.474,713.406 434.852,713.314 435.236,713.3C435.62,713.286 436.003,713.349 436.362,713.486C436.721,713.623 437.049,713.832 437.325,714.099C437.602,714.365 437.822,714.685 437.972,715.039C438.122,715.393 438.199,715.774 438.198,716.158C438.198,716.542 438.119,716.923 437.968,717.276C437.817,717.63 437.597,717.949 437.319,718.215C437.042,718.481 436.714,718.689 436.354,718.825C432.742,720.464 428.838,721.362 424.873,721.467L424.873,721.467Z" fill="#262626"/>
<path d="M409.151,709.357C408.545,709.354 407.955,709.159 407.468,708.8C406.98,708.441 406.619,707.936 406.437,707.358L388.416,650.152C388.189,649.429 388.258,648.645 388.609,647.972C388.96,647.3 389.563,646.795 390.287,646.568C391.01,646.34 391.794,646.41 392.466,646.761C393.139,647.112 393.644,647.715 393.871,648.438L411.821,705.644C411.934,706.002 411.975,706.379 411.942,706.753C411.909,707.127 411.803,707.491 411.629,707.824C411.455,708.157 411.218,708.452 410.929,708.693C410.641,708.934 410.309,709.116 409.95,709.228C409.691,709.309 409.422,709.352 409.151,709.357Z" fill="#262626"/>
<path d="M437.425,697.519C436.837,697.518 436.263,697.334 435.782,696.994C435.302,696.654 434.938,696.174 434.741,695.62L414.677,639.485C414.551,639.131 414.495,638.756 414.513,638.381C414.532,638.006 414.624,637.639 414.784,637.299C414.944,636.96 415.17,636.655 415.448,636.403C415.726,636.151 416.052,635.956 416.405,635.829C416.759,635.703 417.133,635.647 417.509,635.665C417.884,635.684 418.251,635.776 418.591,635.936C418.93,636.097 419.235,636.322 419.487,636.6C419.739,636.879 419.934,637.204 420.061,637.557L440.053,693.706C440.206,694.138 440.254,694.6 440.191,695.053C440.128,695.507 439.957,695.939 439.693,696.313C439.428,696.687 439.078,696.991 438.67,697.201C438.263,697.411 437.812,697.52 437.354,697.519L437.425,697.519Z" fill="#262626"/>
<path d="M1185.169,381.76L998.315,381.76C971.216,381.76 949.249,403.724 949.249,430.819C949.249,457.913 971.216,479.878 998.315,479.878L1185.169,479.878C1212.267,479.878 1234.235,457.913 1234.235,430.819C1234.235,403.724 1212.267,381.76 1185.169,381.76Z" fill="#FFFFFF"/>
<path d="M1185.24,482.748L998.301,482.748C984.53,482.748 971.323,477.277 961.586,467.54C951.849,457.803 946.378,444.596 946.378,430.826C946.378,417.055 951.849,403.848 961.586,394.111C971.323,384.374 984.53,378.903 998.301,378.903L1185.24,378.903C1199.01,378.903 1212.216,384.374 1221.954,394.111C1231.692,403.848 1237.162,417.055 1237.162,430.826C1237.162,444.596 1231.692,457.803 1221.954,467.54C1212.216,477.277 1199.01,482.748 1185.24,482.748L1185.24,482.748ZM998.301,384.615C986.045,384.615 974.291,389.484 965.625,398.15C956.959,406.816 952.09,418.57 952.09,430.826C952.09,443.081 956.959,454.835 965.625,463.501C974.291,472.167 986.045,477.036 998.301,477.036L1185.24,477.036C1197.496,477.036 1209.248,472.167 1217.916,463.501C1226.582,454.835 1231.45,443.081 1231.45,430.826C1231.45,418.57 1226.582,406.816 1217.916,398.15C1209.248,389.484 1197.496,384.615 1185.24,384.615L998.301,384.615Z" fill="#262626"/>
<path d="M1014.094,446.805C1022.919,446.805 1030.073,439.651 1030.073,430.826C1030.073,422 1022.919,414.846 1014.094,414.846C1005.269,414.846 998.115,422 998.115,430.826C998.115,439.651 1005.269,446.805 1014.094,446.805Z" fill="#F9B800"/>
<path d="M1091.735,446.805C1100.56,446.805 1107.714,439.651 1107.714,430.826C1107.714,422 1100.56,414.846 1091.735,414.846C1082.91,414.846 1075.755,422 1075.755,430.826C1075.755,439.651 1082.91,446.805 1091.735,446.805Z" fill="#F9B800"/>
<path d="M1169.375,446.805C1178.2,446.805 1185.354,439.651 1185.354,430.826C1185.354,422 1178.2,414.846 1169.375,414.846C1160.55,414.846 1153.396,422 1153.396,430.826C1153.396,439.651 1160.55,446.805 1169.375,446.805Z" fill="#F9B800"/>
<path d="M251.685,650.723L160.936,650.723C142.355,650.723 127.292,665.786 127.292,684.367L127.292,775.116C127.292,793.697 142.355,808.76 160.936,808.76L251.685,808.76C270.266,808.76 285.329,793.697 285.329,775.116L285.329,684.367C285.329,665.786 270.266,650.723 251.685,650.723Z" fill="#FFFFFF"/>
<path d="M251.671,811.616L160.936,811.616C151.258,811.601 141.98,807.749 135.138,800.904C128.296,794.059 124.447,784.78 124.436,775.102L124.436,684.338C124.447,674.66 128.296,665.382 135.138,658.537C141.98,651.692 151.258,647.84 160.936,647.824L251.671,647.824C261.351,647.836 270.632,651.686 277.478,658.532C284.323,665.377 288.173,674.658 288.185,684.338L288.185,775.059C288.185,784.747 284.339,794.039 277.493,800.894C270.646,807.748 261.359,811.605 251.671,811.616L251.671,811.616ZM160.936,653.579C152.778,653.587 144.955,656.829 139.184,662.595C133.413,668.361 130.163,676.18 130.148,684.338L130.148,775.059C130.156,783.224 133.401,791.052 139.173,796.826C144.945,802.6 152.771,805.85 160.936,805.861L251.671,805.861C259.837,805.85 267.665,802.601 273.439,796.827C279.213,791.053 282.461,783.225 282.473,775.059L282.473,684.338C282.465,676.172 279.218,668.341 273.443,662.567C267.668,656.792 259.838,653.544 251.671,653.536L160.936,653.579Z" fill="#262626"/>
<path d="M250.386,703.916C248.639,700.71 246.033,698.054 242.86,696.248C228.28,688.094 213.557,693.149 206.346,703.745C199.035,693.021 184.026,687.951 169.218,696.605C166.531,698.169 164.286,700.39 162.692,703.059C155.995,714.312 157.309,725.608 162.935,733.647C163.036,733.791 163.146,733.93 163.263,734.061L163.263,734.133C163.378,734.29 170.546,742.601 175.03,747.142C183.59,755.48 192.564,763.383 201.919,770.818C203.129,771.804 204.642,772.342 206.203,772.342C207.764,772.342 209.277,771.804 210.487,770.818C218.555,764.378 225.11,758.794 229.979,754.525C233.699,751.428 237.21,748.089 240.49,744.529C247.487,736.803 262.895,726.679 250.386,703.916Z" fill="#D3B970"/>
<path d="M1283.528,591.375L1004.998,591.375C978.483,591.375 956.988,612.87 956.988,639.385L956.988,944.305C956.988,970.821 978.483,992.315 1004.998,992.315L1283.528,992.315C1310.044,992.315 1331.538,970.821 1331.538,944.305L1331.538,639.385C1331.538,612.87 1310.044,591.375 1283.528,591.375Z" fill="#FFFFFF"/>
<path d="M1283.528,995.172L1004.998,995.172C991.512,995.156 978.583,989.792 969.047,980.256C959.511,970.72 954.147,957.792 954.132,944.306L954.132,639.385C954.147,625.899 959.511,612.97 969.047,603.434C978.583,593.899 991.512,588.535 1004.998,588.52L1283.528,588.52C1297.014,588.535 1309.944,593.899 1319.48,603.434C1329.016,612.97 1334.38,625.899 1334.394,639.385L1334.394,944.306C1334.38,957.792 1329.016,970.72 1319.48,980.256C1309.944,989.792 1297.014,995.156 1283.528,995.172ZM1004.998,594.232C993.027,594.247 981.551,599.009 973.086,607.473C964.622,615.938 959.859,627.414 959.844,639.385L959.844,944.306C959.859,956.276 964.622,967.754 973.086,976.218C981.551,984.682 993.027,989.444 1004.998,989.46L1283.528,989.46C1295.5,989.444 1306.976,984.682 1315.44,976.218C1323.904,967.754 1328.668,956.276 1328.682,944.306L1328.682,639.385C1328.67,627.413 1323.91,615.935 1315.444,607.469C1306.98,599.004 1295.5,594.243 1283.528,594.232L1004.998,594.232Z" fill="#262626"/>
<path d="M1050.565,742.158L1013.309,742.158C1002.496,742.158 993.731,750.924 993.731,761.736L993.731,798.993C993.731,809.805 1002.496,818.57 1013.309,818.57L1050.565,818.57C1061.378,818.57 1070.143,809.805 1070.143,798.993L1070.143,761.736C1070.143,750.924 1061.378,742.158 1050.565,742.158Z" fill="#FFF1C9"/>
<path d="M1050.565,858.155L1013.309,858.155C1002.496,858.155 993.731,866.92 993.731,877.732L993.731,914.989C993.731,925.802 1002.496,934.567 1013.309,934.567L1050.565,934.567C1061.378,934.567 1070.143,925.802 1070.143,914.989L1070.143,877.732C1070.143,866.92 1061.378,858.155 1050.565,858.155Z" fill="#FFF1C9"/>
<path d="M1289.784,761.779L1117.31,761.779C1116.553,761.779 1115.826,761.478 1115.291,760.942C1114.755,760.407 1114.454,759.68 1114.454,758.923C1114.454,758.165 1114.755,757.439 1115.291,756.903C1115.826,756.368 1116.553,756.067 1117.31,756.067L1289.784,756.067C1290.542,756.067 1291.268,756.368 1291.804,756.903C1292.339,757.439 1292.64,758.165 1292.64,758.923C1292.64,759.68 1292.339,760.407 1291.804,760.942C1291.268,761.478 1290.542,761.779 1289.784,761.779Z" fill="#262626"/>
<path d="M1223.625,803.834L1117.31,803.834C1116.553,803.834 1115.826,803.533 1115.291,802.997C1114.755,802.462 1114.454,801.735 1114.454,800.978C1114.454,800.22 1114.755,799.494 1115.291,798.958C1115.826,798.423 1116.553,798.122 1117.31,798.122L1223.625,798.122C1224.382,798.122 1225.109,798.423 1225.644,798.958C1226.18,799.494 1226.481,800.22 1226.481,800.978C1226.481,801.735 1226.18,802.462 1225.644,802.997C1225.109,803.533 1224.382,803.834 1223.625,803.834Z" fill="#262626"/>
<path d="M1289.784,878.19L1117.31,878.19C1116.553,878.19 1115.826,877.889 1115.291,877.353C1114.755,876.817 1114.454,876.091 1114.454,875.334C1114.454,874.576 1114.755,873.85 1115.291,873.314C1115.826,872.778 1116.553,872.478 1117.31,872.478L1289.784,872.478C1290.542,872.478 1291.268,872.778 1291.804,873.314C1292.339,873.85 1292.64,874.576 1292.64,875.334C1292.64,876.091 1292.339,876.817 1291.804,877.353C1291.268,877.889 1290.542,878.19 1289.784,878.19Z" fill="#262626"/>
<path d="M1223.625,920.244L1117.31,920.244C1116.553,920.244 1115.826,919.943 1115.291,919.407C1114.755,918.872 1114.454,918.145 1114.454,917.388C1114.454,916.631 1114.755,915.904 1115.291,915.368C1115.826,914.833 1116.553,914.532 1117.31,914.532L1223.625,914.532C1224.382,914.532 1225.109,914.833 1225.644,915.368C1226.18,915.904 1226.481,916.631 1226.481,917.388C1226.481,918.145 1226.18,918.872 1225.644,919.407C1225.109,919.943 1224.382,920.244 1223.625,920.244Z" fill="#262626"/>
<path d="M1061.875,645.111C1060.684,642.914 1058.897,641.097 1056.72,639.87C1046.724,634.273 1036.642,637.743 1031.701,645.011C1026.689,637.657 1016.407,634.187 1006.283,640.085C1004.447,641.166 1002.915,642.693 1001.828,644.526C997.229,652.223 998.129,659.962 1001.985,665.475C1002.053,665.576 1002.129,665.671 1002.213,665.76L1002.213,665.76C1002.299,665.874 1007.211,671.572 1010.281,674.685C1012.909,677.327 1019.392,683.382 1028.703,690.893C1029.53,691.559 1030.56,691.923 1031.623,691.923C1032.685,691.923 1033.716,691.559 1034.543,690.893C1040.069,686.466 1044.539,682.639 1047.895,679.726C1050.417,677.605 1052.802,675.325 1055.035,672.9C1059.89,667.659 1070.457,660.719 1061.875,645.111Z" fill="#D3B970"/>
<path d="M941.31,1179.697L632.004,1179.697C627.285,1179.699 622.611,1178.771 618.251,1176.966C613.89,1175.162 609.928,1172.516 606.59,1169.179C603.252,1165.843 600.604,1161.881 598.798,1157.521C596.991,1153.161 596.062,1148.488 596.062,1143.769L596.062,1084.464C596.065,1063.306 604.472,1043.015 619.434,1028.054C634.395,1013.092 654.686,1004.685 675.844,1004.682L1010.738,1004.682C1024.752,1004.682 1038.19,1010.248 1048.1,1020.157C1058.008,1030.066 1063.574,1043.505 1063.574,1057.518L1063.574,1057.518C1063.57,1073.568 1060.402,1089.46 1054.254,1104.287C1048.108,1119.113 1039.1,1132.584 1027.746,1143.929C1016.394,1155.275 1002.916,1164.273 988.086,1170.41C973.254,1176.547 957.36,1179.703 941.31,1179.697Z" fill="#FFE18B"/>
<path d="M463,1185.367C450.196,1185.101 437.569,1182.315 425.84,1177.171C414.112,1172.025 403.513,1164.619 394.647,1155.377C385.781,1146.133 378.822,1135.235 374.168,1123.303C369.515,1111.371 367.257,1098.639 367.524,1085.835L372.851,829.58C373.162,814.864 379.304,800.874 389.927,790.685C400.549,780.496 414.783,774.943 429.499,775.245L513.537,777.001C528.242,777.32 542.218,783.465 552.394,794.085C562.569,804.705 568.111,818.931 567.801,833.636L562.532,1089.891C562.267,1102.695 559.481,1115.321 554.336,1127.051C549.19,1138.779 541.784,1149.379 532.542,1158.245C523.299,1167.109 512.401,1174.069 500.469,1178.723C488.537,1183.375 475.805,1185.633 463,1185.367Z" fill="#FFE18B"/>
<path d="M920.346,1004.667L842.806,1004.667C842.048,1004.667 841.322,1004.366 840.786,1003.831C840.251,1003.295 839.95,1002.569 839.95,1001.811C839.95,1001.054 840.251,1000.327 840.786,999.792C841.322,999.256 842.048,998.955 842.806,998.955L920.346,998.955C921.104,998.955 921.83,999.256 922.366,999.792C922.901,1000.327 923.202,1001.054 923.202,1001.811C923.202,1002.569 922.901,1003.295 922.366,1003.831C921.83,1004.366 921.104,1004.667 920.346,1004.667Z" fill="#262626"/>
<path d="M830.81,589.476C826.706,589.476 822.693,588.26 819.28,585.98C815.866,583.701 813.205,580.46 811.632,576.669C810.059,572.877 809.646,568.705 810.443,564.678C811.241,560.652 813.214,556.952 816.114,554.047C819.013,551.141 822.709,549.16 826.734,548.354C830.758,547.548 834.932,547.953 838.727,549.518C842.521,551.083 845.767,553.738 848.054,557.147C850.34,560.556 851.565,564.566 851.574,568.671C851.577,571.4 851.043,574.104 850.002,576.627C848.96,579.15 847.431,581.444 845.503,583.376C843.575,585.308 841.285,586.841 838.764,587.888C836.243,588.935 833.54,589.475 830.81,589.476L830.81,589.476ZM830.81,553.662C827.832,553.662 824.92,554.546 822.444,556.202C819.968,557.858 818.039,560.211 816.901,562.963C815.763,565.716 815.468,568.745 816.052,571.665C816.636,574.586 818.074,577.268 820.183,579.371C822.292,581.474 824.978,582.905 827.9,583.48C830.823,584.056 833.851,583.752 836.6,582.606C839.35,581.461 841.697,579.525 843.346,577.044C844.995,574.563 845.87,571.649 845.862,568.671C845.847,564.687 844.255,560.872 841.434,558.06C838.613,555.247 834.794,553.666 830.81,553.662L830.81,553.662Z" fill="#262626"/>
<path d="M568.201,841.104C567.444,841.104 566.717,840.803 566.182,840.268C565.646,839.732 565.345,839.006 565.345,838.248C564.974,781.257 518.364,780.014 516.408,780.014C515.65,780.014 514.924,779.713 514.388,779.178C513.853,778.642 513.552,777.916 513.552,777.158C513.552,776.401 513.853,775.674 514.388,775.139C514.924,774.603 515.65,774.302 516.408,774.302C516.95,774.302 570.586,775.545 571,838.262C571,839.02 570.699,839.746 570.164,840.282C569.628,840.817 568.902,841.118 568.144,841.118L568.201,841.104Z" fill="#262626"/>
<path d="M735.163,715.926L646.627,715.926C645.87,715.926 645.143,715.625 644.607,715.089C644.072,714.554 643.771,713.827 643.771,713.07C643.771,712.312 644.072,711.586 644.607,711.05C645.143,710.515 645.87,710.214 646.627,710.214L735.163,710.214C735.92,710.214 736.647,710.515 737.182,711.05C737.718,711.586 738.019,712.312 738.019,713.07C738.019,713.827 737.718,714.554 737.182,715.089C736.647,715.625 735.92,715.926 735.163,715.926Z" fill="#262626"/>
<path d="M651.253,1168.602C650.496,1168.602 649.77,1168.301 649.234,1167.765C648.698,1167.23 648.397,1166.503 648.397,1165.746L648.397,1036.198C648.397,1035.44 648.698,1034.714 649.234,1034.178C649.77,1033.643 650.496,1033.342 651.253,1033.342C652.011,1033.342 652.737,1033.643 653.273,1034.178C653.809,1034.714 654.109,1035.44 654.109,1036.198L654.109,1165.746C654.109,1166.503 653.809,1167.23 653.273,1167.765C652.737,1168.301 652.011,1168.602 651.253,1168.602Z" fill="#262626"/>
<path d="M533.572,828.966L404.038,828.966C403.281,828.966 402.554,828.665 402.019,828.13C401.483,827.594 401.182,826.868 401.182,826.11C401.182,825.353 401.483,824.626 402.019,824.091C402.554,823.555 403.281,823.254 404.038,823.254L533.572,823.254C534.33,823.254 535.056,823.555 535.592,824.091C536.127,824.626 536.428,825.353 536.428,826.11C536.428,826.868 536.127,827.594 535.592,828.13C535.056,828.665 534.33,828.966 533.572,828.966Z" fill="#262626"/>
<path d="M222.511,1022.617C221.926,1022.618 221.355,1022.439 220.874,1022.105C220.394,1021.77 220.028,1021.296 219.827,1020.747C203.262,975.565 169.018,938.879 168.676,938.522C168.155,937.971 167.874,937.236 167.896,936.478C167.917,935.72 168.239,935.002 168.79,934.481C169.341,933.96 170.076,933.68 170.834,933.701C171.592,933.723 172.31,934.044 172.831,934.595C173.174,934.967 208.217,972.466 225.196,1018.847C225.454,1019.558 225.42,1020.341 225.101,1021.026C224.783,1021.711 224.206,1022.242 223.496,1022.503C223.178,1022.602 222.844,1022.641 222.511,1022.617L222.511,1022.617Z" fill="#262626"/>
<path d="M238.676,1027.273C237.918,1027.273 237.192,1026.972 236.656,1026.436C236.121,1025.901 235.82,1025.174 235.82,1024.417L235.82,985.304C235.82,984.546 236.121,983.82 236.656,983.284C237.192,982.749 237.918,982.448 238.676,982.448C239.433,982.448 240.16,982.749 240.695,983.284C241.231,983.82 241.532,984.546 241.532,985.304L241.532,1024.417C241.532,1025.174 241.231,1025.901 240.695,1026.436C240.16,1026.972 239.433,1027.273 238.676,1027.273Z" fill="#262626"/>
<path d="M322.828,1083.236C322.824,1073.886 319.108,1064.921 312.497,1058.309C305.886,1051.698 296.92,1047.982 287.571,1047.979L279.717,1047.979L279.717,1021.346L182.527,1021.346L182.527,1047.993L174.673,1047.993C165.322,1047.993 156.354,1051.707 149.742,1058.32C143.13,1064.932 139.416,1073.899 139.416,1083.25L139.416,1083.25C139.427,1092.592 143.147,1101.548 149.758,1108.148C156.369,1114.749 165.331,1118.454 174.673,1118.45C170.044,1118.449 165.459,1119.359 161.182,1121.129C156.904,1122.899 153.017,1125.495 149.743,1128.768C146.469,1132.041 143.872,1135.926 142.1,1140.203C140.328,1144.48 139.416,1149.064 139.416,1153.693L139.416,1153.693C139.414,1158.324 140.324,1162.91 142.096,1167.188C143.867,1171.467 146.464,1175.354 149.738,1178.628C153.012,1181.903 156.9,1184.5 161.178,1186.271C165.457,1188.042 170.042,1188.953 174.673,1188.951L287.571,1188.951C296.921,1188.951 305.889,1185.236 312.501,1178.624C319.113,1172.012 322.828,1163.044 322.828,1153.693L322.828,1153.693C322.824,1144.345 319.108,1135.381 312.496,1128.772C305.885,1122.163 296.919,1118.45 287.571,1118.45C296.914,1118.45 305.875,1114.742 312.486,1108.139C319.097,1101.536 322.817,1092.579 322.828,1083.236L322.828,1083.236Z" fill="#F9B800"/>
<path d="M289.056,1121.506L249.229,1121.506C248.472,1121.506 247.745,1121.205 247.21,1120.67C246.674,1120.134 246.373,1119.408 246.373,1118.65C246.373,1117.893 246.674,1117.166 247.21,1116.631C247.745,1116.095 248.472,1115.794 249.229,1115.794L289.056,1115.794C289.813,1115.794 290.54,1116.095 291.075,1116.631C291.611,1117.166 291.912,1117.893 291.912,1118.65C291.912,1119.408 291.611,1120.134 291.075,1120.67C290.54,1121.205 289.813,1121.506 289.056,1121.506L289.056,1121.506Z" fill="#262626"/>
<path d="M193.408,1121.306L172.56,1121.306C171.802,1121.306 171.076,1121.005 170.54,1120.47C170.005,1119.934 169.704,1119.208 169.704,1118.45C169.704,1117.693 170.005,1116.966 170.54,1116.431C171.076,1115.895 171.802,1115.594 172.56,1115.594L193.408,1115.594C194.166,1115.594 194.892,1115.895 195.428,1116.431C195.964,1116.966 196.264,1117.693 196.264,1118.45C196.264,1119.208 195.964,1119.934 195.428,1120.47C194.892,1121.005 194.166,1121.306 193.408,1121.306Z" fill="#262626"/>
<path d="M231.136,1029.629C258.463,1029.629 280.616,1025.013 280.616,1019.319C280.616,1013.625 258.463,1009.009 231.136,1009.009C203.809,1009.009 181.656,1013.625 181.656,1019.319C181.656,1025.013 203.809,1029.629 231.136,1029.629Z" fill="#262626"/>
<path d="M238.676,985.304C251.571,985.304 262.024,974.851 262.024,961.956C262.024,949.061 251.571,938.608 238.676,938.608C225.781,938.608 215.328,949.061 215.328,961.956C215.328,974.851 225.781,985.304 238.676,985.304Z" fill="#FFBB45"/>
<path d="M162.349,952.031C176.167,952.031 187.368,940.83 187.368,927.013C187.368,913.195 176.167,901.994 162.349,901.994C148.532,901.994 137.331,913.195 137.331,927.013C137.331,940.83 148.532,952.031 162.349,952.031Z" fill="#FFBB45"/>
<path d="M463.543,568.014C460.687,560.217 456.56,550.206 450.763,541.838C445.85,534.698 440.238,531.699 434.069,532.77C432.285,532.983 430.57,533.588 429.047,534.541C427.524,535.494 426.23,536.771 425.258,538.283C420.389,546.094 423.631,559.874 425.258,565.415L425.473,566.129L420.032,567.856L419.775,567.014C417.504,559.189 414.549,544.666 420.418,535.255C421.809,533.056 423.665,531.189 425.856,529.785C428.047,528.381 430.519,527.475 433.098,527.13C441.538,525.702 449.278,529.615 455.475,538.554C461.673,547.493 465.885,557.889 468.913,565.986L463.543,568.014Z" fill="#262626"/>
</svg>
